<?xml version="1.0" encoding="utf-8"?>
<!-- Generator: Adobe Illustrator 19.2.1, SVG Export Plug-In . SVG Version: 6.00 Build 0)  -->
<svg version="1.1" id="Layer_1" xmlns="http://www.w3.org/2000/svg" xmlns:xlink="http://www.w3.org/1999/xlink" x="0px" y="0px"
	 viewBox="0 0 128 128" style="enable-background:new 0 0 128 128;" xml:space="preserve">
<style type="text/css">
	.st0{fill:#FFFFFF;}
</style>
<path id="White_2_" class="st0" d="M120.9,0H7.1C3.2,0,0,3.2,0,7.1v113.9c0,3.9,3.2,7.1,7.1,7.1h61.3V78.4H51.7V59.1h16.7V44.9
	c0-16.5,10.1-25.5,24.8-25.5c7.1,0,13.1,0.5,14.9,0.8v17.3l-10.2,0c-8,0-9.6,3.8-9.6,9.4v12.3h19.1L105,78.4H88.3V128h32.6
	c3.9,0,7.1-3.2,7.1-7.1V7.1C128,3.2,124.8,0,120.9,0z"/>
</svg>
