<?xml version="1.0" encoding="utf-8"?>
<!-- Generator: Adobe Illustrator 19.2.1, SVG Export Plug-In . SVG Version: 6.00 Build 0)  -->
<svg version="1.1" xmlns="http://www.w3.org/2000/svg" xmlns:xlink="http://www.w3.org/1999/xlink" x="0px" y="0px"
	 viewBox="0 0 256 64" style="enable-background:new 0 0 256 64;" xml:space="preserve">
<style type="text/css">
	.st0{fill:#FFFFFF;}
</style>
<g id="Layer_1">
	<g>
		<path class="st0" d="M5.4,13.2h0.2C7.9,8.7,12.7,6,17.9,6c6.2,0,11.2,3.2,13.7,8.9c2.6-5.8,8-8.9,14.3-8.9C58.4,6,61,14.6,61,25.2
			v30.6h-4.8V24.6c0-7.5-1.2-14.1-10.5-14.1c-10.1,0-12.6,8.9-12.6,17.3v28.1h-4.8V25.8c0-7.6-1.4-15.3-10.9-15.3
			C7.3,10.5,5.4,21.1,5.4,29v26.8H0.7V7.1h4.8V13.2z"/>
		<path class="st0" d="M117.6,55.9h-4.8v-8.8h-0.2c-3.6,6.2-11.4,9.8-18.6,9.8C79.3,56.9,70,45.4,70,31.2C70,16.9,79.2,6,93.9,6
			c7.5,0,14.7,3.4,18.8,9.5h0.2V7.1h4.8V55.9z M74.8,31.2c0,11.2,7.4,21.3,19.2,21.3c12.5,0,19.2-10.1,19.2-21.9
			c0-11.3-7.7-20.2-19.5-20.2C82.5,10.5,74.8,20.6,74.8,31.2z"/>
		<path class="st0" d="M131.6,31.9c-0.3,12.4,8.2,20.6,19.5,20.6c7.6,0,13.7-4.5,17.2-11.1l4,2.3c-4.4,8.4-12.2,13.2-21.9,13.2
			c-14.5,0-23.6-11.7-23.6-25.5c0-13.6,9.4-25.3,23.6-25.3c14.8,0,23.5,11.8,23.4,25.9H131.6z M169.1,27.5c-1.2-9-8.6-17-18.6-17
			c-9.9,0-18.2,7.8-19,17H169.1z"/>
		<path class="st0" d="M197.9,39.6l14.8-33.4h9.5l-24.3,52.9L173.5,6.2h9.6L197.9,39.6z"/>
		<path class="st0" d="M236.5,11.6h0.2c3-3.9,5.5-6.8,11-6.8c2.8,0,5.2,0.9,7.6,2.3l-4,7.7c-1.7-1.2-2.8-2.2-5.1-2.2
			c-9.3,0-9.7,11.9-9.7,18.4v24.8h-8.4V6.2h8.4V11.6z"/>
	</g>
</g>
<g id="Layer_2">
</g>
</svg>
