<?xml version="1.0" encoding="utf-8"?>
<!-- Generator: Adobe Illustrator 19.2.1, SVG Export Plug-In . SVG Version: 6.00 Build 0)  -->
<svg version="1.1" id="Layer_1" xmlns="http://www.w3.org/2000/svg" xmlns:xlink="http://www.w3.org/1999/xlink" x="0px" y="0px"
	 viewBox="0 0 208 96" style="enable-background:new 0 0 208 96;" xml:space="preserve">
<style type="text/css">
	.st0{fill:#FFFFFF;}
</style>
<path class="st0" d="M43.1,39.7c-6.1,0-11.2,3.7-13.5,9c-2.3-5.3-7.7-9-13.7-9c-8.2,0-15,6.6-15,14.8v26h2.3v-26
	c0-6.7,5.7-12.1,12.5-12.1s12.5,5.7,12.5,12.5v25.7h2.3V54.8c0-6.7,5.7-12.5,12.5-12.5s12.5,5.4,12.5,12.1v26h2.3v-26
	C57.8,46.4,51.3,39.7,43.1,39.7z M97.4,50.4c-3.3-6.4-9.7-10.7-17.1-10.7c-10.8,0-19.6,9.2-19.6,20.5s8.7,20.5,19.5,20.5
	c7.4,0,13.8-4.3,17.1-10.7v10.4h2.3v-40h-2.3V50.4z M80.3,78.2c-9.4,0-17-8.1-17-18s7.6-18,17-18s17,8.1,17,18
	C97.4,70.1,89.8,78.2,80.3,78.2z M139.8,60.3h2.3h0.2c0-11.3-8.8-20.5-19.6-20.5c-10.8,0-19.6,9.1-19.6,20.5
	c0,11.3,8.7,20.6,19.6,20.6c8.3,0,15.8-5.6,18.6-13.1h-2.7c-2.7,6.1-8.9,10.5-15.9,10.5c-9.4,0-17-8.1-17-18v-0.1L139.8,60.3
	L139.8,60.3z M122.8,42.6c8.6,0,15.6,6.4,16.8,15.4H106C107.2,48.9,114.3,42.6,122.8,42.6z M191.8,49.4c2.7-5.9,8.5-9.9,15.4-10v7.7
	c-8.5-0.2-14.6,6.8-15.4,14.7v18.7h-7.7V39.7h7.7V49.4z M160.2,67.3l12.2-27.6h7.8l-20.1,43.7l-20.1-43.7h7.9L160.2,67.3z"/>
</svg>
