<?xml version="1.0" encoding="utf-8"?>
<!-- Generator: Adobe Illustrator 19.2.1, SVG Export Plug-In . SVG Version: 6.00 Build 0)  -->
<svg version="1.1" id="Layer_1" xmlns="http://www.w3.org/2000/svg" xmlns:xlink="http://www.w3.org/1999/xlink" x="0px" y="0px"
	 viewBox="0 0 192 96" style="enable-background:new 0 0 192 96;" xml:space="preserve">
<style type="text/css">
	.st0{fill:#FFFFFF;}
</style>
<path class="st0" d="M42.9,39.6c-5.3,0-9.8,3.3-11.8,7.9c-2-4.6-6.7-7.9-12-7.9C11.9,39.6,6,45.2,6,52.4V75h2V52.4
	c0-5.8,5-10.6,10.9-10.6s10.8,5,10.8,10.8V75h2.1V52.7c0-5.8,5-10.8,10.8-10.8s11,4.7,11,10.5V75h2V52.4
	C55.7,45.3,50,39.6,42.9,39.6z M90.3,48.9c-2.9-5.6-8.4-9.3-14.8-9.3c-9.5,0-17,8-17,17.9s7.7,17.9,17,17.9c6.5,0,12.1-3.7,14.9-9.3
	v9.1h2V40.3h-2.1V48.9z M75.3,73.1c-8.1,0-14.8-7.1-14.8-15.7s6.7-15.6,14.8-15.6s14.8,7.1,14.8,15.7C90.3,66.1,83.6,73.1,75.3,73.1
	z M127.2,57.5h2h0.2c0-9.9-7.7-17.9-17-17.9c-9.5,0-17,7.9-17,17.9c0,9.9,7.7,18,17,18c7.3,0,13.8-4.9,16.2-11.4h-2.4
	c-2.3,5.4-7.8,9.2-13.8,9.2c-8.1,0-14.8-7.1-14.8-15.7v-0.1L127.2,57.5L127.2,57.5z M112.5,42c7.5,0,13.6,5.6,14.6,13.4H97.7
	C98.8,47.6,105,42,112.5,42z M172.6,48c2.3-5.2,7.4-8.7,13.4-8.7V46c-7.4-0.1-12.7,5.9-13.4,12.8v16.3h-6.7V39.6h6.7V48z M145,63.6
	l10.6-24h6.8l-17.5,38.1l-17.5-38.1h6.9L145,63.6z"/>
</svg>
