<?xml version="1.0" encoding="utf-8"?>
<!-- Generator: Adobe Illustrator 19.2.1, SVG Export Plug-In . SVG Version: 6.00 Build 0)  -->
<svg version="1.1" id="Layer_1" xmlns="http://www.w3.org/2000/svg" xmlns:xlink="http://www.w3.org/1999/xlink" x="0px" y="0px"
	 viewBox="0 0 192 96" style="enable-background:new 0 0 192 96;" xml:space="preserve">
<style type="text/css">
	.st0{fill:#FFFFFF;}
</style>
<g>
	<path class="st0" d="M13.5,51.6c0-4.7,3.2-8.3,7.9-8.3s8,3.6,8,8.3s-3.2,8.3-8,8.3S13.5,56.3,13.5,51.6z M27.4,51.6
		c0-3.7-2.3-6.5-5.9-6.5s-5.9,2.8-5.9,6.5c0,3.7,2.3,6.5,5.9,6.5C25,58.1,27.4,55.3,27.4,51.6z"/>
	<path class="st0" d="M34.9,59.6v-16H42c2.8,0,4.5,1.7,4.5,4.1c0,2-1.3,3.4-2.8,3.7c1.7,0.3,3.1,2,3.1,3.9c0,2.6-1.7,4.3-4.6,4.3
		H34.9z M44.5,47.9c0-1.4-1-2.6-2.8-2.6h-4.8v5.2h4.8C43.5,50.5,44.5,49.4,44.5,47.9z M44.8,55c0-1.5-1-2.8-3-2.8h-4.9v5.5h4.9
		C43.7,57.8,44.8,56.7,44.8,55z"/>
	<path class="st0" d="M50.8,58l1.1-1.5c0.7,0.8,1.6,1.6,3,1.6c2,0,3.2-1.4,3.2-3.4V43.5h2v11.2c0,3.5-2.2,5.1-5.1,5.1
		C53.3,59.9,51.9,59.3,50.8,58z"/>
	<path class="st0" d="M66.2,59.6v-16h10.5v1.8h-8.5v5.2h8.3v1.8h-8.3v5.5h8.5v1.8H66.2V59.6z"/>
	<path class="st0" d="M81.6,51.6c0-4.9,3.6-8.3,8.2-8.3c2.8,0,4.8,1.3,6.1,3.2l-1.7,0.9c-0.9-1.4-2.6-2.3-4.4-2.3
		c-3.5,0-6.2,2.7-6.2,6.5c0,3.8,2.7,6.5,6.2,6.5c1.8,0,3.5-1,4.4-2.3l1.7,0.9c-1.3,1.8-3.3,3.2-6.1,3.2
		C85.2,59.9,81.6,56.5,81.6,51.6z"/>
	<path class="st0" d="M104.8,59.6V45.4h-5.1v-1.8h12.1v1.8h-5.1v14.2H104.8z"/>
</g>
<g>
	<path class="st0" d="M24.8,81.1l-9.3-12.8v12.8h-2v-16h2l9.2,12.5V65.1h2v16H24.8z"/>
	<path class="st0" d="M32.2,73.1c0-4.7,3.2-8.3,7.9-8.3s8,3.6,8,8.3s-3.2,8.3-8,8.3C35.4,81.4,32.2,77.8,32.2,73.1z M46.1,73.1
		c0-3.7-2.3-6.5-5.9-6.5c-3.6,0-5.9,2.8-5.9,6.5s2.3,6.5,5.9,6.5S46.1,76.8,46.1,73.1z"/>
	<path class="st0" d="M62.9,81.1l-4.1-6.4h-3.2v6.4h-2v-16H60c2.9,0,5,1.9,5,4.8c0,2.9-2,4.5-4.2,4.7l4.3,6.5H62.9z M63,69.9
		c0-1.8-1.3-3-3.2-3h-4.2V73h4.2C61.7,73,63,71.7,63,69.9z"/>
	<path class="st0" d="M84.3,81.1V67.6l-5.4,13.5h-0.8l-5.5-13.5v13.5h-2v-16h2.9l5,12.3l5-12.3h2.9v16H84.3z"/>
	<path class="st0" d="M103.9,81.1l-1.4-3.6h-8l-1.4,3.6h-2.3l6.5-16h2.5l6.4,16H103.9z M98.5,67.1l-3.4,8.6h6.8L98.5,67.1z"/>
	<path class="st0" d="M110.4,81.1v-16h2v14.2h7.4v1.8H110.4z"/>
</g>
<g>
	<path class="st0" d="M134.1,46.6c-3.6,4.5-5.5,9.9-5.5,15.7c0,13.8,11.2,25,25,25l0,0c5.8,0,11.3-2,15.7-5.5L134.1,46.6z"/>
	<path class="st0" d="M153.5,37.3L153.5,37.3c-5.8,0-11.2,2-15.7,5.5L173,78c3.6-4.4,5.5-9.9,5.5-15.7
		C178.5,48.5,167.3,37.3,153.5,37.3z"/>
</g>
<g>
	<path class="st0" d="M13.5,25.9V13h4.8c1,0,1.8,0.1,2.4,0.4s1.1,0.7,1.4,1.2s0.5,1.1,0.5,1.7c0,0.6-0.1,1.1-0.4,1.6
		s-0.8,0.9-1.4,1.2c0.8,0.2,1.4,0.6,1.8,1.2s0.6,1.2,0.6,2c0,0.6-0.1,1.2-0.4,1.7s-0.6,0.9-0.9,1.2s-0.8,0.5-1.4,0.6
		s-1.3,0.2-2.1,0.2H13.5z M15.2,18.4H18c0.8,0,1.3,0,1.6-0.1c0.4-0.1,0.8-0.3,1-0.6s0.3-0.7,0.3-1.1c0-0.4-0.1-0.8-0.3-1.1
		s-0.5-0.5-0.9-0.7s-1-0.2-2-0.2h-2.6V18.4z M15.2,24.4h3.2c0.6,0,0.9,0,1.2-0.1c0.4-0.1,0.7-0.2,1-0.4s0.5-0.4,0.7-0.7
		s0.3-0.7,0.3-1.1c0-0.5-0.1-0.9-0.4-1.3s-0.6-0.6-1-0.7s-1.1-0.2-1.9-0.2h-3V24.4z"/>
	<path class="st0" d="M34.9,13h1.7v7.4c0,1.3-0.1,2.3-0.4,3.1s-0.8,1.4-1.6,1.9s-1.8,0.7-3,0.7c-1.2,0-2.2-0.2-3-0.6s-1.3-1-1.6-1.8
		s-0.5-1.9-0.5-3.2V13h1.7v7.4c0,1.1,0.1,1.9,0.3,2.5s0.6,0.9,1.1,1.2s1.1,0.4,1.9,0.4c1.3,0,2.1-0.3,2.7-0.9s0.8-1.7,0.8-3.3V13z"
		/>
	<path class="st0" d="M40.7,25.9V13h1.7v12.9H40.7z"/>
	<path class="st0" d="M46.2,25.9V13h1.7v11.4h6.3v1.5H46.2z"/>
	<path class="st0" d="M59.1,25.9V14.5h-4.2V13h10.2v1.5h-4.3v11.4H59.1z"/>
	<path class="st0" d="M73.2,25.9V13h4.8c1,0,1.8,0.1,2.4,0.4s1.1,0.7,1.4,1.2s0.5,1.1,0.5,1.7c0,0.6-0.1,1.1-0.4,1.6
		s-0.8,0.9-1.4,1.2c0.8,0.2,1.4,0.6,1.8,1.2s0.6,1.2,0.6,2c0,0.6-0.1,1.2-0.4,1.7S82,24.8,81.6,25s-0.8,0.5-1.4,0.6
		s-1.3,0.2-2.1,0.2H73.2z M75,18.4h2.8c0.8,0,1.3,0,1.6-0.1c0.4-0.1,0.8-0.3,1-0.6s0.3-0.7,0.3-1.1c0-0.4-0.1-0.8-0.3-1.1
		s-0.5-0.5-0.9-0.7s-1-0.2-2-0.2H75V18.4z M75,24.4h3.2c0.6,0,0.9,0,1.2-0.1c0.4-0.1,0.7-0.2,1-0.4s0.5-0.4,0.7-0.7s0.3-0.7,0.3-1.1
		c0-0.5-0.1-0.9-0.4-1.3s-0.6-0.6-1-0.7s-1.1-0.2-1.9-0.2h-3V24.4z"/>
	<path class="st0" d="M89.9,25.9v-5.5l-5-7.4H87l2.5,3.9c0.5,0.7,0.9,1.5,1.3,2.2c0.4-0.7,0.9-1.4,1.4-2.3l2.5-3.8h2l-5.1,7.4v5.5
		H89.9z"/>
</g>
</svg>
