<?xml version="1.0" encoding="utf-8"?>
<!-- Generator: Adobe Illustrator 19.2.1, SVG Export Plug-In . SVG Version: 6.00 Build 0)  -->
<svg version="1.1" id="Layer_1" xmlns="http://www.w3.org/2000/svg" xmlns:xlink="http://www.w3.org/1999/xlink" x="0px" y="0px"
	 viewBox="0 0 192 96" style="enable-background:new 0 0 192 96;" xml:space="preserve">
<style type="text/css">
	.st0{fill:#FFFFFF;}
	.st1{font-family:'ArialMT';}
	.st2{font-size:20px;}
</style>
<g>
	<g>
		<path class="st0" d="M2.5,45.7c0-5.3,3.6-9.3,8.8-9.3s9,4,9,9.3s-3.6,9.3-9,9.3S2.5,51,2.5,45.7z M18,45.7c0-4.1-2.6-7.3-6.6-7.3
			s-6.6,3.1-6.6,7.3S7.4,53,11.4,53C15.4,53,18,49.9,18,45.7z"/>
		<path class="st0" d="M26.4,54.7V36.8h8c3.1,0,5,1.9,5,4.6c0,2.2-1.5,3.8-3.1,4.1c1.9,0.3,3.5,2.2,3.5,4.4c0,2.9-1.9,4.8-5.2,4.8
			H26.4z M37.2,41.6c0-1.6-1.1-2.9-3.1-2.9h-5.4v5.8h5.4C36.1,44.5,37.2,43.3,37.2,41.6z M37.5,49.5c0-1.7-1.1-3.1-3.4-3.1h-5.5v6.2
			h5.5C36.3,52.7,37.5,51.5,37.5,49.5z"/>
		<path class="st0" d="M44.3,52.9l1.2-1.7c0.8,0.9,1.8,1.8,3.4,1.8c2.2,0,3.6-1.6,3.6-3.8V36.7h2.2v12.5c0,3.9-2.5,5.7-5.7,5.7
			C47.1,55,45.5,54.4,44.3,52.9z"/>
		<path class="st0" d="M61.5,54.7V36.8h11.8v2h-9.5v5.8H73v2h-9.3v6.2h9.5v2H61.5V54.7z"/>
		<path class="st0" d="M78.8,45.7c0-5.5,4-9.3,9.2-9.3c3.1,0,5.4,1.5,6.8,3.6l-1.9,1c-1-1.6-2.9-2.6-4.9-2.6c-3.9,0-6.9,3-6.9,7.3
			s3,7.3,6.9,7.3c2,0,3.9-1.1,4.9-2.6l1.9,1c-1.5,2-3.7,3.6-6.8,3.6C82.8,55,78.8,51.2,78.8,45.7z"/>
		<path class="st0" d="M104.7,54.7V38.8H99v-2h13.6v2h-5.7v15.9C106.9,54.7,104.7,54.7,104.7,54.7z"/>
	</g>
	<g>
		<path class="st0" d="M17.4,80L7,65.7V80H4.7V62.1H7l10.3,14v-14h2.2V80H17.4z"/>
		<path class="st0" d="M25.7,71.1c0-5.3,3.6-9.3,8.8-9.3s9,4,9,9.3c0,5.3-3.6,9.3-9,9.3C29.2,80.4,25.7,76.3,25.7,71.1z M41.2,71.1
			c0-4.1-2.6-7.3-6.6-7.3c-4,0-6.6,3.1-6.6,7.3c0,4.1,2.6,7.3,6.6,7.3C38.7,78.3,41.2,75.2,41.2,71.1z"/>
		<path class="st0" d="M60,80l-4.6-7.2h-3.6V80h-2.2V62.1h7.2c3.2,0,5.6,2.1,5.6,5.4s-2.2,5-4.7,5.3l4.8,7.3H60z M60.2,67.5
			c0-2-1.5-3.4-3.6-3.4h-4.7v6.8h4.7C58.7,70.9,60.2,69.5,60.2,67.5z"/>
		<path class="st0" d="M84,80V64.9L78,80h-0.9l-6.2-15.1V80h-2.2V62.1h3.2l5.6,13.8l5.6-13.8h3.2V80H84z"/>
		<path class="st0" d="M106,80l-1.6-4h-9l-1.6,4h-2.6l7.3-17.9h2.8l7.2,17.9H106z M99.9,64.3L96.1,74h7.6L99.9,64.3z"/>
		<path class="st0" d="M113.2,80V62.1h2.2V78h8.3v2H113.2z"/>
	</g>
</g>
<g>
	<path class="st0" d="M139.8,40.8c-4,5-6.2,11.1-6.2,17.6c0,15.5,12.5,28,28,28l0,0c6.5,0,12.7-2.2,17.6-6.2L139.8,40.8z"/>
	<path class="st0" d="M161.5,30.4L161.5,30.4c-6.5,0-12.5,2.2-17.6,6.2L183.4,76c4-4.9,6.2-11.1,6.2-17.6
		C189.5,42.9,177,30.4,161.5,30.4z"/>
</g>
<text transform="matrix(1 0 0 1 2.72 25.7647)" class="st0 st1 st2">Built by</text>
</svg>
