<?xml version="1.0" encoding="utf-8"?>
<!-- Generator: Adobe Illustrator 19.2.1, SVG Export Plug-In . SVG Version: 6.00 Build 0)  -->
<svg version="1.1" id="Layer_1" xmlns="http://www.w3.org/2000/svg" xmlns:xlink="http://www.w3.org/1999/xlink" x="0px" y="0px"
	 viewBox="0 0 1024 256" style="enable-background:new 0 0 1024 256;" xml:space="preserve">
<style type="text/css">
	.st0{opacity:0.6;fill:#FFFFFF;enable-background:new    ;}
	.st1{fill:#FFFFFF;}
</style>
<path id="A_MULTISENSORY_AESTHETIC_EXPERIENCE_in_VR" class="st0" d="M161.3,211.2c-0.1,0.1,0,0.2,0.1,0.3c0.1,0,0.1,0,0.1,0h2
	c0.2,0,0.3-0.1,0.4-0.3l1.5-4.2h7.9l1.5,4.2c0.1,0.2,0.2,0.3,0.4,0.3h2c0.1,0,0.2-0.1,0.2-0.2c0-0.1,0-0.1,0-0.1l-6.7-18.9
	c-0.1-0.2-0.2-0.3-0.4-0.3h-1.9c-0.2,0-0.3,0.1-0.3,0.3L161.3,211.2z M166.2,204.6l3.1-8.9h0.1l3,8.9H166.2z M191.1,211.2
	c0,0.2,0.1,0.3,0.2,0.3c0,0,0,0,0.1,0h1.8c0.2,0,0.3-0.1,0.3-0.2c0,0,0,0,0-0.1v-13.6h0.1l4.8,10.7c0.1,0.2,0.3,0.4,0.5,0.3h1.1
	c0.2,0,0.5-0.1,0.5-0.3l4.8-10.7h0.1v13.6c0,0.2,0.1,0.3,0.2,0.3c0,0,0,0,0.1,0h1.8c0.2,0,0.3-0.1,0.3-0.2c0,0,0,0,0-0.1v-18.9
	c0-0.2-0.1-0.3-0.2-0.3c0,0,0,0-0.1,0h-1.8c-0.2,0-0.4,0.1-0.5,0.3l-5.7,13.1h-0.1l-5.9-13.1c-0.1-0.2-0.3-0.3-0.5-0.3h-1.9
	c-0.2,0-0.3,0.1-0.3,0.2c0,0,0,0,0,0.1L191.1,211.2L191.1,211.2z M222.4,211.8c4.2,0,6.9-2.5,6.9-7.1v-12.4c0-0.2-0.1-0.3-0.2-0.3
	c0,0,0,0-0.1,0h-2c-0.2,0-0.3,0.1-0.3,0.2c0,0,0,0,0,0.1v12.4c0,3.2-1.7,4.8-4.3,4.8s-4.4-1.6-4.4-4.8v-12.4c0-0.2-0.1-0.3-0.2-0.3
	c0,0,0,0-0.1,0h-2c-0.2,0-0.3,0.1-0.3,0.2c0,0,0,0,0,0.1v12.4C215.5,209.3,218.1,211.8,222.4,211.8L222.4,211.8z M236.8,211.2
	c0,0.2,0.1,0.3,0.2,0.3c0,0,0,0,0.1,0h11.7c0.2,0,0.3-0.1,0.3-0.2c0,0,0,0,0-0.1v-1.8c0-0.2-0.1-0.3-0.2-0.3c0,0,0,0-0.1,0h-9.3
	c-0.1,0-0.2-0.1-0.2-0.1v-0.1v-16.6c0-0.2-0.1-0.3-0.2-0.3c0,0,0,0-0.1,0h-2c-0.2,0-0.3,0.1-0.3,0.2c0,0,0,0,0,0.1L236.8,211.2
	L236.8,211.2z M258.8,211.5c0.2,0,0.3-0.1,0.3-0.2c0,0,0,0,0-0.1v-16.7c0-0.1,0.1-0.2,0.1-0.2h0.1h5.3c0.2,0,0.3-0.1,0.3-0.2
	c0,0,0,0,0-0.1v-1.8c0-0.2-0.1-0.3-0.2-0.3c0,0,0,0-0.1,0h-13.5c-0.2,0-0.3,0.1-0.3,0.2c0,0,0,0,0,0.1v1.8c0,0.2,0.1,0.3,0.2,0.3
	c0,0,0,0,0.1,0h5.3c0.1,0,0.2,0.1,0.2,0.1v0.1v16.7c0,0.2,0.1,0.3,0.2,0.3c0,0,0,0,0.1,0H258.8L258.8,211.5z M270.8,211.2
	c0,0.2,0.1,0.3,0.2,0.3c0,0,0,0,0.1,0h2c0.2,0,0.3-0.1,0.3-0.2c0,0,0,0,0-0.1v-18.9c0-0.2-0.1-0.3-0.2-0.3c0,0,0,0-0.1,0h-2
	c-0.2,0-0.3,0.1-0.3,0.2c0,0,0,0,0,0.1V211.2z M286.9,211.8c4.7,0,7.1-2.5,7.1-5.9c0-3.2-1.9-4.9-5.7-5.5l-0.9-0.1
	c-3-0.4-4.1-1.5-4.1-3.2c0-1.9,1.3-3.2,3.7-3.2c1.7,0,3.3,0.5,4.7,1.5c0.1,0.1,0.3,0.1,0.4-0.1l0,0l1-1.6c0.1-0.1,0.1-0.3,0-0.3
	c0,0-0.1,0-0.1-0.1c-1.7-1.2-3.8-1.8-5.9-1.8c-3.8,0-6.4,2.2-6.4,5.7c0,3.1,2,4.9,5.7,5.4l1,0.1c3.1,0.4,4.1,1.5,4.1,3.2
	c0,2-1.6,3.3-4.3,3.3c-2-0.1-3.9-0.7-5.5-2c-0.1-0.1-0.3-0.1-0.3,0c0,0,0,0-0.1,0.1l-1.3,1.5c-0.1,0.1-0.1,0.3,0,0.5
	C282,210.9,284.4,211.8,286.9,211.8L286.9,211.8z M300.9,211.2c0,0.2,0.1,0.3,0.2,0.3c0,0,0,0,0.1,0h11.7c0.2,0,0.3-0.1,0.3-0.2
	c0,0,0,0,0-0.1v-1.8c0-0.2-0.1-0.3-0.2-0.3c0,0,0,0-0.1,0h-9.3c-0.1,0-0.2-0.1-0.2-0.1v-0.1v-6c0-0.1,0.1-0.2,0.1-0.2h0.1h7.9
	c0.2,0,0.3-0.1,0.3-0.2c0,0,0,0,0-0.1v-1.8c0-0.2-0.1-0.3-0.2-0.3c0,0,0,0-0.1,0h-7.9c-0.1,0-0.2-0.1-0.2-0.1v-0.1v-5.7
	c0-0.1,0.1-0.2,0.1-0.2h0.1h9.3c0.2,0,0.3-0.1,0.3-0.2c0,0,0,0,0-0.1v-1.8c0-0.2-0.1-0.3-0.2-0.3c0,0,0,0-0.1,0h-11.8
	c-0.2,0-0.3,0.1-0.3,0.2c0,0,0,0,0,0.1L300.9,211.2L300.9,211.2z M319.8,211.2c0,0.2,0.1,0.3,0.2,0.3c0,0,0,0,0.1,0h1.8
	c0.2,0,0.3-0.1,0.3-0.2c0,0,0,0,0-0.1v-14.6h0.1l8.8,14.6c0.1,0.2,0.3,0.3,0.5,0.3h1.8c0.2,0,0.3-0.1,0.3-0.2c0,0,0,0,0-0.1v-18.9
	c0-0.2-0.1-0.3-0.2-0.3c0,0,0,0-0.1,0h-1.8c-0.2,0-0.3,0.1-0.3,0.2c0,0,0,0,0,0.1v14.6h-0.1l-8.8-14.6c-0.1-0.2-0.3-0.3-0.5-0.3
	h-1.8c-0.2,0-0.3,0.1-0.3,0.2c0,0,0,0,0,0.1V211.2L319.8,211.2z M347.4,211.8c4.7,0,7.1-2.5,7.1-5.9c0-3.2-1.9-4.9-5.7-5.5l-1-0.1
	c-3-0.4-4.1-1.5-4.1-3.2c0-1.9,1.3-3.2,3.7-3.2c1.7,0,3.3,0.5,4.7,1.5c0.1,0.1,0.3,0.1,0.4-0.1l0,0l1-1.6c0.1-0.1,0.1-0.3,0-0.3
	c0,0-0.1,0-0.1-0.1c-1.7-1.2-3.8-1.8-5.9-1.8c-3.8,0-6.4,2.2-6.4,5.7c0,3.1,2,4.9,5.7,5.4l1,0.1c3.2,0.4,4.1,1.5,4.1,3.2
	c0,2-1.6,3.3-4.3,3.3c-2-0.1-3.9-0.7-5.5-2c-0.1-0.1-0.3-0.1-0.3,0c0,0,0,0-0.1,0.1l-1.3,1.5c-0.1,0.1-0.1,0.3,0,0.5
	C342.4,210.9,344.9,211.8,347.4,211.8L347.4,211.8z M367.8,211.8c3.3,0,5.6-1.5,6.7-4.6c0.4-1.1,0.5-2.3,0.5-5.5
	c0-3.2-0.1-4.4-0.5-5.5c-1-3-3.3-4.6-6.7-4.6c-3.3,0-5.6,1.5-6.7,4.6c-0.4,1.1-0.5,2.3-0.5,5.5c0,3.2,0.1,4.4,0.5,5.5
	C362.1,210.3,364.5,211.8,367.8,211.8L367.8,211.8z M367.8,209.5c-2.2,0-3.6-1-4.1-2.9c-0.2-0.7-0.5-2-0.5-4.8
	c0-2.8,0.2-4.1,0.5-4.8c0.6-1.9,2-2.9,4.1-2.9c2.2,0,3.6,1,4.1,2.9c0.2,0.7,0.5,2,0.5,4.8c0,2.8-0.2,4.1-0.5,4.8
	C371.3,208.4,369.9,209.5,367.8,209.5L367.8,209.5z M395.5,211.5c0.1,0,0.2-0.1,0.2-0.2c0-0.1,0-0.1-0.1-0.2l-4.1-8.3
	c2.4-0.7,4-2.9,3.8-5.3c0-3.4-2.5-5.6-6.1-5.6h-7.1c-0.2,0-0.3,0.1-0.3,0.2c0,0,0,0,0,0.1v18.9c0,0.2,0.1,0.3,0.2,0.3c0,0,0,0,0.1,0
	h2c0.2,0,0.3-0.1,0.3-0.2c0,0,0,0,0-0.1v-7.8c0-0.1,0.1-0.2,0.1-0.2h0.1h4.3l3.9,8c0.1,0.2,0.2,0.3,0.4,0.3L395.5,211.5L395.5,211.5
	z M389.2,200.8h-4.5c-0.1,0-0.2-0.1-0.2-0.1v-0.1v-6.1c0-0.1,0.1-0.2,0.1-0.2h0.1h4.5c2.2,0,3.6,1.2,3.6,3.3
	S391.4,200.8,389.2,200.8L389.2,200.8z M408,211.5c0.2,0,0.3-0.1,0.3-0.2c0,0,0,0,0-0.1v-7.7l5.8-11.2c0.1-0.1,0-0.2-0.1-0.3
	c-0.1,0-0.1-0.1-0.2,0h-2c-0.2,0-0.3,0.1-0.4,0.3l-4.4,8.4h0.1l-4.4-8.4c-0.1-0.2-0.2-0.3-0.5-0.3h-2.1c-0.1,0-0.2,0.1-0.2,0.2
	c0,0.1,0,0.1,0,0.1l5.8,11.2v7.7c0,0.2,0.1,0.3,0.2,0.3c0,0,0,0,0.1,0H408L408,211.5z M425.4,211.2c-0.1,0.1,0,0.2,0.1,0.3
	c0.1,0,0.1,0,0.1,0h2c0.2,0,0.3-0.1,0.4-0.3l1.5-4.2h7.9l1.5,4.2c0.1,0.2,0.2,0.3,0.4,0.3h2c0.1,0,0.2-0.1,0.2-0.2
	c0-0.1,0-0.1,0-0.1l-6.7-18.9c-0.1-0.2-0.2-0.3-0.4-0.3h-1.8c-0.2,0-0.3,0.1-0.3,0.3L425.4,211.2z M430.3,204.6l3.1-8.9h0.1l3,8.9
	H430.3z M447.4,211.2c0,0.2,0.1,0.3,0.2,0.3c0,0,0,0,0.1,0h11.7c0.2,0,0.3-0.1,0.3-0.2c0,0,0,0,0-0.1v-1.8c0-0.2-0.1-0.3-0.2-0.3
	c0,0,0,0-0.1,0h-9.3c-0.1,0-0.2-0.1-0.2-0.1v-0.1v-6c0-0.1,0.1-0.2,0.1-0.2h0.1h7.9c0.2,0,0.3-0.1,0.3-0.2c0,0,0,0,0-0.1v-1.8
	c0-0.2-0.1-0.3-0.2-0.3c0,0,0,0-0.1,0h-7.9c-0.1,0-0.2-0.1-0.2-0.1v-0.1v-5.7c0-0.1,0.1-0.2,0.1-0.2h0.1h9.3c0.2,0,0.3-0.1,0.3-0.2
	c0,0,0,0,0-0.1v-1.8c0-0.2-0.1-0.3-0.2-0.3c0,0,0,0-0.1,0h-11.7c-0.2,0-0.3,0.1-0.3,0.2c0,0,0,0,0,0.1L447.4,211.2L447.4,211.2z
	 M472.3,211.8c4.7,0,7.1-2.5,7.1-5.9c0-3.2-1.9-4.9-5.7-5.5l-1-0.1c-3-0.4-4.1-1.5-4.1-3.2c0-1.9,1.3-3.2,3.7-3.2
	c1.7,0,3.3,0.5,4.7,1.5c0.1,0.1,0.3,0.1,0.4-0.1l0,0l1-1.6c0.1-0.1,0.1-0.3,0-0.3c0,0-0.1,0-0.1-0.1c-1.7-1.2-3.8-1.8-5.9-1.8
	c-3.8,0-6.4,2.2-6.4,5.7c0,3.1,2,4.9,5.7,5.4l1,0.1c3.1,0.4,4.1,1.5,4.1,3.2c0,2-1.6,3.3-4.3,3.3c-2-0.1-3.9-0.7-5.5-2
	c-0.1-0.1-0.3-0.1-0.3,0c0,0,0,0-0.1,0.1l-1.3,1.5c-0.1,0.1-0.1,0.3,0.1,0.5C467.4,210.9,469.9,211.8,472.3,211.8L472.3,211.8z
	 M492.2,211.5c0.2,0,0.3-0.1,0.3-0.2c0,0,0,0,0-0.1v-16.7c0-0.1,0.1-0.2,0.1-0.2h0.1h5.3c0.2,0,0.3-0.1,0.3-0.2c0,0,0,0,0-0.1v-1.8
	c0-0.2-0.1-0.3-0.2-0.3c0,0,0,0-0.1,0h-13.5c-0.2,0-0.3,0.1-0.3,0.2c0,0,0,0,0,0.1v1.8c0,0.2,0.1,0.3,0.2,0.3c0,0,0,0,0.1,0h5.3
	c0.1,0,0.2,0.1,0.2,0.1v0.1v16.7c0,0.2,0.1,0.3,0.2,0.3c0,0,0,0,0.1,0H492.2L492.2,211.5z M504.2,211.2c0,0.2,0.1,0.3,0.2,0.3
	c0,0,0,0,0.1,0h2c0.2,0,0.3-0.1,0.3-0.2c0,0,0,0,0-0.1V203c0-0.1,0.1-0.2,0.1-0.2h0.1h8.5c0.1,0,0.2,0.1,0.2,0.1v0.1v8.2
	c0,0.2,0.1,0.3,0.2,0.3c0,0,0,0,0.1,0h2c0.2,0,0.3-0.1,0.3-0.2c0,0,0,0,0-0.1v-18.9c0-0.2-0.1-0.3-0.2-0.3c0,0,0,0-0.1,0h-2
	c-0.2,0-0.3,0.1-0.3,0.2c0,0,0,0,0,0.1v8c0,0.1-0.1,0.2-0.1,0.2h-0.1H507c-0.1,0-0.2-0.1-0.2-0.1v-0.1v-8c0-0.2-0.1-0.3-0.2-0.3
	c0,0,0,0-0.1,0h-2c-0.2,0-0.3,0.1-0.3,0.2c0,0,0,0,0,0.1L504.2,211.2L504.2,211.2z M525.8,211.2c0,0.2,0.1,0.3,0.2,0.3
	c0,0,0,0,0.1,0h11.7c0.2,0,0.3-0.1,0.3-0.2c0,0,0,0,0-0.1v-1.8c0-0.2-0.1-0.3-0.2-0.3c0,0,0,0-0.1,0h-9.3c-0.1,0-0.2-0.1-0.2-0.1
	v-0.1v-6c0-0.1,0.1-0.2,0.1-0.2h0.1h7.9c0.2,0,0.3-0.1,0.3-0.2c0,0,0,0,0-0.1v-1.8c0-0.2-0.1-0.3-0.2-0.3c0,0,0,0-0.1,0h-7.9
	c-0.1,0-0.2-0.1-0.2-0.1v-0.1v-5.7c0-0.1,0.1-0.2,0.1-0.2h0.1h9.3c0.2,0,0.3-0.1,0.3-0.2c0,0,0,0,0-0.1v-1.8c0-0.2-0.1-0.3-0.2-0.3
	c0,0,0,0-0.1,0h-11.7c-0.2,0-0.3,0.1-0.3,0.2c0,0,0,0,0,0.1L525.8,211.2L525.8,211.2z M551.1,211.5c0.2,0,0.3-0.1,0.3-0.2
	c0,0,0,0,0-0.1v-16.7c0-0.1,0.1-0.2,0.1-0.2h0.1h5.3c0.2,0,0.3-0.1,0.3-0.2c0,0,0,0,0-0.1v-1.8c0-0.2-0.1-0.3-0.2-0.3c0,0,0,0-0.1,0
	h-13.6c-0.2,0-0.3,0.1-0.3,0.2c0,0,0,0,0,0.1v1.8c0,0.2,0.1,0.3,0.2,0.3c0,0,0,0,0.1,0h5.3c0.1,0,0.2,0.1,0.2,0.1v0.1v16.7
	c0,0.2,0.1,0.3,0.2,0.3c0,0,0,0,0.1,0H551.1L551.1,211.5z M563,211.2c0,0.2,0.1,0.3,0.2,0.3c0,0,0,0,0.1,0h2c0.2,0,0.3-0.1,0.3-0.2
	c0,0,0,0,0-0.1v-18.9c0-0.2-0.1-0.3-0.2-0.3c0,0,0,0-0.1,0h-2c-0.2,0-0.3,0.1-0.3,0.2c0,0,0,0,0,0.1V211.2z M573.1,207.2
	c1,3.1,3.3,4.6,6.5,4.6c2.7,0.1,5.2-1.4,6.3-4c0.1-0.1,0-0.3-0.1-0.4l-1.7-0.8c-0.1-0.1-0.3,0-0.4,0.1l0,0c-0.7,1.5-2,2.6-4,2.6
	c-1.8,0.1-3.6-1.1-4-2.9c-0.2-0.8-0.4-1.8-0.4-4.8s0.1-4,0.4-4.8c0.5-1.8,2.2-3,4-2.9c2.1,0,3.3,1.1,4,2.6c0.1,0.2,0.2,0.2,0.4,0.2
	l0,0l1.7-0.9c0.1-0.1,0.2-0.2,0.1-0.4c-1.1-2.5-3.6-4-6.3-4c-3.2,0-5.5,1.5-6.5,4.6c-0.4,1.1-0.5,2.2-0.5,5.5
	C572.6,205,572.7,206.1,573.1,207.2L573.1,207.2z M600.2,211.2c0,0.2,0.1,0.3,0.2,0.3c0,0,0,0,0.1,0h11.8c0.2,0,0.3-0.1,0.3-0.2
	c0,0,0,0,0-0.1v-1.8c0-0.2-0.1-0.3-0.2-0.3c0,0,0,0-0.1,0H603c-0.1,0-0.2-0.1-0.2-0.1v-0.1v-6c0-0.1,0.1-0.2,0.1-0.2h0.1h7.9
	c0.2,0,0.3-0.1,0.3-0.2c0,0,0,0,0-0.1v-1.8c0-0.2-0.1-0.3-0.2-0.3c0,0,0,0-0.1,0H603c-0.1,0-0.2-0.1-0.2-0.1v-0.1v-5.7
	c0-0.1,0.1-0.2,0.1-0.2h0.1h9.3c0.2,0,0.3-0.1,0.3-0.2c0,0,0,0,0-0.1v-1.8c0-0.2-0.1-0.3-0.2-0.3c0,0,0,0-0.1,0h-11.7
	c-0.2,0-0.3,0.1-0.3,0.2c0,0,0,0,0,0.1L600.2,211.2L600.2,211.2z M632,211.5c0.2,0,0.2-0.2,0.2-0.3l-5.9-9.8l5.4-9
	c0.1-0.2,0.1-0.3-0.2-0.3h-2.2c-0.2,0-0.3,0.1-0.4,0.3l-4,6.6h-0.1l-4-6.6c-0.1-0.2-0.2-0.3-0.5-0.3h-2.2c-0.1,0-0.2,0.1-0.2,0.2
	c0,0.1,0,0.1,0.1,0.1l5.3,9l-5.9,9.8c-0.1,0.1-0.1,0.2,0,0.3s0.1,0.1,0.2,0.1h2.2c0.2,0,0.3-0.1,0.5-0.3l4.5-7.5h0.1l4.5,7.5
	c0.1,0.2,0.2,0.3,0.4,0.3h2.2L632,211.5L632,211.5z M640.3,211.5c0.2,0,0.3-0.1,0.3-0.2c0,0,0,0,0-0.1v-7.4c0-0.1,0.1-0.2,0.1-0.2
	h0.1h4.5c3.8,0,6.2-2.3,6.2-5.9c0-3.6-2.4-5.9-6.2-5.9h-6.9c-0.2,0-0.3,0.1-0.3,0.2c0,0,0,0,0,0.1V211c0,0.2,0.1,0.3,0.2,0.3
	c0,0,0,0,0.1,0L640.3,211.5L640.3,211.5z M645.1,201.3h-4.4c-0.1,0-0.2-0.1-0.2-0.1v-0.1v-6.5c0-0.1,0.1-0.2,0.1-0.2h0.1h4.4
	c2.4,0,3.8,1.3,3.8,3.4C649,199.9,647.6,201.3,645.1,201.3L645.1,201.3z M657.9,211.2c0,0.2,0.1,0.3,0.2,0.3c0,0,0,0,0.1,0h11.7
	c0.2,0,0.3-0.1,0.3-0.2c0,0,0,0,0-0.1v-1.8c0-0.2-0.1-0.3-0.2-0.3c0,0,0,0-0.1,0h-9.3c-0.1,0-0.2-0.1-0.2-0.1v-0.1v-6
	c0-0.1,0.1-0.2,0.1-0.2h0.1h7.9c0.2,0,0.3-0.1,0.3-0.2c0,0,0,0,0-0.1v-1.8c0-0.2-0.1-0.3-0.2-0.3c0,0,0,0-0.1,0h-7.9
	c-0.1,0-0.2-0.1-0.2-0.1v-0.1v-5.7c0-0.1,0.1-0.2,0.1-0.2h0.1h9.3c0.2,0,0.3-0.1,0.3-0.2c0,0,0,0,0-0.1v-1.8c0-0.2-0.1-0.3-0.2-0.3
	c0,0,0,0-0.1,0h-11.7c-0.2,0-0.3,0.1-0.3,0.2c0,0,0,0,0,0.1L657.9,211.2L657.9,211.2z M690.5,211.5c0.1,0,0.2-0.1,0.2-0.2
	c0-0.1,0-0.1-0.1-0.2l-4.1-8.3c2.4-0.7,4-2.9,3.8-5.3c0-3.4-2.5-5.6-6.1-5.6h-7.1c-0.2,0-0.3,0.1-0.3,0.2c0,0,0,0,0,0.1v18.9
	c0,0.2,0.1,0.3,0.2,0.3c0,0,0,0,0.1,0h2c0.2,0,0.3-0.1,0.3-0.2c0,0,0,0,0-0.1v-7.8c0-0.1,0.1-0.2,0.1-0.2h0.1h4.3l3.9,8
	c0.1,0.2,0.2,0.3,0.3,0.3L690.5,211.5L690.5,211.5z M684.2,200.8h-4.5c-0.1,0-0.2-0.1-0.2-0.1v-0.1v-6.1c0-0.1,0.1-0.2,0.1-0.2h0.1
	h4.5c2.2,0,3.6,1.2,3.6,3.3S686.5,200.8,684.2,200.8L684.2,200.8z M697.5,211.2c0,0.2,0.1,0.3,0.2,0.3c0,0,0,0,0.1,0h2
	c0.2,0,0.3-0.1,0.3-0.2c0,0,0,0,0-0.1v-18.9c0-0.2-0.1-0.3-0.2-0.3c0,0,0,0-0.1,0h-2c-0.2,0-0.3,0.1-0.3,0.2c0,0,0,0,0,0.1V211.2z
	 M707.7,211.2c0,0.2,0.1,0.3,0.2,0.3c0,0,0,0,0.1,0h11.7c0.2,0,0.3-0.1,0.3-0.2c0,0,0,0,0-0.1v-1.8c0-0.2-0.1-0.3-0.2-0.3
	c0,0,0,0-0.1,0h-9.3c-0.1,0-0.2-0.1-0.2-0.1v-0.1v-6c0-0.1,0.1-0.2,0.1-0.2h0.1h7.9c0.2,0,0.3-0.1,0.3-0.2c0,0,0,0,0-0.1v-1.8
	c0-0.2-0.1-0.3-0.2-0.3c0,0,0,0-0.1,0h-7.9c-0.1,0-0.2-0.1-0.2-0.1v-0.1v-5.7c0-0.1,0.1-0.2,0.1-0.2h0.1h9.3c0.2,0,0.3-0.1,0.3-0.2
	c0,0,0,0,0-0.1v-1.8c0-0.2-0.1-0.3-0.2-0.3c0,0,0,0-0.1,0H708c-0.2,0-0.3,0.1-0.3,0.2c0,0,0,0,0,0.1V211.2L707.7,211.2z
	 M726.7,211.2c0,0.2,0.1,0.3,0.2,0.3c0,0,0,0,0.1,0h1.8c0.2,0,0.3-0.1,0.3-0.2c0,0,0,0,0-0.1v-14.6h0.1l8.8,14.6
	c0.1,0.2,0.3,0.3,0.5,0.3h1.8c0.2,0,0.3-0.1,0.3-0.2c0,0,0,0,0-0.1v-18.9c0-0.2-0.1-0.3-0.2-0.3c0,0,0,0-0.1,0h-1.8
	c-0.2,0-0.3,0.1-0.3,0.2c0,0,0,0,0,0.1v14.6h-0.1l-8.8-14.6c-0.1-0.2-0.3-0.3-0.5-0.3H727c-0.2,0-0.3,0.1-0.3,0.2c0,0,0,0,0,0.1
	V211.2L726.7,211.2z M748.2,207.2c1,3.1,3.3,4.6,6.5,4.6c2.7,0.1,5.2-1.4,6.3-4c0.1-0.1,0-0.3-0.1-0.4l-1.7-0.8
	c-0.1-0.1-0.3,0-0.4,0.1l0,0c-0.7,1.5-2,2.6-4,2.6c-1.8,0.1-3.6-1.1-4.1-2.9c-0.2-0.8-0.4-1.8-0.4-4.8s0.1-4,0.4-4.8
	c0.5-1.8,2.2-3,4.1-2.9c2.1,0,3.3,1.1,4,2.6c0.1,0.2,0.2,0.2,0.4,0.2l0,0l1.7-0.9c0.1-0.1,0.2-0.2,0.1-0.4c-1.1-2.5-3.6-4-6.3-4
	c-3.2,0-5.5,1.5-6.5,4.6c-0.4,1.1-0.5,2.2-0.5,5.5C747.7,205,747.8,206.1,748.2,207.2L748.2,207.2z M767.5,211.2
	c0,0.2,0.1,0.3,0.2,0.3c0,0,0,0,0.1,0h11.7c0.2,0,0.3-0.1,0.3-0.2c0,0,0,0,0-0.1v-1.8c0-0.2-0.1-0.3-0.2-0.3c0,0,0,0-0.1,0h-9.3
	c-0.1,0-0.2-0.1-0.2-0.1v-0.1v-6c0-0.1,0.1-0.2,0.1-0.2h0.1h7.9c0.2,0,0.3-0.1,0.3-0.2c0,0,0,0,0-0.1v-1.8c0-0.2-0.1-0.3-0.2-0.3
	c0,0,0,0-0.1,0h-7.9c-0.1,0-0.2-0.1-0.2-0.1v-0.1v-5.7c0-0.1,0.1-0.2,0.1-0.2h0.1h9.3c0.2,0,0.3-0.1,0.3-0.2c0,0,0,0,0-0.1v-1.8
	c0-0.2-0.1-0.3-0.2-0.3c0,0,0,0-0.1,0h-11.7c-0.2,0-0.3,0.1-0.3,0.2c0,0,0,0,0,0.1L767.5,211.2L767.5,211.2z M796.4,194.7
	c0.2,0,0.3-0.1,0.3-0.2c0,0,0,0,0-0.1v-2.1c0-0.2-0.1-0.3-0.2-0.3c0,0,0,0-0.1,0h-2c-0.2,0-0.3,0.1-0.3,0.2c0,0,0,0,0,0.1v2.1
	c0,0.2,0.1,0.3,0.2,0.3c0,0,0,0,0.1,0H796.4z M796.3,211.5c0.2,0,0.3-0.1,0.3-0.2c0,0,0,0,0-0.1V198c0-0.2-0.1-0.3-0.2-0.3
	c0,0,0,0-0.1,0h-1.8c-0.2,0-0.3,0.1-0.3,0.2c0,0,0,0,0,0.1v13.2c0,0.2,0.1,0.3,0.2,0.3c0,0,0,0,0.1,0H796.3L796.3,211.5z M815,211.5
	c0.2,0,0.3-0.1,0.3-0.2c0,0,0,0,0-0.1v-8.6c0-3.2-1.8-5.2-4.8-5.2c-1.8,0-3.2,0.8-3.8,1.8h-0.1V198c0-0.2-0.1-0.3-0.2-0.3
	c0,0,0,0-0.1,0h-1.8c-0.2,0-0.3,0.1-0.3,0.2c0,0,0,0,0,0.1v13.2c0,0.2,0.1,0.3,0.2,0.3c0,0,0,0,0.1,0h1.8c0.2,0,0.3-0.1,0.3-0.2
	c0,0,0,0,0-0.1V203c0-2.1,1.3-3.4,3.2-3.4c2.1,0,3,1.3,3,3.5v8c0,0.2,0.1,0.3,0.2,0.3c0,0,0,0,0.1,0L815,211.5L815,211.5z
	 M836.4,211.5c0.2,0,0.3-0.1,0.3-0.3l6.3-18.9c0.1-0.2-0.1-0.3-0.2-0.3h-2c-0.2,0-0.3,0.1-0.4,0.3l-4.8,15.1h-0.1l-5-15.1
	c-0.1-0.2-0.2-0.3-0.4-0.3h-2c-0.2,0-0.3,0.1-0.2,0.3l6.3,18.9c0.1,0.2,0.2,0.3,0.3,0.3H836.4z M862.5,211.5c0.1,0,0.2-0.1,0.2-0.2
	c0-0.1,0-0.1-0.1-0.2l-4.1-8.3c2.4-0.7,4-2.9,3.8-5.3c0-3.4-2.5-5.6-6.1-5.6h-7.1c-0.2,0-0.3,0.1-0.3,0.2c0,0,0,0,0,0.1v18.9
	c0,0.2,0.1,0.3,0.2,0.3c0,0,0,0,0.1,0h2c0.2,0,0.3-0.1,0.3-0.2c0,0,0,0,0-0.1v-7.8c0-0.1,0.1-0.2,0.1-0.2h0.1h4.3l3.9,8
	c0.1,0.2,0.2,0.3,0.4,0.3L862.5,211.5L862.5,211.5z M856.2,200.8h-4.5c-0.1,0-0.2-0.1-0.2-0.1v-0.1v-6.1c0-0.1,0.1-0.2,0.1-0.2h0.1
	h4.5c2.2,0,3.6,1.2,3.6,3.3S858.5,200.8,856.2,200.8L856.2,200.8z"/>
<path class="st0" d="M369.8,240.8c-0.5-1.7-1.9-2.6-3.8-2.6c-1.7,0-2.6,0.6-3.1,1.5V234c0-0.1-0.1-0.2-0.2-0.2h-1.5
	c-0.1,0-0.2,0.1-0.2,0.2v15.1c0,0.1,0.1,0.2,0.2,0.2h1.5c0.1,0,0.2-0.1,0.2-0.2v-1c0.5,0.9,1.5,1.5,3.1,1.5c1.9,0,3.2-0.9,3.8-2.6
	C370.3,244.9,370.3,242.8,369.8,240.8z M368.2,246.1c-0.5,1-1.4,1.7-2.5,1.7c-1.1,0.1-2.1-0.6-2.4-1.7c-0.2-0.7-0.3-1.5-0.2-2.3
	c-0.1-0.7,0.1-1.5,0.2-2.3c0.5-1.3,2-2,3.4-1.5c0.7,0.3,1.2,0.8,1.5,1.5c0.2,0.7,0.3,1.5,0.2,2.3
	C368.5,244.5,368.3,245.3,368.2,246.1z"/>
<path class="st0" d="M374.9,253.5c1.7,0,2.5-0.7,3.4-3.3l4.4-11.6c0.1-0.1,0-0.2-0.1-0.2h-0.1H381c-0.1,0-0.2,0.1-0.3,0.2l-2.8,7.9
	h-0.1l-2.9-7.9c0-0.1-0.1-0.2-0.3-0.2H373c-0.1,0-0.2,0.1-0.2,0.1v0.1l4,10.4l-0.3,1c-0.5,1.3-1,1.7-1.8,1.7h-0.4
	c-0.1,0-0.2,0.1-0.2,0.2l0,0v1.3c0,0.1,0.1,0.2,0.2,0.2l0,0L374.9,253.5L374.9,253.5z"/>
<path class="st0" d="M457.8,247.1v4.5c0,0.1,0.1,0.2,0.2,0.2l0,0c0.1,0,0.2-0.1,0.3-0.2l1.4-1.9c0.1-0.2,0.2-0.3,0.1-0.5v-2.1
	c0-0.1-0.1-0.2-0.2-0.2l0,0H458C457.9,246.9,457.8,247,457.8,247.1L457.8,247.1L457.8,247.1z"/>
<path class="st0" d="M470.9,249.3c0.1,0,0.2-0.1,0.2-0.2l0,0V240c0-0.1,0.1-0.1,0.1-0.1s0,0,0.1,0h2.1c0.1,0,0.2-0.1,0.2-0.2l0,0
	v-1.1c0-0.1-0.1-0.2-0.2-0.2l0,0h-2.1c-0.1,0-0.1-0.1-0.1-0.1s0,0,0-0.1v-1c0-1.4,0.3-1.7,1.7-1.7h0.6c0.1,0,0.2-0.1,0.2-0.2l0,0
	V234c0-0.1-0.1-0.2-0.2-0.2l0,0h-0.9c-2.3,0-3.3,0.9-3.3,3.6v0.9c0,0.1-0.1,0.1-0.1,0.1s0,0-0.1,0h-0.9c-0.1,0-0.2,0.1-0.2,0.2l0,0
	v1.1c0,0.1,0.1,0.2,0.2,0.2l0,0h0.9c0.1,0,0.1,0.1,0.1,0.1s0,0,0,0.1v9.1c0,0.1,0.1,0.2,0.2,0.2l0,0L470.9,249.3L470.9,249.3z"/>
<path class="st0" d="M485.4,240.8c-0.6-1.8-2.4-3.1-4.3-3c-2.1,0-3.7,1-4.3,3c-0.3,0.9-0.4,1.8-0.3,2.8c-0.1,0.9,0.1,1.9,0.3,2.8
	c0.5,2.1,2.1,3.2,4.4,3.2c1.7,0.1,3.2-0.6,4.3-1.9c0.1-0.1,0.1-0.2,0-0.3c0,0,0,0-0.1-0.1l-0.9-0.9c-0.1-0.1-0.2-0.1-0.3,0
	c-0.7,0.8-1.7,1.3-2.8,1.2c-1.3,0.1-2.4-0.7-2.8-1.9c-0.1-0.5-0.2-0.9-0.2-1.3c0-0.1,0.1-0.1,0.1-0.1s0,0,0.1,0h6.9
	c0.1,0,0.2-0.1,0.2-0.2c0,0,0,0,0-0.1C485.8,243,485.6,241.9,485.4,240.8z M483.7,242.7L483.7,242.7l-5.2,0.1
	c-0.1,0-0.1-0.1-0.1-0.1s0,0,0-0.1c0-0.4,0.1-0.9,0.2-1.3c0.6-1.4,2.1-2.1,3.5-1.5c0.7,0.3,1.3,0.8,1.5,1.5c0.1,0.4,0.2,0.8,0.2,1.3
	C483.8,242.7,483.7,242.7,483.7,242.7z"/>
<path class="st0" d="M493.6,238.1c-1.3-0.1-2.6,0.3-3.7,1.1c-0.1,0.1-0.1,0.2-0.1,0.3l0.6,1c0.1,0.1,0.2,0.1,0.3,0.1
	c0,0,0,0,0.1-0.1c0.8-0.6,1.7-0.8,2.6-0.8c2.1,0,2.6,0.6,2.6,2.2v0.8c0,0.1-0.1,0.1-0.1,0.1s0,0-0.1,0h-2.5c-2.7,0-4.3,1.1-4.3,3.4
	c0,2.2,1.6,3.3,3.7,3.3c1.7,0,2.8-0.6,3.3-1.4v1c0,0.1,0.1,0.2,0.2,0.2h1.5c0.1,0,0.2-0.1,0.2-0.2v-7.3
	C497.9,239.1,496.7,238.1,493.6,238.1z M496.1,244.6v1.2c0,1.3-1.1,2.1-2.8,2.1c-1.5,0-2.3-0.6-2.3-1.7c0-1.3,0.8-1.8,2.8-1.8h2.2
	C496.1,244.4,496.1,244.5,496.1,244.6C496.1,244.5,496.1,244.5,496.1,244.6z"/>
<path class="st0" d="M506.6,249.4c0.1,0,0.2-0.1,0.2-0.2l0,0v-1.3c0-0.1-0.1-0.2-0.2-0.2l0,0h-0.5c-1,0-1.4-0.3-1.4-1.4v-6.2
	c0-0.1,0.1-0.1,0.1-0.1s0,0,0.1,0h1.7c0.1,0,0.2-0.1,0.2-0.2l0,0v-1.1c0-0.1-0.1-0.2-0.2-0.2l0,0h-1.7c-0.1,0-0.1-0.1-0.1-0.1
	s0,0,0-0.1v-3.1c0-0.1-0.1-0.2-0.2-0.2l0,0h-1.5c-0.1,0-0.2,0.1-0.2,0.2l0,0v3.1c0,0.1-0.1,0.1-0.1,0.1s0,0-0.1,0h-0.9
	c-0.1,0-0.2,0.1-0.2,0.2l0,0v1.1c0,0.1,0.1,0.2,0.2,0.2l0,0h0.9c0.1,0,0.1,0.1,0.1,0.1s0,0,0,0.1v6.3c0,2.2,0.8,3.1,3,3.1
	L506.6,249.4L506.6,249.4z"/>
<path class="st0" d="M519.1,249.3c0.1,0,0.2-0.1,0.2-0.2l0,0v-10.6c0-0.1-0.1-0.2-0.2-0.2l0,0h-1.5c-0.1,0-0.2,0.1-0.2,0.2l0,0v6.5
	c0,1.7-1,2.7-2.5,2.7c-1.6,0-2.4-1-2.4-2.8v-6.4c0-0.1-0.1-0.2-0.2-0.2l0,0h-1.5c-0.1,0-0.2,0.1-0.2,0.2l0,0v6.9
	c0,2.5,1.4,4.1,3.8,4.1c1.2,0.1,2.4-0.5,3-1.5l0,0v1c0,0.1,0.1,0.2,0.2,0.2l0,0h1.5L519.1,249.3L519.1,249.3z"/>
<path class="st0" d="M525.7,249.3c0.1,0,0.2-0.1,0.2-0.2l0,0v-6c0-1.9,0.7-3.2,2.4-3.2c0.6,0,1.2,0.2,1.7,0.5c0.1,0.1,0.2,0.1,0.3,0
	c0,0,0,0,0-0.1l0.9-1.1c0.1-0.1,0.1-0.2,0-0.3c0,0,0,0-0.1,0c-0.6-0.5-1.4-0.9-2.2-0.8c-1.2-0.1-2.4,0.5-2.9,1.6l0,0v-1.1
	c0-0.1-0.1-0.2-0.2-0.2l0,0h-1.5c-0.1,0-0.2,0.1-0.2,0.2l0,0v10.6c0,0.1,0.1,0.2,0.2,0.2l0,0L525.7,249.3L525.7,249.3z"/>
<path class="st0" d="M536.1,235.8c0.1,0,0.2-0.1,0.2-0.2l0,0V234c0-0.1-0.1-0.2-0.2-0.2l0,0h-1.5c-0.1,0-0.2,0.1-0.2,0.2l0,0v1.7
	c0,0.1,0.1,0.2,0.2,0.2l0,0L536.1,235.8L536.1,235.8z"/>
<path class="st0" d="M536,249.3c0.1,0,0.2-0.1,0.2-0.2l0,0v-10.6c0-0.1-0.1-0.2-0.2-0.2l0,0h-1.5c-0.1,0-0.2,0.1-0.2,0.2l0,0v10.6
	c0,0.1,0.1,0.2,0.2,0.2l0,0H536z"/>
<path class="st0" d="M549.5,249.3c0.1,0,0.2-0.1,0.2-0.2l0,0v-6.9c0-2.5-1.4-4.1-3.8-4.1c-1.2-0.1-2.4,0.5-3.1,1.5l0,0v-1
	c0-0.1-0.1-0.2-0.2-0.2l0,0h-1.5c-0.1,0-0.2,0.1-0.2,0.2l0,0v10.6c0,0.1,0.1,0.2,0.2,0.2l0,0h1.5c0.1,0,0.2-0.1,0.2-0.2l0,0v-6.5
	c0-1.6,1-2.7,2.5-2.7c1.7,0,2.5,1,2.5,2.8v6.4c0,0.1,0.1,0.2,0.2,0.2l0,0h1.5L549.5,249.3L549.5,249.3z"/>
<path class="st0" d="M562.5,238.3H561c-0.1,0-0.2,0.1-0.2,0.2v1c-0.5-0.9-1.4-1.5-3-1.5c-1.7-0.1-3.3,1-3.7,2.6
	c-0.5,1.9-0.5,3.9,0,5.8c0.5,1.7,2,2.8,3.7,2.6c1.6,0,2.5-0.6,3-1.5v1.3c0,2-1,3-2.8,3c-1,0-1.9-0.4-2.6-1.1
	c-0.1-0.1-0.2-0.1-0.3-0.1c0,0-0.1,0-0.1,0.1l-0.9,0.9c-0.1,0.1-0.1,0.2-0.1,0.3c0,0,0,0,0.1,0.1c1,1.1,2.3,1.7,3.8,1.7
	c3.1,0,4.8-1.7,4.8-4.9v-10.3C562.7,238.4,562.6,238.3,562.5,238.3z M560.6,245.7c-0.4,1.1-1.4,1.8-2.4,1.7
	c-1.1,0.1-2.1-0.6-2.3-1.7c-0.2-0.7-0.3-1.4-0.3-2.1s0.1-1.4,0.3-2.1c0.5-1.3,1.9-2,3.2-1.5c0.7,0.2,1.2,0.8,1.5,1.5
	c0.2,0.7,0.3,1.4,0.2,2.1C560.9,244.3,560.7,245,560.6,245.7z"/>
<path class="st1" d="M578.2,249.3c0.1,0,0.2-0.1,0.2-0.2l0,0V234c0-0.1,0.1-0.1,0.1-0.1s0,0,0.1,0h4.8c0.1,0,0.2-0.1,0.2-0.2l0,0
	V232c0-0.1-0.1-0.2-0.2-0.2l0,0h-12.2c-0.1,0-0.2,0.1-0.2,0.2l0,0v1.6c0,0.1,0.1,0.2,0.2,0.2l0,0h4.8c0.1,0,0.1,0.1,0.1,0.1
	s0,0,0,0.1v15c0,0.1,0.1,0.2,0.2,0.2l0,0L578.2,249.3L578.2,249.3L578.2,249.3z"/>
<path class="st1" d="M588.4,234c0.1,0,0.2-0.1,0.2-0.2l0,0V232c0-0.1-0.1-0.2-0.2-0.2l0,0h-1.7c-0.1,0-0.2,0.1-0.2,0.2l0,0v1.9
	c0,0.1,0.1,0.2,0.2,0.2l0,0L588.4,234L588.4,234z"/>
<path class="st1" d="M588.3,249.3c0.1,0,0.2-0.1,0.2-0.2l0,0v-12c0-0.1-0.1-0.2-0.2-0.2l0,0h-1.7c-0.1,0-0.2,0.1-0.2,0.2l0,0v12
	c0,0.1,0.1,0.2,0.2,0.2l0,0H588.3z"/>
<path class="st1" d="M610.6,249.3c0.1,0,0.2-0.1,0.2-0.2l0,0v-7.8c0-2.8-1.6-4.6-4.4-4.6c-1.6-0.1-3.2,0.7-4.1,1.9l0,0
	c-1.4-2-4.1-2.5-6.1-1.2c-0.3,0.2-0.7,0.6-1,1l0,0v-1.1c0-0.1-0.1-0.2-0.2-0.2l0,0h-1.7c-0.1,0-0.2,0.1-0.2,0.2l0,0v12
	c0,0.1,0.1,0.2,0.2,0.2l0,0h1.7c0.1,0,0.2-0.1,0.2-0.2l0,0v-7.4c0-1.8,1.1-3.1,2.8-3.1c1.9,0,2.8,1.1,2.8,3.2v7.3
	c0,0.1,0.1,0.2,0.2,0.2l0,0h1.7c0.1,0,0.2-0.1,0.2-0.2l0,0v-7.4c-0.1-1.6,1-2.9,2.5-3.1c0.1,0,0.2,0,0.3,0c1.9,0,2.8,1.1,2.8,3.2
	v7.3c0,0.1,0.1,0.2,0.2,0.2l0,0h1.7v-0.2H610.6L610.6,249.3z"/>
<path class="st1" d="M619.9,249c0,0.1,0.1,0.2,0.2,0.2l0,0h1.8c0.1,0,0.2-0.1,0.2-0.2l0,0v-7.3c0-0.1,0.1-0.1,0.1-0.1s0,0,0.1,0h7.1
	c0.1,0,0.2-0.1,0.2-0.2l0,0v-1.6c0-0.1-0.1-0.2-0.2-0.2l0,0h-7.1c-0.1,0-0.1-0.1-0.1-0.1s0,0,0-0.1V234c0-0.1,0.1-0.1,0.1-0.1
	s0,0,0.1,0h8.4c0.1,0,0.2-0.1,0.2-0.2l0,0V232c0-0.1-0.1-0.2-0.2-0.2l0,0h-10.7c-0.1,0-0.2,0.1-0.2,0.2l0,0L619.9,249L619.9,249z"/>
<path class="st1" d="M637.5,236.6c-1.5-0.1-2.9,0.3-4.2,1.2c-0.1,0.1-0.1,0.2-0.1,0.3l0.7,1.1c0.1,0.1,0.2,0.1,0.3,0.1
	c0,0,0,0,0.1-0.1c0.9-0.7,1.9-0.9,2.9-0.9c2.4,0,2.9,0.7,2.9,2.5v0.9c0,0.1-0.1,0.1-0.1,0.1s0,0-0.1,0h-2.8c-3.1,0-4.9,1.2-4.9,3.9
	c0,2.5,1.8,3.7,4.2,3.7c1.9,0,3.2-0.7,3.7-1.6v1.1c0,0.1,0.1,0.2,0.2,0.2h1.7c0.1,0,0.2-0.1,0.2-0.2v-8.3
	C642.4,237.7,641,236.6,637.5,236.6z M640.3,243.9v1.4c-0.1,1.5-1.2,2.4-3.2,2.4c-1.7,0-2.6-0.7-2.6-1.9c0-1.5,0.9-2,3.2-2h2.5
	C640.3,243.8,640.3,243.9,640.3,243.9S640.3,243.8,640.3,243.9z"/>
<path class="st1" d="M648.5,234c0.1,0,0.2-0.1,0.2-0.2l0,0V232c0-0.1-0.1-0.2-0.2-0.2l0,0h-1.7c-0.1,0-0.2,0.1-0.2,0.2l0,0v1.9
	c0,0.1,0.1,0.2,0.2,0.2l0,0L648.5,234L648.5,234z"/>
<path class="st1" d="M648.5,249.3c0.1,0,0.2-0.1,0.2-0.2l0,0v-12c0-0.1-0.1-0.2-0.2-0.2l0,0h-1.7c-0.1,0-0.2,0.1-0.2,0.2l0,0v12
	c0,0.1,0.1,0.2,0.2,0.2l0,0H648.5z"/>
<path class="st1" d="M662.8,249.3c0.1,0,0.2-0.1,0.2-0.2l0,0v-7.8c0-2.8-1.6-4.6-4.3-4.6c-1.4-0.1-2.7,0.6-3.5,1.7l0,0v-1.1
	c0-0.1-0.1-0.2-0.2-0.2l0,0h-1.7c-0.1,0-0.2,0.1-0.2,0.2l0,0v12c0,0.1,0.1,0.2,0.2,0.2l0,0h1.7c0.1,0,0.2-0.1,0.2-0.2l0,0v-7.4
	c0-1.8,1.1-3.1,2.8-3.1c1.9,0,2.8,1.1,2.8,3.2v7.3c0,0.1,0.1,0.2,0.2,0.2l0,0h1.7L662.8,249.3L662.8,249.3L662.8,249.3z"/>
<path class="st1" d="M452.6,244.3c-1.1,2.5-3.6,4.2-6.4,4.2c-3.7,0-6.7-3.1-6.9-6.9h15.4v-0.3c0-4.9-3.8-8.9-8.5-8.9s-8.5,4-8.5,8.8
	c0,4.9,3.8,8.9,8.5,8.9c3.6-0.1,6.8-2.2,8.1-5.6l0.2-0.4h-1.8L452.6,244.3L452.6,244.3z M439.5,240c0.5-3.3,3.4-5.8,6.8-5.9
	c3.4,0.1,6.3,2.5,6.8,5.9H439.5z"/>
<path class="st1" d="M409.9,232.5L409.9,232.5c-2.5,0-4.6,1.3-5.7,3.4c-1.1-2.1-3.4-3.4-5.8-3.4h-0.1c-3.6,0-6.5,2.9-6.5,6.5v11.1
	h1.5V239c0.1-2.6,2.2-4.8,4.9-4.8h0.1c2.7,0,4.9,2.2,4.9,4.9v11h1.5v-11c0.1-2.7,2.2-4.9,4.9-4.9h0.1c2.6,0,4.9,2.1,4.9,4.8v11.1
	h1.5V239C416.3,235.4,413.5,232.5,409.9,232.5z"/>
<path class="st1" d="M434.1,236.1c-1.5-2.3-4.1-3.7-6.9-3.7c-4.7,0-8.5,4-8.5,8.9s3.8,8.9,8.5,8.9c2.8,0,5.3-1.4,6.9-3.7v3.6h1.5
	v-17.3h-1.5V236.1z M434.1,241.3c0,4-3.1,7.2-6.9,7.2s-6.9-3.2-6.9-7.2s3.1-7.2,6.9-7.2S434.1,237.3,434.1,241.3z"/>
<path id="L_I_G_H_T_copy" class="st1" d="M22.3,114.7h56.8v9.8H12V4h10.3V114.7z M235.8,4h10.3v120.5h-10.3V4z M503.4,71.5h-39.6
	v-9.8h49.9v42.2c-10.3,13.3-27.9,22.4-46.5,22.4c-36,0-62-26.3-62-62c0-34.8,25.6-62,60.4-62c17.2,0,33.2,6.9,43.7,18.4l-7.1,7.1
	c-8.4-9.3-21.7-15.7-36.7-15.7c-28.9,0-50.1,23.2-50.1,52.2c0,29.3,21.2,52.2,51.1,52.2c14.6,0,27.9-6,36.7-15.1L503.4,71.5
	L503.4,71.5z M765.9,68.6h-77.5v55.9h-10.3V4h10.3v54.8h77.5V4h10.3v120.5h-10.3V68.6z M1012,4v9.8h-34.4v110.7h-10.3V13.8h-34.4V4
	H1012z"/>
</svg>
