<?xml version="1.0" encoding="utf-8"?>
<!-- Generator: Adobe Illustrator 19.2.1, SVG Export Plug-In . SVG Version: 6.00 Build 0)  -->
<svg version="1.1" id="Layer_1" xmlns="http://www.w3.org/2000/svg" xmlns:xlink="http://www.w3.org/1999/xlink" x="0px" y="0px"
	 viewBox="0 0 1024 256" style="enable-background:new 0 0 1024 256;" xml:space="preserve">
<style type="text/css">
	.st0{fill:#FFFFFF;}
	.st1{opacity:0.6;fill:#FFFFFF;enable-background:new    ;}
</style>
<g>
	<path id="L_I_G_H_T_copy" class="st0" d="M22.3,114.8h56.8v9.8H12V4.1h10.3V114.8z M235.8,4.1h10.3v120.5h-10.3V4.1z M503.4,71.6
		h-39.6v-9.8h49.9V104c-10.3,13.3-27.9,22.4-46.5,22.4c-36,0-62-26.3-62-62c0-34.8,25.6-62,60.4-62c17.2,0,33.2,6.9,43.7,18.4
		l-7.1,7.1c-8.4-9.3-21.7-15.7-36.7-15.7c-28.9,0-50.1,23.2-50.1,52.2c0,29.3,21.2,52.2,51.1,52.2c14.6,0,27.9-6,36.7-15.1
		L503.4,71.6L503.4,71.6z M765.9,68.7h-77.5v55.9h-10.3V4.1h10.3v54.8h77.5V4.1h10.3v120.5h-10.3V68.7z M1012,4.1v9.8h-34.4v110.7
		h-10.3V13.9h-34.4V4.1H1012z"/>
	<g>
		<path id="A_MULTISENSORY_AESTHETIC_EXPERIENCE_in_VR_1_" class="st1" d="M161.3,211.1c-0.1,0.1,0,0.2,0.1,0.3c0.1,0,0.1,0,0.1,0h2
			c0.2,0,0.3-0.1,0.4-0.3l1.5-4.2h7.9l1.5,4.2c0.1,0.2,0.2,0.3,0.4,0.3h2c0.1,0,0.2-0.1,0.2-0.2c0-0.1,0-0.1,0-0.1l-6.7-18.9
			c-0.1-0.2-0.2-0.3-0.4-0.3h-1.9c-0.2,0-0.3,0.1-0.3,0.3L161.3,211.1z M166.2,204.5l3.1-8.9h0.1l3,8.9H166.2z M191.1,211.1
			c0,0.2,0.1,0.3,0.2,0.3c0,0,0,0,0.1,0h1.8c0.2,0,0.3-0.1,0.3-0.2c0,0,0,0,0-0.1v-13.6h0.1l4.8,10.7c0.1,0.2,0.3,0.4,0.5,0.3h1.1
			c0.2,0,0.5-0.1,0.5-0.3l4.8-10.7h0.1v13.6c0,0.2,0.1,0.3,0.2,0.3c0,0,0,0,0.1,0h1.8c0.2,0,0.3-0.1,0.3-0.2c0,0,0,0,0-0.1v-18.9
			c0-0.2-0.1-0.3-0.2-0.3c0,0,0,0-0.1,0h-1.8c-0.2,0-0.4,0.1-0.5,0.3l-5.7,13.1h-0.1l-5.9-13.1c-0.1-0.2-0.3-0.3-0.5-0.3h-1.9
			c-0.2,0-0.3,0.1-0.3,0.2c0,0,0,0,0,0.1L191.1,211.1L191.1,211.1z M222.4,211.7c4.2,0,6.9-2.5,6.9-7.1v-12.4c0-0.2-0.1-0.3-0.2-0.3
			c0,0,0,0-0.1,0h-2c-0.2,0-0.3,0.1-0.3,0.2c0,0,0,0,0,0.1v12.4c0,3.2-1.7,4.8-4.3,4.8s-4.4-1.6-4.4-4.8v-12.4
			c0-0.2-0.1-0.3-0.2-0.3c0,0,0,0-0.1,0h-2c-0.2,0-0.3,0.1-0.3,0.2c0,0,0,0,0,0.1v12.4C215.5,209.2,218.1,211.7,222.4,211.7
			L222.4,211.7z M236.8,211.1c0,0.2,0.1,0.3,0.2,0.3c0,0,0,0,0.1,0h11.7c0.2,0,0.3-0.1,0.3-0.2c0,0,0,0,0-0.1v-1.8
			c0-0.2-0.1-0.3-0.2-0.3c0,0,0,0-0.1,0h-9.3c-0.1,0-0.2-0.1-0.2-0.1v-0.1v-16.6c0-0.2-0.1-0.3-0.2-0.3c0,0,0,0-0.1,0h-2
			c-0.2,0-0.3,0.1-0.3,0.2c0,0,0,0,0,0.1L236.8,211.1L236.8,211.1z M258.8,211.4c0.2,0,0.3-0.1,0.3-0.2c0,0,0,0,0-0.1v-16.7
			c0-0.1,0.1-0.2,0.1-0.2h0.1h5.3c0.2,0,0.3-0.1,0.3-0.2c0,0,0,0,0-0.1v-1.8c0-0.2-0.1-0.3-0.2-0.3c0,0,0,0-0.1,0h-13.5
			c-0.2,0-0.3,0.1-0.3,0.2c0,0,0,0,0,0.1v1.8c0,0.2,0.1,0.3,0.2,0.3c0,0,0,0,0.1,0h5.3c0.1,0,0.2,0.1,0.2,0.1v0.1v16.7
			c0,0.2,0.1,0.3,0.2,0.3c0,0,0,0,0.1,0H258.8L258.8,211.4z M270.8,211.1c0,0.2,0.1,0.3,0.2,0.3c0,0,0,0,0.1,0h2
			c0.2,0,0.3-0.1,0.3-0.2c0,0,0,0,0-0.1v-18.9c0-0.2-0.1-0.3-0.2-0.3c0,0,0,0-0.1,0h-2c-0.2,0-0.3,0.1-0.3,0.2c0,0,0,0,0,0.1V211.1z
			 M286.9,211.7c4.7,0,7.1-2.5,7.1-5.9c0-3.2-1.9-4.9-5.7-5.5l-0.9-0.1c-3-0.4-4.1-1.5-4.1-3.2c0-1.9,1.3-3.2,3.7-3.2
			c1.7,0,3.3,0.5,4.7,1.5c0.1,0.1,0.3,0.1,0.4-0.1l0,0l1-1.6c0.1-0.1,0.1-0.3,0-0.3c0,0-0.1,0-0.1-0.1c-1.7-1.2-3.8-1.8-5.9-1.8
			c-3.8,0-6.4,2.2-6.4,5.7c0,3.1,2,4.9,5.7,5.4l1,0.1c3.1,0.4,4.1,1.5,4.1,3.2c0,2-1.6,3.3-4.3,3.3c-2-0.1-3.9-0.7-5.5-2
			c-0.1-0.1-0.3-0.1-0.3,0c0,0,0,0-0.1,0.1l-1.3,1.5c-0.1,0.1-0.1,0.3,0,0.5C282,210.8,284.5,211.7,286.9,211.7L286.9,211.7z
			 M300.9,211.1c0,0.2,0.1,0.3,0.2,0.3c0,0,0,0,0.1,0h11.7c0.2,0,0.3-0.1,0.3-0.2c0,0,0,0,0-0.1v-1.8c0-0.2-0.1-0.3-0.2-0.3
			c0,0,0,0-0.1,0h-9.3c-0.1,0-0.2-0.1-0.2-0.1v-0.1v-6c0-0.1,0.1-0.2,0.1-0.2h0.1h7.9c0.2,0,0.3-0.1,0.3-0.2c0,0,0,0,0-0.1v-1.8
			c0-0.2-0.1-0.3-0.2-0.3c0,0,0,0-0.1,0h-7.9c-0.1,0-0.2-0.1-0.2-0.1l0,0v-5.7c0-0.1,0.1-0.2,0.1-0.2h0.1h9.3c0.2,0,0.3-0.1,0.3-0.2
			c0,0,0,0,0-0.1v-1.8c0-0.2-0.1-0.3-0.2-0.3c0,0,0,0-0.1,0h-11.7c-0.2,0-0.3,0.1-0.3,0.2c0,0,0,0,0,0.1L300.9,211.1L300.9,211.1z
			 M319.9,211.1c0,0.2,0.1,0.3,0.2,0.3c0,0,0,0,0.1,0h1.8c0.2,0,0.3-0.1,0.3-0.2c0,0,0,0,0-0.1v-14.5h0.1l8.8,14.6
			c0.1,0.2,0.3,0.3,0.5,0.3h1.8c0.2,0,0.3-0.1,0.3-0.2c0,0,0,0,0-0.1v-19c0-0.2-0.1-0.3-0.2-0.3c0,0,0,0-0.1,0h-1.8
			c-0.2,0-0.3,0.1-0.3,0.2c0,0,0,0,0,0.1v14.6h-0.1l-8.8-14.6c-0.1-0.2-0.3-0.3-0.5-0.3h-1.8c-0.2,0-0.3,0.1-0.3,0.2c0,0,0,0,0,0.1
			V211.1L319.9,211.1z M347.4,211.7c4.7,0,7.1-2.5,7.1-5.9c0-3.2-1.9-4.9-5.7-5.5l-1-0.1c-3-0.4-4.1-1.5-4.1-3.2
			c0-1.9,1.3-3.2,3.7-3.2c1.7,0,3.3,0.5,4.7,1.5c0.1,0.1,0.3,0.1,0.4-0.1l0,0l1-1.6c0.1-0.1,0.1-0.3,0-0.3c0,0-0.1,0-0.1-0.1
			c-1.7-1.2-3.8-1.8-5.9-1.8c-3.8,0-6.4,2.2-6.4,5.7c0,3.1,2,4.9,5.7,5.4l1,0.1c3.2,0.4,4.1,1.5,4.1,3.2c0,2-1.6,3.3-4.3,3.3
			c-2-0.1-3.9-0.7-5.5-2c-0.1-0.1-0.3-0.1-0.3,0c0,0,0,0-0.1,0.1l-1.3,1.5c-0.1,0.1-0.1,0.3,0,0.5
			C342.5,210.8,344.9,211.7,347.4,211.7L347.4,211.7z M367.8,211.7c3.3,0,5.6-1.5,6.7-4.6c0.4-1.1,0.5-2.3,0.5-5.5
			c0-3.2-0.1-4.4-0.5-5.5c-1-3-3.3-4.6-6.7-4.6c-3.3,0-5.6,1.5-6.7,4.6c-0.4,1.1-0.5,2.3-0.5,5.5c0,3.2,0.1,4.4,0.5,5.5
			C362.2,210.1,364.5,211.7,367.8,211.7L367.8,211.7z M367.8,209.3c-2.2,0-3.6-1-4.1-2.9c-0.2-0.7-0.5-2-0.5-4.8s0.2-4.1,0.5-4.8
			c0.6-1.9,2-2.9,4.1-2.9s3.6,1,4.1,2.9c0.2,0.7,0.5,2,0.5,4.8s-0.2,4.1-0.5,4.8C371.3,208.3,370,209.3,367.8,209.3L367.8,209.3z
			 M395.5,211.4c0.1,0,0.2-0.1,0.2-0.2c0-0.1,0-0.1-0.1-0.2l-4.1-8.3c2.4-0.7,4-2.9,3.8-5.3c0-3.4-2.5-5.6-6.1-5.6h-7.1
			c-0.2,0-0.3,0.1-0.3,0.2c0,0,0,0,0,0.1v19c0,0.2,0.1,0.3,0.2,0.3c0,0,0,0,0.1,0h2c0.2,0,0.3-0.1,0.3-0.2c0,0,0,0,0-0.1v-7.8
			c0-0.1,0.1-0.2,0.1-0.2h0.1h4.3l3.9,8c0.1,0.2,0.2,0.3,0.4,0.3L395.5,211.4L395.5,211.4z M389.2,200.7h-4.5
			c-0.1,0-0.2-0.1-0.2-0.1v-0.1v-6.1c0-0.1,0.1-0.2,0.1-0.2h0.1h4.5c2.2,0,3.6,1.2,3.6,3.3S391.5,200.7,389.2,200.7L389.2,200.7z
			 M408.1,211.4c0.2,0,0.3-0.1,0.3-0.2c0,0,0,0,0-0.1v-7.7l5.8-11.2c0.1-0.1,0-0.2-0.1-0.3c-0.1,0-0.1-0.1-0.2,0h-2
			c-0.2,0-0.3,0.1-0.4,0.3l-4.4,8.4H407l-4.4-8.4c-0.1-0.2-0.2-0.3-0.5-0.3H400c-0.1,0-0.2,0.1-0.2,0.2s0,0.1,0,0.1l5.8,11.2v7.7
			c0,0.2,0.1,0.3,0.2,0.3c0,0,0,0,0.1,0H408.1L408.1,211.4z M425.4,211.1c-0.1,0.1,0,0.2,0.1,0.3c0.1,0,0.1,0,0.1,0h2
			c0.2,0,0.3-0.1,0.4-0.3l1.5-4.2h7.9l1.5,4.2c0.1,0.2,0.2,0.3,0.4,0.3h2c0.1,0,0.2-0.1,0.2-0.2c0-0.1,0-0.1,0-0.1l-6.7-18.9
			c-0.1-0.2-0.2-0.3-0.4-0.3h-1.8c-0.2,0-0.3,0.1-0.3,0.3L425.4,211.1z M430.4,204.5l3.1-8.9h0.1l3,8.9H430.4z M447.5,211.1
			c0,0.2,0.1,0.3,0.2,0.3c0,0,0,0,0.1,0h11.7c0.2,0,0.3-0.1,0.3-0.2c0,0,0,0,0-0.1v-1.8c0-0.2-0.1-0.3-0.2-0.3c0,0,0,0-0.1,0h-9.3
			c-0.1,0-0.2-0.1-0.2-0.1v-0.1v-6c0-0.1,0.1-0.2,0.1-0.2h0.1h7.9c0.2,0,0.3-0.1,0.3-0.2c0,0,0,0,0-0.1v-1.8c0-0.2-0.1-0.3-0.2-0.3
			c0,0,0,0-0.1,0h-7.9c-0.1,0-0.2-0.1-0.2-0.1l0,0v-5.7c0-0.1,0.1-0.2,0.1-0.2h0.1h9.3c0.2,0,0.3-0.1,0.3-0.2c0,0,0,0,0-0.1v-1.8
			c0-0.2-0.1-0.3-0.2-0.3c0,0,0,0-0.1,0h-11.7c-0.2,0-0.3,0.1-0.3,0.2c0,0,0,0,0,0.1L447.5,211.1L447.5,211.1z M472.4,211.7
			c4.7,0,7.1-2.5,7.1-5.9c0-3.2-1.9-4.9-5.7-5.5l-1-0.1c-3-0.4-4.1-1.5-4.1-3.2c0-1.9,1.3-3.2,3.7-3.2c1.7,0,3.3,0.5,4.7,1.5
			c0.1,0.1,0.3,0.1,0.4-0.1l0,0l1-1.6c0.1-0.1,0.1-0.3,0-0.3c0,0-0.1,0-0.1-0.1c-1.7-1.2-3.8-1.8-5.9-1.8c-3.8,0-6.4,2.2-6.4,5.7
			c0,3.1,2,4.9,5.7,5.4l1,0.1c3.1,0.4,4.1,1.5,4.1,3.2c0,2-1.6,3.3-4.3,3.3c-2-0.1-3.9-0.7-5.5-2c-0.1-0.1-0.3-0.1-0.3,0
			c0,0,0,0-0.1,0.1l-1.3,1.5c-0.1,0.1-0.1,0.3,0.1,0.5C467.4,210.8,469.9,211.7,472.4,211.7L472.4,211.7z M492.2,211.4
			c0.2,0,0.3-0.1,0.3-0.2c0,0,0,0,0-0.1v-16.7c0-0.1,0.1-0.2,0.1-0.2h0.1h5.3c0.2,0,0.3-0.1,0.3-0.2c0,0,0,0,0-0.1v-1.8
			c0-0.2-0.1-0.3-0.2-0.3c0,0,0,0-0.1,0h-13.5c-0.2,0-0.3,0.1-0.3,0.2c0,0,0,0,0,0.1v1.8c0,0.2,0.1,0.3,0.2,0.3c0,0,0,0,0.1,0h5.3
			c0.1,0,0.2,0.1,0.2,0.1v0.1v16.7c0,0.2,0.1,0.3,0.2,0.3c0,0,0,0,0.1,0H492.2L492.2,211.4z M504.2,211.1c0,0.2,0.1,0.3,0.2,0.3
			c0,0,0,0,0.1,0h2c0.2,0,0.3-0.1,0.3-0.2c0,0,0,0,0-0.1v-8.2c0-0.1,0.1-0.2,0.1-0.2h0.1h8.5c0.1,0,0.2,0.1,0.2,0.1v0.1v8.2
			c0,0.2,0.1,0.3,0.2,0.3c0,0,0,0,0.1,0h2c0.2,0,0.3-0.1,0.3-0.2c0,0,0,0,0-0.1v-18.9c0-0.2-0.1-0.3-0.2-0.3c0,0,0,0-0.1,0h-2
			c-0.2,0-0.3,0.1-0.3,0.2c0,0,0,0,0,0.1v8c0,0.1-0.1,0.2-0.1,0.2h-0.1H507c-0.1,0-0.2-0.1-0.2-0.1v-0.1v-8c0-0.2-0.1-0.3-0.2-0.3
			c0,0,0,0-0.1,0h-2c-0.2,0-0.3,0.1-0.3,0.2c0,0,0,0,0,0.1V211.1L504.2,211.1z M525.8,211.1c0,0.2,0.1,0.3,0.2,0.3c0,0,0,0,0.1,0
			h11.7c0.2,0,0.3-0.1,0.3-0.2c0,0,0,0,0-0.1v-1.8c0-0.2-0.1-0.3-0.2-0.3c0,0,0,0-0.1,0h-9.3c-0.1,0-0.2-0.1-0.2-0.1v-0.1v-6
			c0-0.1,0.1-0.2,0.1-0.2h0.1h7.9c0.2,0,0.3-0.1,0.3-0.2c0,0,0,0,0-0.1v-1.8c0-0.2-0.1-0.3-0.2-0.3c0,0,0,0-0.1,0h-7.9
			c-0.1,0-0.2-0.1-0.2-0.1l0,0v-5.7c0-0.1,0.1-0.2,0.1-0.2h0.1h9.3c0.2,0,0.3-0.1,0.3-0.2c0,0,0,0,0-0.1v-1.8c0-0.2-0.1-0.3-0.2-0.3
			c0,0,0,0-0.1,0h-11.7c-0.2,0-0.3,0.1-0.3,0.2c0,0,0,0,0,0.1L525.8,211.1L525.8,211.1z M551.1,211.4c0.2,0,0.3-0.1,0.3-0.2
			c0,0,0,0,0-0.1v-16.7c0-0.1,0.1-0.2,0.1-0.2h0.1h5.3c0.2,0,0.3-0.1,0.3-0.2c0,0,0,0,0-0.1v-1.8c0-0.2-0.1-0.3-0.2-0.3
			c0,0,0,0-0.1,0h-13.6c-0.2,0-0.3,0.1-0.3,0.2c0,0,0,0,0,0.1v1.8c0,0.2,0.1,0.3,0.2,0.3c0,0,0,0,0.1,0h5.3c0.1,0,0.2,0.1,0.2,0.1
			v0.1v16.7c0,0.2,0.1,0.3,0.2,0.3c0,0,0,0,0.1,0H551.1L551.1,211.4z M563.1,211.1c0,0.2,0.1,0.3,0.2,0.3c0,0,0,0,0.1,0h2
			c0.2,0,0.3-0.1,0.3-0.2c0,0,0,0,0-0.1v-18.9c0-0.2-0.1-0.3-0.2-0.3c0,0,0,0-0.1,0h-2c-0.2,0-0.3,0.1-0.3,0.2c0,0,0,0,0,0.1V211.1z
			 M573.2,207.1c1,3.1,3.3,4.6,6.5,4.6c2.7,0.1,5.2-1.4,6.3-4c0.1-0.1,0-0.3-0.1-0.4l-1.7-0.8c-0.1-0.1-0.3,0-0.4,0.1l0,0
			c-0.7,1.5-2,2.6-4,2.6c-1.8,0.1-3.6-1.1-4-2.9c-0.2-0.8-0.4-1.8-0.4-4.8s0.1-4,0.4-4.8c0.5-1.8,2.2-3,4-2.9c2.1,0,3.3,1.1,4,2.6
			c0.1,0.2,0.2,0.2,0.4,0.2l0,0l1.7-0.9c0.1-0.1,0.2-0.2,0.1-0.4c-1.1-2.5-3.6-4-6.3-4c-3.2,0-5.5,1.5-6.5,4.6
			c-0.4,1.1-0.5,2.2-0.5,5.5C572.7,204.9,572.8,206,573.2,207.1L573.2,207.1z M600.2,211.1c0,0.2,0.1,0.3,0.2,0.3c0,0,0,0,0.1,0
			h11.8c0.2,0,0.3-0.1,0.3-0.2c0,0,0,0,0-0.1v-1.8c0-0.2-0.1-0.3-0.2-0.3c0,0,0,0-0.1,0H603c-0.1,0-0.2-0.1-0.2-0.1v-0.1v-6
			c0-0.1,0.1-0.2,0.1-0.2h0.1h7.9c0.2,0,0.3-0.1,0.3-0.2c0,0,0,0,0-0.1v-1.8c0-0.2-0.1-0.3-0.2-0.3c0,0,0,0-0.1,0H603
			c-0.1,0-0.2-0.1-0.2-0.1l0,0v-5.7c0-0.1,0.1-0.2,0.1-0.2h0.1h9.3c0.2,0,0.3-0.1,0.3-0.2c0,0,0,0,0-0.1v-1.8c0-0.2-0.1-0.3-0.2-0.3
			c0,0,0,0-0.1,0h-11.7c-0.2,0-0.3,0.1-0.3,0.2c0,0,0,0,0,0.1L600.2,211.1L600.2,211.1z M632,211.4c0.2,0,0.2-0.2,0.2-0.3l-5.9-9.8
			l5.4-9c0.1-0.2,0.1-0.3-0.2-0.3h-2.2c-0.2,0-0.3,0.1-0.4,0.3l-4,6.6h-0.1l-4-6.6c-0.1-0.2-0.2-0.3-0.5-0.3h-2.2
			c-0.1,0-0.2,0.1-0.2,0.2c0,0.1,0,0.1,0.1,0.1l5.3,9l-5.9,9.8c-0.1,0.1-0.1,0.2,0,0.3s0.1,0.1,0.2,0.1h2.2c0.2,0,0.3-0.1,0.5-0.3
			l4.5-7.5h0.1l4.5,7.5c0.1,0.2,0.2,0.3,0.4,0.3h2.2V211.4z M640.4,211.4c0.2,0,0.3-0.1,0.3-0.2c0,0,0,0,0-0.1v-7.4
			c0-0.1,0.1-0.2,0.1-0.2h0.1h4.5c3.8,0,6.2-2.3,6.2-5.9s-2.4-5.9-6.2-5.9h-6.9c-0.2,0-0.3,0.1-0.3,0.2c0,0,0,0,0,0.1v19.1
			c0,0.2,0.1,0.3,0.2,0.3c0,0,0,0,0.1,0H640.4L640.4,211.4z M645.2,201.1h-4.4c-0.1,0-0.2-0.1-0.2-0.1v-0.1v-6.5
			c0-0.1,0.1-0.2,0.1-0.2h0.1h4.4c2.4,0,3.8,1.3,3.8,3.4C649,199.8,647.6,201.1,645.2,201.1L645.2,201.1z M658,211.1
			c0,0.2,0.1,0.3,0.2,0.3c0,0,0,0,0.1,0H670c0.2,0,0.3-0.1,0.3-0.2c0,0,0,0,0-0.1v-1.8c0-0.2-0.1-0.3-0.2-0.3c0,0,0,0-0.1,0h-9.3
			c-0.1,0-0.2-0.1-0.2-0.1v-0.1v-6c0-0.1,0.1-0.2,0.1-0.2h0.1h7.9c0.2,0,0.3-0.1,0.3-0.2c0,0,0,0,0-0.1v-1.8c0-0.2-0.1-0.3-0.2-0.3
			c0,0,0,0-0.1,0h-7.9c-0.1,0-0.2-0.1-0.2-0.1l0,0v-5.7c0-0.1,0.1-0.2,0.1-0.2h0.1h9.3c0.2,0,0.3-0.1,0.3-0.2c0,0,0,0,0-0.1v-1.8
			c0-0.2-0.1-0.3-0.2-0.3c0,0,0,0-0.1,0h-11.7c-0.2,0-0.3,0.1-0.3,0.2c0,0,0,0,0,0.1L658,211.1L658,211.1z M690.6,211.4
			c0.1,0,0.2-0.1,0.2-0.2c0-0.1,0-0.1-0.1-0.2l-4.1-8.3c2.4-0.7,4-2.9,3.8-5.3c0-3.4-2.5-5.6-6.1-5.6h-7.1c-0.2,0-0.3,0.1-0.3,0.2
			c0,0,0,0,0,0.1v19c0,0.2,0.1,0.3,0.2,0.3c0,0,0,0,0.1,0h2c0.2,0,0.3-0.1,0.3-0.2c0,0,0,0,0-0.1v-7.8c0-0.1,0.1-0.2,0.1-0.2h0.1
			h4.3l3.9,8c0.1,0.2,0.2,0.3,0.3,0.3L690.6,211.4L690.6,211.4z M684.2,200.7h-4.5c-0.1,0-0.2-0.1-0.2-0.1v-0.1v-6.1
			c0-0.1,0.1-0.2,0.1-0.2h0.1h4.5c2.2,0,3.6,1.2,3.6,3.3S686.5,200.7,684.2,200.7L684.2,200.7z M697.5,211.1c0,0.2,0.1,0.3,0.2,0.3
			c0,0,0,0,0.1,0h2c0.2,0,0.3-0.1,0.3-0.2c0,0,0,0,0-0.1v-18.9c0-0.2-0.1-0.3-0.2-0.3c0,0,0,0-0.1,0h-2c-0.2,0-0.3,0.1-0.3,0.2
			c0,0,0,0,0,0.1V211.1z M707.8,211.1c0,0.2,0.1,0.3,0.2,0.3c0,0,0,0,0.1,0h11.7c0.2,0,0.3-0.1,0.3-0.2c0,0,0,0,0-0.1v-1.8
			c0-0.2-0.1-0.3-0.2-0.3c0,0,0,0-0.1,0h-9.3c-0.1,0-0.2-0.1-0.2-0.1v-0.1v-6c0-0.1,0.1-0.2,0.1-0.2h0.1h7.9c0.2,0,0.3-0.1,0.3-0.2
			c0,0,0,0,0-0.1v-1.8c0-0.2-0.1-0.3-0.2-0.3c0,0,0,0-0.1,0h-7.9c-0.1,0-0.2-0.1-0.2-0.1l0,0v-5.7c0-0.1,0.1-0.2,0.1-0.2h0.1h9.3
			c0.2,0,0.3-0.1,0.3-0.2c0,0,0,0,0-0.1v-1.8c0-0.2-0.1-0.3-0.2-0.3c0,0,0,0-0.1,0H708c-0.2,0-0.3,0.1-0.3,0.2c0,0,0,0,0,0.1v19
			H707.8z M726.8,211.1c0,0.2,0.1,0.3,0.2,0.3c0,0,0,0,0.1,0h1.8c0.2,0,0.3-0.1,0.3-0.2c0,0,0,0,0-0.1v-14.5h0.1l8.8,14.6
			c0.1,0.2,0.3,0.3,0.5,0.3h1.8c0.2,0,0.3-0.1,0.3-0.2c0,0,0,0,0-0.1v-19c0-0.2-0.1-0.3-0.2-0.3c0,0,0,0-0.1,0h-1.8
			c-0.2,0-0.3,0.1-0.3,0.2c0,0,0,0,0,0.1v14.6h-0.1l-8.8-14.6c-0.1-0.2-0.3-0.3-0.5-0.3h-1.8c-0.2,0-0.3,0.1-0.3,0.2c0,0,0,0,0,0.1
			V211.1z M748.2,207.1c1,3.1,3.3,4.6,6.5,4.6c2.7,0.1,5.2-1.4,6.3-4c0.1-0.1,0-0.3-0.1-0.4l-1.7-0.8c-0.1-0.1-0.3,0-0.4,0.1l0,0
			c-0.7,1.5-2,2.6-4,2.6c-1.8,0.1-3.6-1.1-4.1-2.9c-0.2-0.8-0.4-1.8-0.4-4.8s0.1-4,0.4-4.8c0.5-1.8,2.2-3,4.1-2.9
			c2.1,0,3.3,1.1,4,2.6c0.1,0.2,0.2,0.2,0.4,0.2l0,0l1.7-0.9c0.1-0.1,0.2-0.2,0.1-0.4c-1.1-2.5-3.6-4-6.3-4c-3.2,0-5.5,1.5-6.5,4.6
			c-0.4,1.1-0.5,2.2-0.5,5.5C747.7,204.9,747.9,206,748.2,207.1L748.2,207.1z M767.5,211.1c0,0.2,0.1,0.3,0.2,0.3c0,0,0,0,0.1,0
			h11.7c0.2,0,0.3-0.1,0.3-0.2c0,0,0,0,0-0.1v-1.8c0-0.2-0.1-0.3-0.2-0.3c0,0,0,0-0.1,0h-9.3c-0.1,0-0.2-0.1-0.2-0.1v-0.1v-6
			c0-0.1,0.1-0.2,0.1-0.2h0.1h7.9c0.2,0,0.3-0.1,0.3-0.2c0,0,0,0,0-0.1v-1.8c0-0.2-0.1-0.3-0.2-0.3c0,0,0,0-0.1,0h-7.9
			c-0.1,0-0.2-0.1-0.2-0.1l0,0v-5.7c0-0.1,0.1-0.2,0.1-0.2h0.1h9.3c0.2,0,0.3-0.1,0.3-0.2c0,0,0,0,0-0.1v-1.8c0-0.2-0.1-0.3-0.2-0.3
			c0,0,0,0-0.1,0h-11.7c-0.2,0-0.3,0.1-0.3,0.2c0,0,0,0,0,0.1L767.5,211.1L767.5,211.1z M796.4,194.5c0.2,0,0.3-0.1,0.3-0.2
			c0,0,0,0,0-0.1v-2.1c0-0.2-0.1-0.3-0.2-0.3c0,0,0,0-0.1,0h-2c-0.2,0-0.3,0.1-0.3,0.2c0,0,0,0,0,0.1v2.1c0,0.2,0.1,0.3,0.2,0.3
			c0,0,0,0,0.1,0C794.4,194.5,796.4,194.5,796.4,194.5z M796.3,211.4c0.2,0,0.3-0.1,0.3-0.2c0,0,0,0,0-0.1v-13.2
			c0-0.2-0.1-0.3-0.2-0.3c0,0,0,0-0.1,0h-1.8c-0.2,0-0.3,0.1-0.3,0.2c0,0,0,0,0,0.1v13.2c0,0.2,0.1,0.3,0.2,0.3c0,0,0,0,0.1,0H796.3
			L796.3,211.4z M815,211.4c0.2,0,0.3-0.1,0.3-0.2c0,0,0,0,0-0.1v-8.6c0-3.2-1.8-5.2-4.8-5.2c-1.8,0-3.2,0.8-3.8,1.8h-0.1v-1.3
			c0-0.2-0.1-0.3-0.2-0.3c0,0,0,0-0.1,0h-1.8c-0.2,0-0.3,0.1-0.3,0.2c0,0,0,0,0,0.1v13.3c0,0.2,0.1,0.3,0.2,0.3c0,0,0,0,0.1,0h1.8
			c0.2,0,0.3-0.1,0.3-0.2c0,0,0,0,0-0.1v-8.2c0-2.1,1.3-3.4,3.2-3.4c2.1,0,3,1.3,3,3.5v8c0,0.2,0.1,0.3,0.2,0.3c0,0,0,0,0.1,0
			L815,211.4L815,211.4z M836.4,211.4c0.2,0,0.3-0.1,0.3-0.3l6.3-18.9c0.1-0.2-0.1-0.3-0.2-0.3h-2c-0.2,0-0.3,0.1-0.4,0.3l-4.8,15.1
			h-0.1l-5-15.1c-0.1-0.2-0.2-0.3-0.4-0.3h-2c-0.2,0-0.3,0.1-0.2,0.3l6.3,18.9c0.1,0.2,0.2,0.3,0.3,0.3H836.4z M862.5,211.4
			c0.1,0,0.2-0.1,0.2-0.2c0-0.1,0-0.1-0.1-0.2l-4.1-8.3c2.4-0.7,4-2.9,3.8-5.3c0-3.4-2.5-5.6-6.1-5.6h-7.1c-0.2,0-0.3,0.1-0.3,0.2
			c0,0,0,0,0,0.1v19c0,0.2,0.1,0.3,0.2,0.3c0,0,0,0,0.1,0h2c0.2,0,0.3-0.1,0.3-0.2c0,0,0,0,0-0.1v-7.8c0-0.1,0.1-0.2,0.1-0.2h0.1
			h4.3l3.9,8c0.1,0.2,0.2,0.3,0.4,0.3L862.5,211.4L862.5,211.4z M856.2,200.7h-4.5c-0.1,0-0.2-0.1-0.2-0.1v-0.1v-6.1
			c0-0.1,0.1-0.2,0.1-0.2h0.1h4.5c2.2,0,3.6,1.2,3.6,3.3S858.5,200.7,856.2,200.7L856.2,200.7z"/>
		<g>
			<path id="by_featuring_Tim_Fain" class="st1" d="M349.4,249.2c0.1,0,0.2-0.1,0.2-0.2l0,0v-1l0,0c0.5,0.9,1.5,1.5,3.1,1.5
				c1.9,0,3.2-0.9,3.8-2.6c0.5-2.1,0.5-4.2,0-6.2c-0.5-1.7-1.9-2.6-3.8-2.6c-1.7,0-2.6,0.6-3.1,1.5l0,0V234c0-0.1-0.1-0.2-0.2-0.2
				l0,0h-1.5c-0.1,0-0.2,0.1-0.2,0.2l0,0v15.1c0,0.1,0.1,0.2,0.2,0.2l0,0L349.4,249.2L349.4,249.2z M352.3,247.7
				c-1.1,0.1-2.1-0.6-2.4-1.7c-0.2-0.7-0.3-1.5-0.2-2.3c-0.1-0.7,0.1-1.5,0.2-2.3c0.5-1.3,2-2,3.4-1.5c0.7,0.3,1.2,0.8,1.5,1.5
				c0.2,0.7,0.3,1.5,0.2,2.3c0.1,0.7-0.1,1.5-0.2,2.3C354.4,247,353.4,247.7,352.3,247.7z M361.6,253.3c1.7,0,2.5-0.7,3.4-3.3
				l4.4-11.6c0.1-0.1,0-0.2-0.1-0.2h-0.1h-1.5c-0.1,0-0.2,0.1-0.3,0.2l-2.8,7.9h-0.1l-2.9-7.9c0-0.1-0.1-0.2-0.3-0.2h-1.6
				c-0.1,0-0.2,0.1-0.2,0.1c0,0.1,0,0.1,0,0.1l4,10.4l-0.3,1c-0.5,1.3-1,1.7-1.8,1.7H361c-0.1,0-0.2,0.1-0.2,0.2l0,0v1.3
				c0,0.1,0.1,0.2,0.2,0.2l0,0L361.6,253.3L361.6,253.3z M444.4,247v4.5c0,0.1,0.1,0.2,0.2,0.2l0,0c0.1,0,0.2-0.1,0.3-0.2l1.4-1.9
				c0.1-0.2,0.2-0.3,0.1-0.5V247c0-0.1-0.1-0.2-0.2-0.2l0,0h-1.6C444.5,246.7,444.4,246.9,444.4,247L444.4,247L444.4,247z
				 M457.6,249.2c0.1,0,0.2-0.1,0.2-0.2l0,0v-9.1c0-0.1,0.1-0.1,0.1-0.1s0,0,0.1,0h2.1c0.1,0,0.2-0.1,0.2-0.2l0,0v-1.1
				c0-0.1-0.1-0.2-0.2-0.2l0,0H458c-0.1,0-0.1-0.1-0.1-0.1s0,0,0-0.1v-1c0-1.4,0.3-1.7,1.7-1.7h0.6c0.1,0,0.2-0.1,0.2-0.2l0,0v-1.3
				c0-0.1-0.1-0.2-0.2-0.2l0,0h-0.9c-2.3,0-3.3,0.9-3.3,3.6v0.9c0,0.1-0.1,0.1-0.1,0.1s0,0-0.1,0h-0.9c-0.1,0-0.2,0.1-0.2,0.2l0,0
				v1.1c0,0.1,0.1,0.2,0.2,0.2l0,0h0.9c0.1,0,0.1,0.1,0.1,0.1s0,0,0,0.1v9.1c0,0.1,0.1,0.2,0.2,0.2l0,0L457.6,249.2L457.6,249.2z
				 M467.8,249.4c1.7,0.1,3.2-0.6,4.3-1.9c0.1-0.1,0.1-0.2,0-0.3c0,0,0,0-0.1-0.1l-0.9-0.9c-0.1-0.1-0.2-0.1-0.3,0l0,0
				c-0.7,0.8-1.7,1.3-2.8,1.2c-1.3,0.1-2.4-0.7-2.8-1.9c-0.1-0.5-0.2-0.9-0.2-1.3c0-0.1,0.1-0.1,0.1-0.1s0,0,0.1,0h6.9
				c0.1,0,0.2-0.1,0.2-0.2c0,0,0,0,0-0.1c0.1-1-0.1-2.1-0.3-3.2c-0.6-1.8-2.4-3.1-4.3-3c-2.1,0-3.7,1-4.3,3
				c-0.3,0.9-0.4,1.8-0.3,2.8c-0.1,0.9,0.1,1.9,0.3,2.8C464,248.4,465.6,249.4,467.8,249.4L467.8,249.4z M465.1,242.7
				c-0.1,0-0.1-0.1-0.1-0.1s0,0,0-0.1c0-0.4,0.1-0.9,0.2-1.3c0.6-1.4,2.1-2.1,3.5-1.5c0.7,0.3,1.3,0.8,1.5,1.5
				c0.1,0.4,0.2,0.8,0.2,1.3c0,0.1-0.1,0.1-0.1,0.1s0,0-0.1,0L465.1,242.7L465.1,242.7z M484.3,249.2c0.1,0,0.2-0.1,0.2-0.2l0,0
				v-7.3c0-2.7-1.2-3.7-4.3-3.7c-1.3-0.1-2.6,0.3-3.7,1.1c-0.1,0.1-0.1,0.2-0.1,0.3l0.6,1c0.1,0.1,0.2,0.1,0.3,0.1c0,0,0,0,0.1-0.1
				c0.8-0.6,1.7-0.8,2.6-0.8c2.1,0,2.6,0.6,2.6,2.2v0.8c0,0.1-0.1,0.1-0.1,0.1s0,0-0.1,0H480c-2.7,0-4.3,1.1-4.3,3.4
				c0,2.2,1.6,3.3,3.7,3.3c1.7,0,2.8-0.6,3.3-1.4l0,0v1c0,0.1,0.1,0.2,0.2,0.2l0,0H484.3L484.3,249.2z M480,247.8
				c-1.5,0-2.3-0.6-2.3-1.7c0-1.3,0.8-1.8,2.8-1.8h2.2c0.1,0,0.1,0.1,0.1,0.1s0,0,0,0.1v1.2C482.7,247,481.7,247.8,480,247.8
				L480,247.8z M493.2,249.3c0.1,0,0.2-0.1,0.2-0.2l0,0v-1.3c0-0.1-0.1-0.2-0.2-0.2l0,0h-0.5c-1,0-1.4-0.3-1.4-1.4V240
				c0-0.1,0.1-0.1,0.1-0.1s0,0,0.1,0h1.7c0.1,0,0.2-0.1,0.2-0.2l0,0v-1.1c0-0.1-0.1-0.2-0.2-0.2l0,0h-1.7c-0.1,0-0.1-0.1-0.1-0.1
				s0,0,0-0.1v-3.1c0-0.1-0.1-0.2-0.2-0.2l0,0h-1.5c-0.1,0-0.2,0.1-0.2,0.2l0,0v3.1c0,0.1-0.1,0.1-0.1,0.1s0,0-0.1,0h-0.9
				c-0.1,0-0.2,0.1-0.2,0.2l0,0v1.1c0,0.1,0.1,0.2,0.2,0.2l0,0h0.9c0.1,0,0.1,0.1,0.1,0.1s0,0,0,0.1v6.3c0,2.2,0.8,3.1,3,3.1
				L493.2,249.3L493.2,249.3z M505.7,249.2c0.1,0,0.2-0.1,0.2-0.2l0,0v-10.6c0-0.1-0.1-0.2-0.2-0.2l0,0h-1.5c-0.1,0-0.2,0.1-0.2,0.2
				l0,0v6.5c0,1.7-1,2.7-2.5,2.7c-1.6,0-2.4-1-2.4-2.8v-6.4c0-0.1-0.1-0.2-0.2-0.2l0,0h-1.5c-0.1,0-0.2,0.1-0.2,0.2l0,0v6.9
				c0,2.5,1.4,4.1,3.8,4.1c1.2,0.1,2.4-0.5,3-1.5l0,0v1c0,0.1,0.1,0.2,0.2,0.2l0,0h1.5V249.2z M512.3,249.2c0.1,0,0.2-0.1,0.2-0.2
				l0,0v-6c0-1.9,0.7-3.2,2.4-3.2c0.6,0,1.2,0.2,1.7,0.5c0.1,0.1,0.2,0.1,0.3,0c0,0,0,0,0-0.1l0.9-1.1c0.1-0.1,0.1-0.2,0-0.3
				c0,0,0,0-0.1,0c-0.6-0.5-1.4-0.9-2.2-0.8c-1.2-0.1-2.4,0.5-2.9,1.6l0,0v-1.1c0-0.1-0.1-0.2-0.2-0.2l0,0h-1.5
				c-0.1,0-0.2,0.1-0.2,0.2l0,0v10.6c0,0.1,0.1,0.2,0.2,0.2l0,0L512.3,249.2L512.3,249.2z M522.7,235.7c0.1,0,0.2-0.1,0.2-0.2l0,0
				v-1.7c0-0.1-0.1-0.2-0.2-0.2l0,0h-1.5c-0.1,0-0.2,0.1-0.2,0.2l0,0v1.7c0,0.1,0.1,0.2,0.2,0.2l0,0H522.7z M522.7,249.2
				c0.1,0,0.2-0.1,0.2-0.2l0,0v-10.6c0-0.1-0.1-0.2-0.2-0.2l0,0h-1.5c-0.1,0-0.2,0.1-0.2,0.2l0,0V249c0,0.1,0.1,0.2,0.2,0.2l0,0
				H522.7z M536.2,249.2c0.1,0,0.2-0.1,0.2-0.2l0,0v-6.9c0-2.5-1.4-4.1-3.8-4.1c-1.2-0.1-2.4,0.5-3.1,1.5l0,0v-1
				c0-0.1-0.1-0.2-0.2-0.2l0,0h-1.5c-0.1,0-0.2,0.1-0.2,0.2l0,0v10.6c0,0.1,0.1,0.2,0.2,0.2l0,0h1.5c0.1,0,0.2-0.1,0.2-0.2l0,0v-6.5
				c0-1.6,1-2.7,2.5-2.7c1.7,0,2.5,1,2.5,2.8v6.4c0,0.1,0.1,0.2,0.2,0.2l0,0L536.2,249.2L536.2,249.2z M544.5,253.6
				c3.1,0,4.8-1.7,4.8-4.9v-10.3c0-0.1-0.1-0.2-0.2-0.2l0,0h-1.5c-0.1,0-0.2,0.1-0.2,0.2l0,0v1l0,0c-0.5-0.9-1.4-1.5-3-1.5
				c-1.7-0.1-3.3,1-3.7,2.6c-0.5,1.9-0.5,3.9,0,5.8c0.5,1.7,2,2.8,3.7,2.6c1.6,0,2.5-0.6,3-1.5l0,0v1.3c0,2-1,3-2.8,3
				c-1,0-1.9-0.4-2.6-1.1c-0.1-0.1-0.2-0.1-0.3-0.1c0,0-0.1,0-0.1,0.1l-0.9,0.9c-0.1,0.1-0.1,0.2-0.1,0.3c0,0,0,0,0.1,0.1
				C541.7,253,543.1,253.6,544.5,253.6L544.5,253.6z M544.8,247.3c-1.1,0.1-2.1-0.6-2.3-1.7c-0.2-0.7-0.3-1.4-0.3-2.1
				s0.1-1.4,0.3-2.1c0.5-1.3,1.9-2,3.2-1.5c0.7,0.2,1.2,0.8,1.5,1.5c0.2,0.7,0.3,1.4,0.2,2.1c0.1,0.7-0.1,1.4-0.2,2.1
				C546.9,246.7,545.9,247.4,544.8,247.3L544.8,247.3z"/>
			<path class="st0" d="M439.3,244.2c-1.1,2.5-3.6,4.2-6.4,4.2c-3.7,0-6.7-3.1-6.9-6.9h15.4v-0.3c0-4.9-3.8-8.9-8.5-8.9
				s-8.5,4-8.5,8.8c0,4.9,3.8,8.9,8.5,8.9c3.6-0.1,6.8-2.2,8.1-5.6l0.2-0.4h-1.8L439.3,244.2L439.3,244.2z M426.1,239.9
				c0.5-3.3,3.4-5.8,6.8-5.9c3.4,0.1,6.3,2.5,6.8,5.9H426.1z"/>
			<path class="st0" d="M396.6,232.3L396.6,232.3c-2.5,0-4.6,1.3-5.7,3.4c-1.1-2.1-3.4-3.4-5.8-3.4H385c-3.6,0-6.5,2.9-6.5,6.5v11.1
				h1.5v-11.1c0.1-2.6,2.2-4.8,4.9-4.8h0.1c2.7,0,4.9,2.2,4.9,4.9v11h1.5v-11c0.1-2.7,2.2-4.9,4.9-4.9h0.1c2.6,0,4.9,2.1,4.9,4.8
				v11.1h1.5v-11.1C403,235.3,400.1,232.3,396.6,232.3z"/>
			<path class="st0" d="M420.7,236c-1.5-2.3-4.1-3.7-6.9-3.7c-4.7,0-8.5,4-8.5,8.9s3.8,8.9,8.5,8.9c2.8,0,5.3-1.4,6.9-3.7v3.6h1.5
				v-17.3h-1.5V236z M420.7,241.2c0,4-3.1,7.2-6.9,7.2c-3.8,0-6.9-3.2-6.9-7.2s3.1-7.2,6.9-7.2C417.7,234,420.7,237.2,420.7,241.2z"
				/>
			<g>
				<polygon class="st0" points="662.4,249.3 662.4,232.1 665.3,232.1 673,243.4 673,232.1 676.3,232.1 676.3,249.3 673,249.3 
					665.7,238.1 665.7,249.3 				"/>
				<path class="st0" d="M636.8,232.1l6.6,17.2h-3.3l-1.5-3.6h-6.8l-1.4,3.6h-3.1l6.2-17.2H636.8z M633,242.3h4.4l-2.2-5.6
					L633,242.3z"/>
				<path class="st0" d="M589.2,232.1l6.7,14.2c0,0,4.6-9.6,6.8-14.2h0.4l2.2,17.2h-1.7l-1.4-12.4l-6,12.4h-0.4l-6.1-12.4l-1.7,12.4
					h-1.7l2.6-17.2H589.2z"/>
				<polygon class="st0" points="612.6,249.3 612.6,232.1 620.8,232.1 620.8,235.3 615.6,235.3 615.6,238.3 620.7,238.3 
					620.7,241.5 615.5,241.5 615.5,249.3 				"/>
				<rect x="650.7" y="232.1" class="st0" width="2.9" height="17.2"/>
				<polygon class="st0" points="562.4,249.3 562.4,233.8 558.8,233.8 558.8,232.1 567.9,232.1 567.9,233.8 564.3,233.8 
					564.3,249.3 				"/>
				<rect x="576" y="232.1" class="st0" width="1.5" height="17.2"/>
			</g>
		</g>
	</g>
</g>
</svg>
