<?xml version="1.0" encoding="utf-8"?>
<!-- Generator: Adobe Illustrator 19.2.1, SVG Export Plug-In . SVG Version: 6.00 Build 0)  -->
<svg version="1.1" id="Layer_1" xmlns="http://www.w3.org/2000/svg" xmlns:xlink="http://www.w3.org/1999/xlink" x="0px" y="0px"
	 viewBox="0 0 1024 256" style="enable-background:new 0 0 1024 256;" xml:space="preserve">
<style type="text/css">
	.st0{opacity:0.6;fill:#FFFFFF;enable-background:new    ;}
	.st1{fill:#FFFFFF;}
</style>
<path id="A_MULTISENSORY_AESTHETIC_EXPERIENCE_in_VR" class="st0" d="M161.2,211.2c-0.1,0.1,0,0.2,0.1,0.3c0.1,0,0.1,0,0.1,0h2
	c0.2,0,0.3-0.1,0.4-0.3l1.5-4.2h7.9l1.5,4.2c0.1,0.2,0.2,0.3,0.4,0.3h2c0.1,0,0.2-0.1,0.2-0.2c0-0.1,0-0.1,0-0.1l-6.7-18.9
	c-0.1-0.2-0.2-0.3-0.4-0.3h-1.9c-0.2,0-0.3,0.1-0.3,0.3L161.2,211.2z M166.1,204.6l3.1-8.9h0.1l3,8.9H166.1z M191,211.2
	c0,0.2,0.1,0.3,0.2,0.3c0,0,0,0,0.1,0h1.8c0.2,0,0.3-0.1,0.3-0.2c0,0,0,0,0-0.1v-13.6h0.1l4.8,10.7c0.1,0.2,0.3,0.4,0.5,0.3h1.1
	c0.2,0,0.5-0.1,0.5-0.3l4.8-10.7h0.1v13.6c0,0.2,0.1,0.3,0.2,0.3c0,0,0,0,0.1,0h1.8c0.2,0,0.3-0.1,0.3-0.2c0,0,0,0,0-0.1v-18.9
	c0-0.2-0.1-0.3-0.2-0.3c0,0,0,0-0.1,0h-1.8c-0.2,0-0.4,0.1-0.5,0.3l-5.7,13.1h-0.1l-5.9-13.1c-0.1-0.2-0.3-0.3-0.5-0.3h-1.9
	c-0.2,0-0.3,0.1-0.3,0.2c0,0,0,0,0,0.1L191,211.2L191,211.2z M222.3,211.8c4.2,0,6.9-2.5,6.9-7.1v-12.4c0-0.2-0.1-0.3-0.2-0.3
	c0,0,0,0-0.1,0h-2c-0.2,0-0.3,0.1-0.3,0.2c0,0,0,0,0,0.1v12.4c0,3.2-1.7,4.8-4.3,4.8s-4.4-1.6-4.4-4.8v-12.4c0-0.2-0.1-0.3-0.2-0.3
	c0,0,0,0-0.1,0h-2c-0.2,0-0.3,0.1-0.3,0.2c0,0,0,0,0,0.1v12.4C215.4,209.3,218,211.8,222.3,211.8L222.3,211.8z M236.7,211.2
	c0,0.2,0.1,0.3,0.2,0.3c0,0,0,0,0.1,0h11.7c0.2,0,0.3-0.1,0.3-0.2c0,0,0,0,0-0.1v-1.8c0-0.2-0.1-0.3-0.2-0.3c0,0,0,0-0.1,0h-9.3
	c-0.1,0-0.2-0.1-0.2-0.1v-0.1v-16.6c0-0.2-0.1-0.3-0.2-0.3c0,0,0,0-0.1,0h-2c-0.2,0-0.3,0.1-0.3,0.2c0,0,0,0,0,0.1L236.7,211.2
	L236.7,211.2z M258.7,211.5c0.2,0,0.3-0.1,0.3-0.2c0,0,0,0,0-0.1v-16.7c0-0.1,0.1-0.2,0.1-0.2h0.1h5.3c0.2,0,0.3-0.1,0.3-0.2
	c0,0,0,0,0-0.1v-1.8c0-0.2-0.1-0.3-0.2-0.3c0,0,0,0-0.1,0H251c-0.2,0-0.3,0.1-0.3,0.2c0,0,0,0,0,0.1v1.8c0,0.2,0.1,0.3,0.2,0.3
	c0,0,0,0,0.1,0h5.3c0.1,0,0.2,0.1,0.2,0.1v0.1v16.7c0,0.2,0.1,0.3,0.2,0.3c0,0,0,0,0.1,0L258.7,211.5L258.7,211.5z M270.7,211.2
	c0,0.2,0.1,0.3,0.2,0.3c0,0,0,0,0.1,0h2c0.2,0,0.3-0.1,0.3-0.2c0,0,0,0,0-0.1v-18.9c0-0.2-0.1-0.3-0.2-0.3c0,0,0,0-0.1,0h-2
	c-0.2,0-0.3,0.1-0.3,0.2c0,0,0,0,0,0.1V211.2z M286.8,211.8c4.7,0,7.1-2.5,7.1-5.9c0-3.2-1.9-4.9-5.7-5.5l-0.9-0.1
	c-3-0.4-4.1-1.5-4.1-3.2c0-1.9,1.3-3.2,3.7-3.2c1.7,0,3.3,0.5,4.7,1.5c0.1,0.1,0.3,0.1,0.4-0.1l0,0l1-1.6c0.1-0.1,0.1-0.3,0-0.3
	c0,0-0.1,0-0.1-0.1c-1.7-1.2-3.8-1.8-5.9-1.8c-3.8,0-6.4,2.2-6.4,5.7c0,3.1,2,4.9,5.7,5.4l1,0.1c3.1,0.4,4.1,1.5,4.1,3.2
	c0,2-1.6,3.3-4.3,3.3c-2-0.1-3.9-0.7-5.5-2c-0.1-0.1-0.3-0.1-0.3,0c0,0,0,0-0.1,0.1l-1.3,1.5c-0.1,0.1-0.1,0.3,0,0.5
	C281.9,210.9,284.3,211.8,286.8,211.8L286.8,211.8z M300.8,211.2c0,0.2,0.1,0.3,0.2,0.3c0,0,0,0,0.1,0h11.7c0.2,0,0.3-0.1,0.3-0.2
	c0,0,0,0,0-0.1v-1.8c0-0.2-0.1-0.3-0.2-0.3c0,0,0,0-0.1,0h-9.3c-0.1,0-0.2-0.1-0.2-0.1v-0.1v-6c0-0.1,0.1-0.2,0.1-0.2h0.1h7.9
	c0.2,0,0.3-0.1,0.3-0.2c0,0,0,0,0-0.1v-1.8c0-0.2-0.1-0.3-0.2-0.3c0,0,0,0-0.1,0h-7.9c-0.1,0-0.2-0.1-0.2-0.1v-0.1v-5.7
	c0-0.1,0.1-0.2,0.1-0.2h0.1h9.3c0.2,0,0.3-0.1,0.3-0.2c0,0,0,0,0-0.1v-1.8c0-0.2-0.1-0.3-0.2-0.3c0,0,0,0-0.1,0H301
	c-0.2,0-0.3,0.1-0.3,0.2c0,0,0,0,0,0.1V211.2L300.8,211.2z M319.7,211.2c0,0.2,0.1,0.3,0.2,0.3c0,0,0,0,0.1,0h1.8
	c0.2,0,0.3-0.1,0.3-0.2c0,0,0,0,0-0.1v-14.6h0.1l8.8,14.6c0.1,0.2,0.3,0.3,0.5,0.3h1.8c0.2,0,0.3-0.1,0.3-0.2c0,0,0,0,0-0.1v-18.9
	c0-0.2-0.1-0.3-0.2-0.3c0,0,0,0-0.1,0h-1.8c-0.2,0-0.3,0.1-0.3,0.2c0,0,0,0,0,0.1v14.6h-0.1l-8.8-14.6c-0.1-0.2-0.3-0.3-0.5-0.3H320
	c-0.2,0-0.3,0.1-0.3,0.2c0,0,0,0,0,0.1V211.2L319.7,211.2z M347.3,211.8c4.7,0,7.1-2.5,7.1-5.9c0-3.2-1.9-4.9-5.7-5.5l-1-0.1
	c-3-0.4-4.1-1.5-4.1-3.2c0-1.9,1.3-3.2,3.7-3.2c1.7,0,3.3,0.5,4.7,1.5c0.1,0.1,0.3,0.1,0.4-0.1l0,0l1-1.6c0.1-0.1,0.1-0.3,0-0.3
	c0,0-0.1,0-0.1-0.1c-1.7-1.2-3.8-1.8-5.9-1.8c-3.8,0-6.4,2.2-6.4,5.7c0,3.1,2,4.9,5.7,5.4l1,0.1c3.2,0.4,4.1,1.5,4.1,3.2
	c0,2-1.6,3.3-4.3,3.3c-2-0.1-3.9-0.7-5.5-2c-0.1-0.1-0.3-0.1-0.3,0c0,0,0,0-0.1,0.1l-1.3,1.5c-0.1,0.1-0.1,0.3,0,0.5
	C342.3,210.9,344.8,211.8,347.3,211.8L347.3,211.8z M367.7,211.8c3.3,0,5.6-1.5,6.7-4.6c0.4-1.1,0.5-2.3,0.5-5.5
	c0-3.2-0.1-4.4-0.5-5.5c-1-3-3.3-4.6-6.7-4.6c-3.3,0-5.6,1.5-6.7,4.6c-0.4,1.1-0.5,2.3-0.5,5.5c0,3.2,0.1,4.4,0.5,5.5
	C362,210.3,364.4,211.8,367.7,211.8L367.7,211.8z M367.7,209.5c-2.2,0-3.6-1-4.1-2.9c-0.2-0.7-0.5-2-0.5-4.8c0-2.8,0.2-4.1,0.5-4.8
	c0.6-1.9,2-2.9,4.1-2.9c2.2,0,3.6,1,4.1,2.9c0.2,0.7,0.5,2,0.5,4.8c0,2.8-0.2,4.1-0.5,4.8C371.2,208.4,369.8,209.5,367.7,209.5
	L367.7,209.5z M395.4,211.5c0.1,0,0.2-0.1,0.2-0.2c0-0.1,0-0.1-0.1-0.2l-4.1-8.3c2.4-0.7,4-2.9,3.8-5.3c0-3.4-2.5-5.6-6.1-5.6h-7.1
	c-0.2,0-0.3,0.1-0.3,0.2c0,0,0,0,0,0.1v18.9c0,0.2,0.1,0.3,0.2,0.3c0,0,0,0,0.1,0h2c0.2,0,0.3-0.1,0.3-0.2c0,0,0,0,0-0.1v-7.8
	c0-0.1,0.1-0.2,0.1-0.2h0.1h4.3l3.9,8c0.1,0.2,0.2,0.3,0.4,0.3L395.4,211.5L395.4,211.5z M389.1,200.8h-4.5c-0.1,0-0.2-0.1-0.2-0.1
	v-0.1v-6.1c0-0.1,0.1-0.2,0.1-0.2h0.1h4.5c2.2,0,3.6,1.2,3.6,3.3C392.7,199.7,391.3,200.8,389.1,200.8L389.1,200.8z M407.9,211.5
	c0.2,0,0.3-0.1,0.3-0.2c0,0,0,0,0-0.1v-7.7l5.8-11.2c0.1-0.1,0-0.2-0.1-0.3c-0.1,0-0.1-0.1-0.2,0h-2c-0.2,0-0.3,0.1-0.4,0.3
	l-4.4,8.4H407l-4.4-8.4c-0.1-0.2-0.2-0.3-0.5-0.3h-2.1c-0.1,0-0.2,0.1-0.2,0.2c0,0.1,0,0.1,0,0.1l5.8,11.2v7.7
	c0,0.2,0.1,0.3,0.2,0.3c0,0,0,0,0.1,0H407.9L407.9,211.5z M425.3,211.2c-0.1,0.1,0,0.2,0.1,0.3c0.1,0,0.1,0,0.1,0h2
	c0.2,0,0.3-0.1,0.4-0.3l1.5-4.2h7.9l1.5,4.2c0.1,0.2,0.2,0.3,0.4,0.3h2c0.1,0,0.2-0.1,0.2-0.2c0-0.1,0-0.1,0-0.1l-6.7-18.9
	c-0.1-0.2-0.2-0.3-0.4-0.3h-1.8c-0.2,0-0.3,0.1-0.3,0.3L425.3,211.2z M430.2,204.6l3.1-8.9h0.1l3,8.9H430.2z M447.3,211.2
	c0,0.2,0.1,0.3,0.2,0.3c0,0,0,0,0.1,0h11.7c0.2,0,0.3-0.1,0.3-0.2c0,0,0,0,0-0.1v-1.8c0-0.2-0.1-0.3-0.2-0.3c0,0,0,0-0.1,0H450
	c-0.1,0-0.2-0.1-0.2-0.1v-0.1v-6c0-0.1,0.1-0.2,0.1-0.2h0.1h7.9c0.2,0,0.3-0.1,0.3-0.2c0,0,0,0,0-0.1v-1.8c0-0.2-0.1-0.3-0.2-0.3
	c0,0,0,0-0.1,0H450c-0.1,0-0.2-0.1-0.2-0.1v-0.1v-5.7c0-0.1,0.1-0.2,0.1-0.2h0.1h9.3c0.2,0,0.3-0.1,0.3-0.2c0,0,0,0,0-0.1v-1.8
	c0-0.2-0.1-0.3-0.2-0.3c0,0,0,0-0.1,0h-11.7c-0.2,0-0.3,0.1-0.3,0.2c0,0,0,0,0,0.1L447.3,211.2L447.3,211.2z M472.2,211.8
	c4.7,0,7.1-2.5,7.1-5.9c0-3.2-1.9-4.9-5.7-5.5l-1-0.1c-3-0.4-4.1-1.5-4.1-3.2c0-1.9,1.3-3.2,3.7-3.2c1.7,0,3.3,0.5,4.7,1.5
	c0.1,0.1,0.3,0.1,0.4-0.1l0,0l1-1.6c0.1-0.1,0.1-0.3,0-0.3c0,0-0.1,0-0.1-0.1c-1.7-1.2-3.8-1.8-5.9-1.8c-3.8,0-6.4,2.2-6.4,5.7
	c0,3.1,2,4.9,5.7,5.4l1,0.1c3.1,0.4,4.1,1.5,4.1,3.2c0,2-1.6,3.3-4.3,3.3c-2-0.1-3.9-0.7-5.5-2c-0.1-0.1-0.3-0.1-0.3,0
	c0,0,0,0-0.1,0.1l-1.3,1.5c-0.1,0.1-0.1,0.3,0.1,0.5C467.3,210.9,469.8,211.8,472.2,211.8L472.2,211.8z M492.1,211.5
	c0.2,0,0.3-0.1,0.3-0.2c0,0,0,0,0-0.1v-16.7c0-0.1,0.1-0.2,0.1-0.2h0.1h5.3c0.2,0,0.3-0.1,0.3-0.2c0,0,0,0,0-0.1v-1.8
	c0-0.2-0.1-0.3-0.2-0.3c0,0,0,0-0.1,0h-13.5c-0.2,0-0.3,0.1-0.3,0.2c0,0,0,0,0,0.1v1.8c0,0.2,0.1,0.3,0.2,0.3c0,0,0,0,0.1,0h5.3
	c0.1,0,0.2,0.1,0.2,0.1v0.1v16.7c0,0.2,0.1,0.3,0.2,0.3c0,0,0,0,0.1,0L492.1,211.5L492.1,211.5z M504.1,211.2c0,0.2,0.1,0.3,0.2,0.3
	c0,0,0,0,0.1,0h2c0.2,0,0.3-0.1,0.3-0.2c0,0,0,0,0-0.1V203c0-0.1,0.1-0.2,0.1-0.2h0.1h8.5c0.1,0,0.2,0.1,0.2,0.1v0.1v8.2
	c0,0.2,0.1,0.3,0.2,0.3c0,0,0,0,0.1,0h2c0.2,0,0.3-0.1,0.3-0.2c0,0,0,0,0-0.1v-18.9c0-0.2-0.1-0.3-0.2-0.3c0,0,0,0-0.1,0h-2
	c-0.2,0-0.3,0.1-0.3,0.2c0,0,0,0,0,0.1v8c0,0.1-0.1,0.2-0.1,0.2h-0.1h-8.5c-0.1,0-0.2-0.1-0.2-0.1v-0.1v-8c0-0.2-0.1-0.3-0.2-0.3
	c0,0,0,0-0.1,0h-2c-0.2,0-0.3,0.1-0.3,0.2c0,0,0,0,0,0.1V211.2L504.1,211.2z M525.7,211.2c0,0.2,0.1,0.3,0.2,0.3c0,0,0,0,0.1,0h11.7
	c0.2,0,0.3-0.1,0.3-0.2c0,0,0,0,0-0.1v-1.8c0-0.2-0.1-0.3-0.2-0.3c0,0,0,0-0.1,0h-9.3c-0.1,0-0.2-0.1-0.2-0.1v-0.1v-6
	c0-0.1,0.1-0.2,0.1-0.2h0.1h7.9c0.2,0,0.3-0.1,0.3-0.2c0,0,0,0,0-0.1v-1.8c0-0.2-0.1-0.3-0.2-0.3c0,0,0,0-0.1,0h-7.9
	c-0.1,0-0.2-0.1-0.2-0.1v-0.1v-5.7c0-0.1,0.1-0.2,0.1-0.2h0.1h9.3c0.2,0,0.3-0.1,0.3-0.2c0,0,0,0,0-0.1v-1.8c0-0.2-0.1-0.3-0.2-0.3
	c0,0,0,0-0.1,0h-11.7c-0.2,0-0.3,0.1-0.3,0.2c0,0,0,0,0,0.1V211.2L525.7,211.2z M551,211.5c0.2,0,0.3-0.1,0.3-0.2c0,0,0,0,0-0.1
	v-16.7c0-0.1,0.1-0.2,0.1-0.2h0.1h5.3c0.2,0,0.3-0.1,0.3-0.2c0,0,0,0,0-0.1v-1.8c0-0.2-0.1-0.3-0.2-0.3c0,0,0,0-0.1,0h-13.6
	c-0.2,0-0.3,0.1-0.3,0.2c0,0,0,0,0,0.1v1.8c0,0.2,0.1,0.3,0.2,0.3c0,0,0,0,0.1,0h5.3c0.1,0,0.2,0.1,0.2,0.1v0.1v16.7
	c0,0.2,0.1,0.3,0.2,0.3c0,0,0,0,0.1,0L551,211.5L551,211.5z M562.9,211.2c0,0.2,0.1,0.3,0.2,0.3c0,0,0,0,0.1,0h2
	c0.2,0,0.3-0.1,0.3-0.2c0,0,0,0,0-0.1v-18.9c0-0.2-0.1-0.3-0.2-0.3c0,0,0,0-0.1,0h-2c-0.2,0-0.3,0.1-0.3,0.2c0,0,0,0,0,0.1V211.2z
	 M573,207.2c1,3.1,3.3,4.6,6.5,4.6c2.7,0.1,5.2-1.4,6.3-4c0.1-0.1,0-0.3-0.1-0.4l-1.7-0.8c-0.1-0.1-0.3,0-0.4,0.1l0,0
	c-0.7,1.5-2,2.6-4,2.6c-1.8,0.1-3.6-1.1-4-2.9c-0.2-0.8-0.4-1.8-0.4-4.8c0-3,0.1-4,0.4-4.8c0.5-1.8,2.2-3,4-2.9c2.1,0,3.3,1.1,4,2.6
	c0.1,0.2,0.2,0.2,0.4,0.2l0,0l1.7-0.9c0.1-0.1,0.2-0.2,0.1-0.4c-1.1-2.5-3.6-4-6.3-4c-3.2,0-5.5,1.5-6.5,4.6
	c-0.4,1.1-0.5,2.2-0.5,5.5C572.5,205,572.6,206.1,573,207.2L573,207.2z M600.1,211.2c0,0.2,0.1,0.3,0.2,0.3c0,0,0,0,0.1,0h11.8
	c0.2,0,0.3-0.1,0.3-0.2c0,0,0,0,0-0.1v-1.8c0-0.2-0.1-0.3-0.2-0.3c0,0,0,0-0.1,0h-9.3c-0.1,0-0.2-0.1-0.2-0.1v-0.1v-6
	c0-0.1,0.1-0.2,0.1-0.2h0.1h7.9c0.2,0,0.3-0.1,0.3-0.2c0,0,0,0,0-0.1v-1.8c0-0.2-0.1-0.3-0.2-0.3c0,0,0,0-0.1,0h-7.9
	c-0.1,0-0.2-0.1-0.2-0.1v-0.1v-5.7c0-0.1,0.1-0.2,0.1-0.2h0.1h9.3c0.2,0,0.3-0.1,0.3-0.2c0,0,0,0,0-0.1v-1.8c0-0.2-0.1-0.3-0.2-0.3
	c0,0,0,0-0.1,0h-11.7c-0.2,0-0.3,0.1-0.3,0.2c0,0,0,0,0,0.1L600.1,211.2L600.1,211.2z M631.9,211.5c0.2,0,0.2-0.2,0.2-0.3l-5.9-9.8
	l5.4-9c0.1-0.2,0.1-0.3-0.2-0.3h-2.2c-0.2,0-0.3,0.1-0.4,0.3l-4,6.6h-0.1l-4-6.6c-0.1-0.2-0.2-0.3-0.5-0.3H618
	c-0.1,0-0.2,0.1-0.2,0.2c0,0.1,0,0.1,0.1,0.1l5.3,9l-5.9,9.8c-0.1,0.1-0.1,0.2,0,0.3s0.1,0.1,0.2,0.1h2.2c0.2,0,0.3-0.1,0.5-0.3
	l4.5-7.5h0.1l4.5,7.5c0.1,0.2,0.2,0.3,0.4,0.3H631.9z M640.2,211.5c0.2,0,0.3-0.1,0.3-0.2c0,0,0,0,0-0.1v-7.4c0-0.1,0.1-0.2,0.1-0.2
	h0.1h4.5c3.8,0,6.2-2.3,6.2-5.9s-2.4-5.9-6.2-5.9h-6.9c-0.2,0-0.3,0.1-0.3,0.2c0,0,0,0,0,0.1v18.9c0,0.2,0.1,0.3,0.2,0.3
	c0,0,0,0,0.1,0L640.2,211.5L640.2,211.5z M645,201.3h-4.4c-0.1,0-0.2-0.1-0.2-0.1v-0.1v-6.5c0-0.1,0.1-0.2,0.1-0.2h0.1h4.4
	c2.4,0,3.8,1.3,3.8,3.4C648.9,199.9,647.5,201.3,645,201.3L645,201.3z M657.8,211.2c0,0.2,0.1,0.3,0.2,0.3c0,0,0,0,0.1,0h11.7
	c0.2,0,0.3-0.1,0.3-0.2c0,0,0,0,0-0.1v-1.8c0-0.2-0.1-0.3-0.2-0.3c0,0,0,0-0.1,0h-9.3c-0.1,0-0.2-0.1-0.2-0.1v-0.1v-6
	c0-0.1,0.1-0.2,0.1-0.2h0.1h7.9c0.2,0,0.3-0.1,0.3-0.2c0,0,0,0,0-0.1v-1.8c0-0.2-0.1-0.3-0.2-0.3c0,0,0,0-0.1,0h-7.9
	c-0.1,0-0.2-0.1-0.2-0.1v-0.1v-5.7c0-0.1,0.1-0.2,0.1-0.2h0.1h9.3c0.2,0,0.3-0.1,0.3-0.2c0,0,0,0,0-0.1v-1.8c0-0.2-0.1-0.3-0.2-0.3
	c0,0,0,0-0.1,0h-11.7c-0.2,0-0.3,0.1-0.3,0.2c0,0,0,0,0,0.1V211.2L657.8,211.2z M690.4,211.5c0.1,0,0.2-0.1,0.2-0.2
	c0-0.1,0-0.1-0.1-0.2l-4.1-8.3c2.4-0.7,4-2.9,3.8-5.3c0-3.4-2.5-5.6-6.1-5.6h-7.1c-0.2,0-0.3,0.1-0.3,0.2c0,0,0,0,0,0.1v18.9
	c0,0.2,0.1,0.3,0.2,0.3c0,0,0,0,0.1,0h2c0.2,0,0.3-0.1,0.3-0.2c0,0,0,0,0-0.1v-7.8c0-0.1,0.1-0.2,0.1-0.2h0.1h4.3l3.9,8
	c0.1,0.2,0.2,0.3,0.3,0.3L690.4,211.5L690.4,211.5z M684.1,200.8h-4.5c-0.1,0-0.2-0.1-0.2-0.1v-0.1v-6.1c0-0.1,0.1-0.2,0.1-0.2h0.1
	h4.5c2.2,0,3.6,1.2,3.6,3.3C687.7,199.7,686.4,200.8,684.1,200.8L684.1,200.8z M697.4,211.2c0,0.2,0.1,0.3,0.2,0.3c0,0,0,0,0.1,0h2
	c0.2,0,0.3-0.1,0.3-0.2c0,0,0,0,0-0.1v-18.9c0-0.2-0.1-0.3-0.2-0.3c0,0,0,0-0.1,0h-2c-0.2,0-0.3,0.1-0.3,0.2c0,0,0,0,0,0.1V211.2z
	 M707.6,211.2c0,0.2,0.1,0.3,0.2,0.3c0,0,0,0,0.1,0h11.7c0.2,0,0.3-0.1,0.3-0.2c0,0,0,0,0-0.1v-1.8c0-0.2-0.1-0.3-0.2-0.3
	c0,0,0,0-0.1,0h-9.3c-0.1,0-0.2-0.1-0.2-0.1v-0.1v-6c0-0.1,0.1-0.2,0.1-0.2h0.1h7.9c0.2,0,0.3-0.1,0.3-0.2c0,0,0,0,0-0.1v-1.8
	c0-0.2-0.1-0.3-0.2-0.3c0,0,0,0-0.1,0h-7.9c-0.1,0-0.2-0.1-0.2-0.1v-0.1v-5.7c0-0.1,0.1-0.2,0.1-0.2h0.1h9.3c0.2,0,0.3-0.1,0.3-0.2
	c0,0,0,0,0-0.1v-1.8c0-0.2-0.1-0.3-0.2-0.3c0,0,0,0-0.1,0h-11.7c-0.2,0-0.3,0.1-0.3,0.2c0,0,0,0,0,0.1V211.2L707.6,211.2z
	 M726.6,211.2c0,0.2,0.1,0.3,0.2,0.3c0,0,0,0,0.1,0h1.8c0.2,0,0.3-0.1,0.3-0.2c0,0,0,0,0-0.1v-14.6h0.1l8.8,14.6
	c0.1,0.2,0.3,0.3,0.5,0.3h1.8c0.2,0,0.3-0.1,0.3-0.2c0,0,0,0,0-0.1v-18.9c0-0.2-0.1-0.3-0.2-0.3c0,0,0,0-0.1,0h-1.8
	c-0.2,0-0.3,0.1-0.3,0.2c0,0,0,0,0,0.1v14.6H738l-8.8-14.6c-0.1-0.2-0.3-0.3-0.5-0.3h-1.8c-0.2,0-0.3,0.1-0.3,0.2c0,0,0,0,0,0.1
	V211.2z M748.1,207.2c1,3.1,3.3,4.6,6.5,4.6c2.7,0.1,5.2-1.4,6.3-4c0.1-0.1,0-0.3-0.1-0.4l-1.7-0.8c-0.1-0.1-0.3,0-0.4,0.1l0,0
	c-0.7,1.5-2,2.6-4,2.6c-1.8,0.1-3.6-1.1-4.1-2.9c-0.2-0.8-0.4-1.8-0.4-4.8c0-3,0.1-4,0.4-4.8c0.5-1.8,2.2-3,4.1-2.9
	c2.1,0,3.3,1.1,4,2.6c0.1,0.2,0.2,0.2,0.4,0.2l0,0l1.7-0.9c0.1-0.1,0.2-0.2,0.1-0.4c-1.1-2.5-3.6-4-6.3-4c-3.2,0-5.5,1.5-6.5,4.6
	c-0.4,1.1-0.5,2.2-0.5,5.5C747.6,205,747.7,206.1,748.1,207.2L748.1,207.2z M767.4,211.2c0,0.2,0.1,0.3,0.2,0.3c0,0,0,0,0.1,0h11.7
	c0.2,0,0.3-0.1,0.3-0.2c0,0,0,0,0-0.1v-1.8c0-0.2-0.1-0.3-0.2-0.3c0,0,0,0-0.1,0h-9.3c-0.1,0-0.2-0.1-0.2-0.1v-0.1v-6
	c0-0.1,0.1-0.2,0.1-0.2h0.1h7.9c0.2,0,0.3-0.1,0.3-0.2c0,0,0,0,0-0.1v-1.8c0-0.2-0.1-0.3-0.2-0.3c0,0,0,0-0.1,0h-7.9
	c-0.1,0-0.2-0.1-0.2-0.1v-0.1v-5.7c0-0.1,0.1-0.2,0.1-0.2h0.1h9.3c0.2,0,0.3-0.1,0.3-0.2c0,0,0,0,0-0.1v-1.8c0-0.2-0.1-0.3-0.2-0.3
	c0,0,0,0-0.1,0h-11.7c-0.2,0-0.3,0.1-0.3,0.2c0,0,0,0,0,0.1L767.4,211.2L767.4,211.2z M796.3,194.7c0.2,0,0.3-0.1,0.3-0.2
	c0,0,0,0,0-0.1v-2.1c0-0.2-0.1-0.3-0.2-0.3c0,0,0,0-0.1,0h-2c-0.2,0-0.3,0.1-0.3,0.2c0,0,0,0,0,0.1v2.1c0,0.2,0.1,0.3,0.2,0.3
	c0,0,0,0,0.1,0H796.3z M796.2,211.5c0.2,0,0.3-0.1,0.3-0.2c0,0,0,0,0-0.1V198c0-0.2-0.1-0.3-0.2-0.3c0,0,0,0-0.1,0h-1.8
	c-0.2,0-0.3,0.1-0.3,0.2c0,0,0,0,0,0.1v13.2c0,0.2,0.1,0.3,0.2,0.3c0,0,0,0,0.1,0H796.2L796.2,211.5z M814.9,211.5
	c0.2,0,0.3-0.1,0.3-0.2c0,0,0,0,0-0.1v-8.6c0-3.2-1.8-5.2-4.8-5.2c-1.8,0-3.2,0.8-3.8,1.8h-0.1V198c0-0.2-0.1-0.3-0.2-0.3
	c0,0,0,0-0.1,0h-1.8c-0.2,0-0.3,0.1-0.3,0.2c0,0,0,0,0,0.1v13.2c0,0.2,0.1,0.3,0.2,0.3c0,0,0,0,0.1,0h1.8c0.2,0,0.3-0.1,0.3-0.2
	c0,0,0,0,0-0.1V203c0-2.1,1.3-3.4,3.2-3.4c2.1,0,3,1.3,3,3.5v8c0,0.2,0.1,0.3,0.2,0.3c0,0,0,0,0.1,0L814.9,211.5L814.9,211.5z
	 M836.3,211.5c0.2,0,0.3-0.1,0.3-0.3l6.3-18.9c0.1-0.2-0.1-0.3-0.2-0.3h-2c-0.2,0-0.3,0.1-0.4,0.3l-4.8,15.1h-0.1l-5-15.1
	c-0.1-0.2-0.2-0.3-0.4-0.3h-2c-0.2,0-0.3,0.1-0.2,0.3l6.3,18.9c0.1,0.2,0.2,0.3,0.3,0.3H836.3z M862.4,211.5c0.1,0,0.2-0.1,0.2-0.2
	c0-0.1,0-0.1-0.1-0.2l-4.1-8.3c2.4-0.7,4-2.9,3.8-5.3c0-3.4-2.5-5.6-6.1-5.6h-7.1c-0.2,0-0.3,0.1-0.3,0.2c0,0,0,0,0,0.1v18.9
	c0,0.2,0.1,0.3,0.2,0.3c0,0,0,0,0.1,0h2c0.2,0,0.3-0.1,0.3-0.2c0,0,0,0,0-0.1v-7.8c0-0.1,0.1-0.2,0.1-0.2h0.1h4.3l3.9,8
	c0.1,0.2,0.2,0.3,0.4,0.3L862.4,211.5L862.4,211.5z M856.1,200.8h-4.5c-0.1,0-0.2-0.1-0.2-0.1v-0.1v-6.1c0-0.1,0.1-0.2,0.1-0.2h0.1
	h4.5c2.2,0,3.6,1.2,3.6,3.3C859.7,199.7,858.4,200.8,856.1,200.8L856.1,200.8z"/>
<path id="by_featuring_Tim_Fain" class="st0" d="M359,249.3c0.1,0,0.2-0.1,0.2-0.2l0,0v-1l0,0c0.5,0.9,1.5,1.5,3.1,1.5
	c1.9,0,3.2-0.9,3.8-2.6c0.5-2.1,0.5-4.2,0-6.2c-0.5-1.7-1.9-2.6-3.8-2.6c-1.7,0-2.6,0.6-3.1,1.5l0,0V234c0-0.1-0.1-0.2-0.2-0.2l0,0
	h-1.5c-0.1,0-0.2,0.1-0.2,0.2l0,0v15.1c0,0.1,0.1,0.2,0.2,0.2l0,0L359,249.3L359,249.3z M362,247.8c-1.1,0.1-2.1-0.6-2.4-1.7
	c-0.2-0.7-0.3-1.5-0.2-2.3c-0.1-0.7,0.1-1.5,0.2-2.3c0.5-1.3,2-2,3.4-1.5c0.7,0.3,1.2,0.8,1.5,1.5c0.2,0.7,0.3,1.5,0.2,2.3
	c0.1,0.7-0.1,1.5-0.2,2.3C364,247.1,363.1,247.8,362,247.8z M371.2,253.5c1.7,0,2.5-0.7,3.4-3.3l4.4-11.6c0.1-0.1,0-0.2-0.1-0.2
	c0,0-0.1,0-0.1,0h-1.5c-0.1,0-0.2,0.1-0.3,0.2l-2.8,7.9h-0.1l-2.9-7.9c0-0.1-0.1-0.2-0.3-0.2h-1.6c-0.1,0-0.2,0.1-0.2,0.1
	s0,0.1,0,0.1l4,10.4l-0.3,1c-0.5,1.3-1,1.7-1.8,1.7h-0.4c-0.1,0-0.2,0.1-0.2,0.2l0,0v1.3c0,0.1,0.1,0.2,0.2,0.2l0,0L371.2,253.5
	L371.2,253.5z M454.1,247.1v4.5c0,0.1,0.1,0.2,0.2,0.2l0,0c0.1,0,0.2-0.1,0.3-0.2l1.4-1.9c0.1-0.2,0.2-0.3,0.1-0.5v-2.1
	c0-0.1-0.1-0.2-0.2-0.2l0,0h-1.6C454.2,246.9,454.1,247,454.1,247.1L454.1,247.1L454.1,247.1z M467.2,249.3c0.1,0,0.2-0.1,0.2-0.2
	l0,0V240c0-0.1,0.1-0.1,0.1-0.1c0,0,0,0,0.1,0h2.1c0.1,0,0.2-0.1,0.2-0.2l0,0v-1.1c0-0.1-0.1-0.2-0.2-0.2l0,0h-2.1
	c-0.1,0-0.1-0.1-0.1-0.1c0,0,0,0,0-0.1v-1c0-1.4,0.3-1.7,1.7-1.7h0.6c0.1,0,0.2-0.1,0.2-0.2l0,0V234c0-0.1-0.1-0.2-0.2-0.2l0,0h-0.9
	c-2.3,0-3.3,0.9-3.3,3.6v0.9c0,0.1-0.1,0.1-0.1,0.1c0,0,0,0-0.1,0h-0.9c-0.1,0-0.2,0.1-0.2,0.2l0,0v1.1c0,0.1,0.1,0.2,0.2,0.2l0,0
	h0.9c0.1,0,0.1,0.1,0.1,0.1c0,0,0,0,0,0.1v9.1c0,0.1,0.1,0.2,0.2,0.2l0,0L467.2,249.3L467.2,249.3z M477.5,249.6
	c1.7,0.1,3.2-0.6,4.3-1.9c0.1-0.1,0.1-0.2,0-0.3c0,0,0,0-0.1-0.1l-0.9-0.9c-0.1-0.1-0.2-0.1-0.3,0l0,0c-0.7,0.8-1.7,1.3-2.8,1.2
	c-1.3,0.1-2.4-0.7-2.8-1.9c-0.1-0.5-0.2-0.9-0.2-1.3c0-0.1,0.1-0.1,0.1-0.1c0,0,0,0,0.1,0h6.9c0.1,0,0.2-0.1,0.2-0.2c0,0,0,0,0-0.1
	c0.1-1-0.1-2.1-0.3-3.2c-0.6-1.8-2.4-3.1-4.3-3c-2.1,0-3.7,1-4.3,3c-0.3,0.9-0.4,1.8-0.3,2.8c-0.1,0.9,0.1,1.9,0.3,2.8
	C473.6,248.5,475.2,249.6,477.5,249.6L477.5,249.6z M474.8,242.8c-0.1,0-0.1-0.1-0.1-0.1c0,0,0,0,0-0.1c0-0.4,0.1-0.9,0.2-1.3
	c0.6-1.4,2.1-2.1,3.5-1.5c0.7,0.3,1.3,0.8,1.5,1.5c0.1,0.4,0.2,0.8,0.2,1.3c0,0.1-0.1,0.1-0.1,0.1c0,0,0,0-0.1,0L474.8,242.8
	L474.8,242.8z M494,249.3c0.1,0,0.2-0.1,0.2-0.2l0,0v-7.3c0-2.7-1.2-3.7-4.3-3.7c-1.3-0.1-2.6,0.3-3.7,1.1c-0.1,0.1-0.1,0.2-0.1,0.3
	l0.6,1c0.1,0.1,0.2,0.1,0.3,0.1c0,0,0,0,0.1-0.1c0.8-0.6,1.7-0.8,2.6-0.8c2.1,0,2.6,0.6,2.6,2.2v0.8c0,0.1-0.1,0.1-0.1,0.1
	c0,0,0,0-0.1,0h-2.5c-2.7,0-4.3,1.1-4.3,3.4c0,2.2,1.6,3.3,3.7,3.3c1.7,0,2.8-0.6,3.3-1.4l0,0v1c0,0.1,0.1,0.2,0.2,0.2l0,0
	L494,249.3L494,249.3z M489.6,247.9c-1.5,0-2.3-0.6-2.3-1.7c0-1.3,0.8-1.8,2.8-1.8h2.2c0.1,0,0.1,0.1,0.1,0.1c0,0,0,0,0,0.1v1.2
	C492.4,247.1,491.3,247.9,489.6,247.9L489.6,247.9z M502.9,249.4c0.1,0,0.2-0.1,0.2-0.2l0,0v-1.3c0-0.1-0.1-0.2-0.2-0.2l0,0h-0.5
	c-1,0-1.4-0.3-1.4-1.4v-6.2c0-0.1,0.1-0.1,0.1-0.1c0,0,0,0,0.1,0h1.7c0.1,0,0.2-0.1,0.2-0.2l0,0v-1.1c0-0.1-0.1-0.2-0.2-0.2l0,0
	h-1.7c-0.1,0-0.1-0.1-0.1-0.1c0,0,0,0,0-0.1v-3.1c0-0.1-0.1-0.2-0.2-0.2l0,0h-1.5c-0.1,0-0.2,0.1-0.2,0.2l0,0v3.1
	c0,0.1-0.1,0.1-0.1,0.1c0,0,0,0-0.1,0h-0.9c-0.1,0-0.2,0.1-0.2,0.2l0,0v1.1c0,0.1,0.1,0.2,0.2,0.2l0,0h0.9c0.1,0,0.1,0.1,0.1,0.1
	c0,0,0,0,0,0.1v6.3c0,2.2,0.8,3.1,3,3.1L502.9,249.4L502.9,249.4z M515.4,249.3c0.1,0,0.2-0.1,0.2-0.2l0,0v-10.6
	c0-0.1-0.1-0.2-0.2-0.2l0,0h-1.5c-0.1,0-0.2,0.1-0.2,0.2l0,0v6.5c0,1.7-1,2.7-2.5,2.7c-1.6,0-2.4-1-2.4-2.8v-6.4
	c0-0.1-0.1-0.2-0.2-0.2l0,0h-1.5c-0.1,0-0.2,0.1-0.2,0.2l0,0v6.9c0,2.5,1.4,4.1,3.8,4.1c1.2,0.1,2.4-0.5,3-1.5l0,0v1
	c0,0.1,0.1,0.2,0.2,0.2l0,0H515.4z M522,249.3c0.1,0,0.2-0.1,0.2-0.2l0,0v-6c0-1.9,0.7-3.2,2.4-3.2c0.6,0,1.2,0.2,1.7,0.5
	c0.1,0.1,0.2,0.1,0.3,0c0,0,0,0,0-0.1l0.9-1.1c0.1-0.1,0.1-0.2,0-0.3c0,0,0,0-0.1,0c-0.6-0.5-1.4-0.9-2.2-0.8
	c-1.2-0.1-2.4,0.5-2.9,1.6l0,0v-1.1c0-0.1-0.1-0.2-0.2-0.2l0,0h-1.5c-0.1,0-0.2,0.1-0.2,0.2l0,0v10.6c0,0.1,0.1,0.2,0.2,0.2l0,0
	L522,249.3L522,249.3z M532.4,235.8c0.1,0,0.2-0.1,0.2-0.2l0,0V234c0-0.1-0.1-0.2-0.2-0.2l0,0h-1.5c-0.1,0-0.2,0.1-0.2,0.2l0,0v1.7
	c0,0.1,0.1,0.2,0.2,0.2l0,0H532.4z M532.3,249.3c0.1,0,0.2-0.1,0.2-0.2l0,0v-10.6c0-0.1-0.1-0.2-0.2-0.2l0,0h-1.5
	c-0.1,0-0.2,0.1-0.2,0.2l0,0v10.6c0,0.1,0.1,0.2,0.2,0.2l0,0H532.3z M545.8,249.3c0.1,0,0.2-0.1,0.2-0.2l0,0v-6.9
	c0-2.5-1.4-4.1-3.8-4.1c-1.2-0.1-2.4,0.5-3.1,1.5l0,0v-1c0-0.1-0.1-0.2-0.2-0.2l0,0h-1.5c-0.1,0-0.2,0.1-0.2,0.2l0,0v10.6
	c0,0.1,0.1,0.2,0.2,0.2l0,0h1.5c0.1,0,0.2-0.1,0.2-0.2l0,0v-6.5c0-1.6,1-2.7,2.5-2.7c1.7,0,2.5,1,2.5,2.8v6.4c0,0.1,0.1,0.2,0.2,0.2
	l0,0H545.8L545.8,249.3z M554.2,253.7c3.1,0,4.8-1.7,4.8-4.9v-10.3c0-0.1-0.1-0.2-0.2-0.2l0,0h-1.5c-0.1,0-0.2,0.1-0.2,0.2l0,0v1
	l0,0c-0.5-0.9-1.4-1.5-3-1.5c-1.7-0.1-3.3,1-3.7,2.6c-0.5,1.9-0.5,3.9,0,5.8c0.5,1.7,2,2.8,3.7,2.6c1.6,0,2.5-0.6,3-1.5l0,0v1.3
	c0,2-1,3-2.8,3c-1,0-1.9-0.4-2.6-1.1c-0.1-0.1-0.2-0.1-0.3-0.1c0,0-0.1,0-0.1,0.1l-0.9,0.9c-0.1,0.1-0.1,0.2-0.1,0.3
	c0,0,0,0,0.1,0.1C551.4,253.1,552.7,253.7,554.2,253.7L554.2,253.7z M554.5,247.4c-1.1,0.1-2.1-0.6-2.3-1.7
	c-0.2-0.7-0.3-1.4-0.3-2.1c0-0.7,0.1-1.4,0.3-2.1c0.5-1.3,1.9-2,3.2-1.5c0.7,0.2,1.2,0.8,1.5,1.5c0.2,0.7,0.3,1.4,0.2,2.1
	c0.1,0.7-0.1,1.4-0.2,2.1C556.5,246.8,555.5,247.5,554.5,247.4L554.5,247.4z M573.7,249.3c0.1,0,0.2-0.1,0.2-0.2l0,0v-13.3
	c0-0.1,0.1-0.1,0.1-0.1c0,0,0,0,0.1,0h4.2c0.1,0,0.2-0.1,0.2-0.2l0,0V234c0-0.1-0.1-0.2-0.2-0.2l0,0h-10.8c-0.1,0-0.2,0.1-0.2,0.2
	l0,0v1.4c0,0.1,0.1,0.2,0.2,0.2l0,0h4.2c0.1,0,0.1,0.1,0.1,0.1c0,0,0,0,0,0.1v13.3c0,0.1,0.1,0.2,0.2,0.2l0,0L573.7,249.3
	L573.7,249.3z M583.6,235.8c0.1,0,0.2-0.1,0.2-0.2l0,0V234c0-0.1-0.1-0.2-0.2-0.2l0,0h-1.5c-0.1,0-0.2,0.1-0.2,0.2l0,0v1.7
	c0,0.1,0.1,0.2,0.2,0.2l0,0H583.6z M583.5,249.3c0.1,0,0.2-0.1,0.2-0.2l0,0v-10.6c0-0.1-0.1-0.2-0.2-0.2l0,0h-1.5
	c-0.1,0-0.2,0.1-0.2,0.2l0,0v10.6c0,0.1,0.1,0.2,0.2,0.2l0,0H583.5z M604,249.3c0.1,0,0.2-0.1,0.2-0.2l0,0v-6.9
	c0-2.5-1.4-4.1-3.9-4.1c-1.4-0.1-2.8,0.6-3.6,1.7l0,0c-1.2-1.8-3.6-2.2-5.4-1.1c-0.3,0.2-0.6,0.5-0.9,0.9l0,0v-1
	c0-0.1-0.1-0.2-0.2-0.2l0,0h-1.5c-0.1,0-0.2,0.1-0.2,0.2l0,0v10.6c0,0.1,0.1,0.2,0.2,0.2l0,0h1.5c0.1,0,0.2-0.1,0.2-0.2l0,0v-6.5
	c0-1.6,1-2.7,2.5-2.7c1.7,0,2.5,1,2.5,2.8v6.4c0,0.1,0.1,0.2,0.2,0.2l0,0h1.5c0.1,0,0.2-0.1,0.2-0.2l0,0v-6.5
	c-0.1-1.4,0.9-2.6,2.2-2.7c0.1,0,0.2,0,0.3,0c1.7,0,2.5,1,2.5,2.8v6.4c0,0.1,0.1,0.2,0.2,0.2l0,0H604L604,249.3z M614,249.1
	c0,0.1,0.1,0.2,0.2,0.2l0,0h1.6c0.1,0,0.2-0.1,0.2-0.2l0,0v-6.4c0-0.1,0.1-0.1,0.1-0.1c0,0,0,0,0.1,0h6.3c0.1,0,0.2-0.1,0.2-0.2l0,0
	v-1.4c0-0.1-0.1-0.2-0.2-0.2l0,0h-6.3c-0.1,0-0.1-0.1-0.1-0.1c0,0,0,0,0-0.1v-4.8c0-0.1,0.1-0.1,0.1-0.1c0,0,0,0,0.1,0h7.4
	c0.1,0,0.2-0.1,0.2-0.2l0,0V234c0-0.1-0.1-0.2-0.2-0.2l0,0h-9.4c-0.1,0-0.2,0.1-0.2,0.2l0,0v15.1H614z M634.5,249.3
	c0.1,0,0.2-0.1,0.2-0.2l0,0v-7.3c0-2.7-1.2-3.7-4.3-3.7c-1.3-0.1-2.6,0.3-3.7,1.1c-0.1,0.1-0.1,0.2-0.1,0.3l0.6,1
	c0.1,0.1,0.2,0.1,0.3,0.1c0,0,0,0,0.1-0.1c0.8-0.6,1.7-0.8,2.6-0.8c2.1,0,2.6,0.6,2.6,2.2v0.8c0,0.1-0.1,0.1-0.1,0.1c0,0,0,0-0.1,0
	h-2.5c-2.7,0-4.3,1.1-4.3,3.4c0,2.2,1.6,3.3,3.7,3.3c1.7,0,2.8-0.6,3.3-1.4l0,0v1c0,0.1,0.1,0.2,0.2,0.2l0,0L634.5,249.3
	L634.5,249.3z M630.1,247.9c-1.5,0-2.3-0.6-2.3-1.7c0-1.3,0.8-1.8,2.8-1.8h2.2c0.1,0,0.1,0.1,0.1,0.1c0,0,0,0,0,0.1v1.2
	C632.8,247.1,631.8,247.9,630.1,247.9L630.1,247.9z M641,235.8c0.1,0,0.2-0.1,0.2-0.2l0,0V234c0-0.1-0.1-0.2-0.2-0.2l0,0h-1.5
	c-0.1,0-0.2,0.1-0.2,0.2l0,0v1.7c0,0.1,0.1,0.2,0.2,0.2l0,0H641z M641,249.3c0.1,0,0.2-0.1,0.2-0.2l0,0v-10.6c0-0.1-0.1-0.2-0.2-0.2
	l0,0h-1.5c-0.1,0-0.2,0.1-0.2,0.2l0,0v10.6c0,0.1,0.1,0.2,0.2,0.2l0,0H641z M654.5,249.3c0.1,0,0.2-0.1,0.2-0.2l0,0v-6.9
	c0-2.5-1.4-4.1-3.8-4.1c-1.2-0.1-2.4,0.5-3.1,1.5l0,0v-1c0-0.1-0.1-0.2-0.2-0.2l0,0h-1.5c-0.1,0-0.2,0.1-0.2,0.2l0,0v10.6
	c0,0.1,0.1,0.2,0.2,0.2l0,0h1.5c0.1,0,0.2-0.1,0.2-0.2l0,0v-6.5c0-1.6,1-2.7,2.5-2.7c1.7,0,2.5,1,2.5,2.8v6.4c0,0.1,0.1,0.2,0.2,0.2
	l0,0H654.5L654.5,249.3z"/>
<path class="st1" d="M448.9,244.3c-1.1,2.5-3.6,4.2-6.4,4.2c-3.7,0-6.7-3.1-6.9-6.9H451v-0.3c0-4.9-3.8-8.9-8.5-8.9s-8.5,4-8.5,8.8
	c0,4.9,3.8,8.9,8.5,8.9c3.6-0.1,6.8-2.2,8.1-5.6l0.2-0.4h-1.8V244.3z M435.8,240c0.5-3.3,3.4-5.8,6.8-5.9c3.4,0.1,6.3,2.5,6.8,5.9
	H435.8z"/>
<path class="st1" d="M406.2,232.5L406.2,232.5c-2.5,0-4.6,1.3-5.7,3.4c-1.1-2.1-3.4-3.4-5.8-3.4h-0.1c-3.6,0-6.5,2.9-6.5,6.5v11.1
	h1.5v-11.1c0.1-2.6,2.2-4.8,4.9-4.8h0.1c2.7,0,4.9,2.2,4.9,4.9v11h1.5v-11c0.1-2.7,2.2-4.9,4.9-4.9h0.1c2.6,0,4.9,2.1,4.9,4.8v11.1
	h1.5v-11.1C412.6,235.4,409.8,232.5,406.2,232.5z"/>
<path class="st1" d="M430.4,236.1c-1.5-2.3-4.1-3.7-6.9-3.7c-4.7,0-8.5,4-8.5,8.9c0,4.9,3.8,8.9,8.5,8.9c2.8,0,5.3-1.4,6.9-3.7v3.6
	h1.5v-17.3h-1.5V236.1z M430.4,241.3c0,4-3.1,7.2-6.9,7.2c-3.8,0-6.9-3.2-6.9-7.2c0-4,3.1-7.2,6.9-7.2
	C427.3,234.1,430.4,237.3,430.4,241.3z"/>
<path id="L_I_G_H_T_copy" class="st1" d="M22.3,114.7h56.8v9.8H12V4h10.3V114.7z M235.8,4h10.3v120.5h-10.3V4z M503.4,71.5h-39.6
	v-9.8h49.9v42.2c-10.3,13.3-27.9,22.4-46.5,22.4c-36,0-62-26.3-62-62c0-34.8,25.6-62,60.4-62c17.2,0,33.2,6.9,43.7,18.4l-7.1,7.1
	c-8.4-9.3-21.7-15.7-36.7-15.7c-28.9,0-50.1,23.2-50.1,52.2c0,29.3,21.2,52.2,51.1,52.2c14.6,0,27.9-6,36.7-15.1L503.4,71.5
	L503.4,71.5z M765.9,68.6h-77.5v55.9h-10.3V4h10.3v54.8h77.5V4h10.3v120.5h-10.3V68.6z M1012,4v9.8h-34.4v110.7h-10.3V13.8h-34.4V4
	H1012z"/>
</svg>
