<?xml version="1.0" encoding="utf-8"?>
<!-- Generator: Adobe Illustrator 19.2.1, SVG Export Plug-In . SVG Version: 6.00 Build 0)  -->
<svg version="1.1" id="Layer_1" xmlns="http://www.w3.org/2000/svg" xmlns:xlink="http://www.w3.org/1999/xlink" x="0px" y="0px"
	 viewBox="0 0 128 128" style="enable-background:new 0 0 128 128;" xml:space="preserve">
<style type="text/css">
	.st0{fill:#FFFFFF;}
</style>
<path class="st0" d="M120.9,0H7.1C3.2,0,0,3.2,0,7.1v113.9c0,3.9,3.2,7.1,7.1,7.1h113.9c3.9,0,7.1-3.2,7.1-7.1V7.1
	C128,3.2,124.8,0,120.9,0z M102.6,45c0.1,0.8,0.1,1.7,0.1,2.6c0,26.4-20.1,56.8-56.8,56.8c-11.3,0-21.8-3.4-30.6-9
	c1.5,0.2,3,0.2,4.7,0.2c9.3,0,17.8-3.2,24.7-8.4c-8.8-0.2-16.2-5.8-18.7-13.8c1.3,0.2,2.5,0.3,3.8,0.3c1.8,0,3.6-0.3,5.2-0.8
	c-9.1-1.8-16-9.9-16-19.6c0-0.1,0-0.2,0-0.2c2.7,1.4,5.8,2.4,9,2.4c-5.3-3.6-8.8-9.6-8.8-16.6c0-3.7,1-7.1,2.7-10.1
	c9.9,12.1,24.5,20,41.1,20.8c-0.3-1.4-0.5-3-0.5-4.6c0-10.9,8.9-19.8,19.9-19.9c5.8,0,11,2.4,14.6,6.3c4.6-0.9,8.8-2.6,12.7-4.9
	c-1.4,4.6-4.6,8.6-8.7,11c4-0.5,7.9-1.6,11.5-3.1C109.8,38.4,106.5,42,102.6,45z"/>
</svg>
