<?xml version="1.0" encoding="utf-8"?>
<!-- Generator: Adobe Illustrator 19.2.1, SVG Export Plug-In . SVG Version: 6.00 Build 0)  -->
<svg version="1.1" id="Layer_1" xmlns="http://www.w3.org/2000/svg" xmlns:xlink="http://www.w3.org/1999/xlink" x="0px" y="0px"
	 viewBox="0 0 192 96" style="enable-background:new 0 0 192 96;" xml:space="preserve">
<style type="text/css">
	.st0{fill:#FFFFFF;}
	.st1{font-family:'ArialMT';}
	.st2{font-size:20px;}
</style>
<g>
	<path class="st0" d="M164.4,30.5c2.2,0.6,4.4,0.9,6.5,1.6c12,3.9,19.8,15.9,18.8,28.9c-0.9,12.4-10.6,23.1-23,25.1
		c-15.8,2.7-30.5-7.8-32.7-23.8c-2.1-14.8,8.3-29,23-31.4c0.7-0.1,1.5-0.2,2.1-0.4C160.9,30.5,162.6,30.5,164.4,30.5z M177.7,53.9
		c-9.4,4.5-18.7,9-27.9,13.3c0,3,0,6.1,0,9.2c1.8-0.9,3.5-1.7,5.2-2.5c7.3-3.5,14.5-6.8,21.7-10.3c0.4-0.2,1.1-0.2,1.1-1.1
		C177.7,59.6,177.7,56.8,177.7,53.9z M149.7,40.4c0,2.9,0,5.7,0,8.5c0,0.3,0.4,0.9,0.8,1.1c3.6,1.7,7.2,3.2,10.6,5.2
		c2,1.1,3.7,1.3,5.6-0.1c0.1-0.1,0.4-0.1,0.6-0.2c2-1,4-1.9,6.3-3C165.6,48,157.8,44.3,149.7,40.4z"/>
	<path class="st0" d="M95.7,51.9c0-0.8,0.1-1.3,0.1-2.1c1.7,0,3.4,0,5,0c0,0.2,0.1,0.3,0.1,0.6c0,5.6,0.1,11.3,0,16.9
		c-0.1,5.9-3.6,9.3-9.4,9.5c-3.4,0.1-6.6-0.2-9.5-2.2c-0.2-0.1-0.3-0.2-0.6-0.4c1-1.6,2-3,3.1-4.6c0.3,0.2,0.8,0.4,1.1,0.8
		c1.8,1.2,3.7,1.8,5.9,1.5c2.9-0.3,4.5-2.7,3.7-5.7c-2.5,2.5-5.4,2.6-8.4,1.5c-3.8-1.3-6.1-5.6-5.5-10.1c0.3-2.7,1.5-4.9,3.6-6.6
		C87.6,48.6,92.7,48.5,95.7,51.9z M86.9,58.7c0,2.4,2,4.4,4.4,4.4c2.4,0,4.5-2.1,4.5-4.5c0-2.4-2.1-4.5-4.5-4.5
		C89,54.2,86.8,56.3,86.9,58.7z"/>
	<path class="st0" d="M114.1,68.3c-3.7,0-7.2-1.3-9.1-5c-1.8-3.6-1.6-7.2,0.9-10.4c2.7-3.4,6.5-4.1,10.5-3.4
		c3.9,0.8,6.5,3.1,7.4,7.1C125.1,62.8,121,67.9,114.1,68.3z M113.9,54.1c-2.7,0-4.5,1.8-4.5,4.6c0,2.7,1.8,4.5,4.4,4.6
		c2.7,0.1,4.5-1.8,4.6-4.5C118.4,56.2,116.6,54.2,113.9,54.1z"/>
	<path class="st0" d="M41.7,60.5c-4.4,0-8.5,0-12.8,0c0.3,1.6,1.2,2.7,2.7,3.1c2.2,0.8,4-0.1,5.5-1.9c1.3,1,2.6,1.9,3.9,2.9
		c-1.5,1.8-3.2,2.9-5.5,3.4c-4.6,1-9.4-1-11.3-4.9c-1.6-3.4-1.5-6.7,0.6-9.7c2.2-3.2,5.6-4.4,9.4-4c4.1,0.3,7.1,3.4,7.4,7.8
		C41.7,58.2,41.7,59.3,41.7,60.5z M35.9,56.6c-0.1-2-1.5-3.2-3.4-3.4c-1.6,0-3.8,1.2-3.7,3.4C31.2,56.6,33.6,56.6,35.9,56.6z"/>
	<path class="st0" d="M2.2,49.7c1.9,0,3.7,0,5.5,0c0.2,0,0.6,0.4,0.7,0.8c1.3,3.4,2.6,6.7,3.8,10.1c0.1,0.3,0.2,0.7,0.4,1.2
		c0.2-0.4,0.3-0.7,0.4-1c1.2-3.4,2.4-6.8,3.5-10.2c0.2-0.7,0.6-0.9,1.3-0.9c1.5,0,3,0,4.6,0c-0.1,0.3-0.1,0.7-0.2,0.9
		c-2.1,5.5-4.4,11-6.5,16.5c-0.2,0.6-0.4,0.9-1.1,0.9c-1.5-0.1-2.9,0-4.4,0c-0.3,0-0.9-0.3-1-0.6c-2.4-5.7-4.7-11.4-7.1-17.1
		C2.2,50.1,2.2,50,2.2,49.7z"/>
	<path class="st0" d="M70,49.7c0,1.6,0,3,0,4.5c-1.6,0-3.1,0-4.8,0c0,2.6,0,5,0,7.6c0,0.9,0.7,1.6,1.6,1.7c1,0.1,2,0,3.1,0
		c0,1.1,0,2.6,0,3.9c0,0.2-0.4,0.4-0.7,0.6c-2,0.4-4.1,0.6-6.2,0c-2.2-0.7-3.7-2.4-3.7-4.5c0-6.3,0-12.6,0-18.9c1.9,0,3.7,0,5.6,0
		c0,1.7,0,3.4,0,5.3C66.9,49.7,68.4,49.7,70,49.7z"/>
	<path class="st0" d="M44.5,67.8c0-6.1,0-12,0-17.9c1.9,0,3.7,0,5.6,0c0,0.8,0,1.6,0,2.2c1.8-2.6,4.1-3.2,7.1-2.6c0,1.7,0,3.2,0,5
		c-0.4-0.1-0.9-0.1-1.2-0.2c-3.6-0.7-5.7,1-5.7,4.6c-0.1,2.9,0,5.8,0,8.9C48.3,67.8,46.4,67.8,44.5,67.8z"/>
	<path class="st0" d="M78.4,67.8c-1.9,0-3.6,0-5.5,0c0-6.1,0-12,0-18c1.8,0,3.6,0,5.5,0C78.4,55.7,78.4,61.8,78.4,67.8z"/>
</g>
<text transform="matrix(1 0 0 1 2.2196 25.6713)" class="st0 st1 st2">Presented by</text>
</svg>
