<?xml version="1.0" encoding="utf-8"?>
<!-- Generator: Adobe Illustrator 19.2.1, SVG Export Plug-In . SVG Version: 6.00 Build 0)  -->
<svg version="1.1" id="Layer_1" xmlns="http://www.w3.org/2000/svg" xmlns:xlink="http://www.w3.org/1999/xlink" x="0px" y="0px"
	 viewBox="0 0 256 96" style="enable-background:new 0 0 256 96;" xml:space="preserve">
<style type="text/css">
	.st0{fill:#FFFFFF;}
	.st1{fill-rule:evenodd;clip-rule:evenodd;fill:#FFFFFF;}
</style>
<g>
	<g>
		<g>
			<path class="st0" d="M66.6,40L66.6,40l-0.1-3.9H59v24.2h7.5V50.2c0-4.8,0.7-8.1,6.4-8.1c1.1,0,2.1,0.2,3.2,0.5v-6.8
				c-0.7-0.2-1.6-0.2-2.5-0.2C70.3,35.5,68.2,37.1,66.6,40z"/>
			<polygon class="st0" points="16.6,52.6 16.5,52.6 10.4,36.1 2.3,36.1 12.3,60.4 20.3,60.4 29.8,36.1 22.3,36.1 			"/>
			<path class="st0" d="M43.9,35.5c-0.4,0-0.7,0-1,0c-7,0.4-12.4,5.3-12.4,12.7c0,7.4,5.4,12.3,12.4,12.7c0.3,0,0.7,0,1,0
				c3.9,0,7.8-1.8,10.2-4.8l-5.2-3.8c-1.2,1.7-2.9,2.9-5.3,2.9c-0.2,0-0.5,0-0.7,0c-2.5-0.3-4.4-2-4.9-4.7h4.9h12.4v-2.3
				C55.3,40.5,50.9,35.5,43.9,35.5z M42.9,45.5h-4.9c0.2-2.3,1.9-4.4,4.9-4.6c0.1,0,0.2,0,0.3,0c2.7,0,4.6,2.1,4.6,4.6H42.9z"/>
			<path class="st0" d="M86.8,28.9h-7.5c0,12.3,0,9.7,0,24.7c0,5.3,3.8,7.3,8.8,7.3c1.7,0,3.6-0.1,5.2-0.8V54
				c-0.6,0.6-2.2,0.7-3,0.7c-3.2,0-3.5-1.9-3.5-4.5v-8.1h6.6v-6h-6.6V28.9z"/>
			<path class="st0" d="M152.1,35.5L152.1,35.5c-7.5,0-13.5,5-13.5,12.7c0,7.7,6,12.7,13.5,12.7h0c7.5,0,13.5-5,13.5-12.7
				C165.5,40.5,159.6,35.5,152.1,35.5z M152.1,54.4L152.1,54.4c-3.7,0-6-2.5-6-6.1c0-3.6,2.2-6.1,6-6.1h0c3.7,0,6,2.5,6,6.1
				C158.1,51.9,155.8,54.4,152.1,54.4z"/>
			<path class="st0" d="M127.8,39.3L127.8,39.3c-1-1.4-3-3-6-3.6c-0.7-0.1-1.5-0.2-2.4-0.2c-6.9,0-11.1,6.2-11.1,12.6
				c0,7.3,4.7,12.5,11.9,12.5c0.5,0,1,0,1.5-0.1c1.9-0.3,4-1.2,5.3-3.1h0.1v2.3c0,3.1-1.7,5.4-5.4,5.9c-0.4,0-0.8,0.1-1.3,0.1
				c-3,0-5.6-1.2-7.9-3.1l-4.1,6.2c3.5,2.8,7.9,3.5,12.2,3.5c0.4,0,0.8,0,1.1,0c8.6-0.4,12.9-5.2,12.9-14V36.1h-6.9V39.3z
				 M121.8,54.1L121.8,54.1c-3.4,0-6-2.8-6-6c0-3.1,2.6-6,6-6h0c3.4,0,6,2.8,6,6C127.8,51.2,125.2,54.1,121.8,54.1z"/>
			<rect x="97.1" y="36.1" class="st0" width="7.5" height="24.2"/>
		</g>
		<path class="st1" d="M218.8,10.6c-0.9-0.1-1.7-0.1-2.6-0.1c-20.7,0-37.5,16.8-37.5,37.5c0,20.7,16.8,37.5,37.5,37.5
			c0.9,0,1.7,0,2.6-0.1c19.5-1.3,34.9-17.6,34.9-37.4C253.7,28.2,238.2,11.9,218.8,10.6z M200,23.6l18.8,9l13.4,6.4l-13,6.2
			l-0.4-0.2L200,36V23.6z M237.6,49V54v0l-18.8,9l-18.8,9V59.6l18.8-9l18.8-9V49z"/>
	</g>
</g>
</svg>
