<?xml version="1.0" encoding="utf-8"?>
<!-- Generator: Adobe Illustrator 19.2.1, SVG Export Plug-In . SVG Version: 6.00 Build 0)  -->
<svg version="1.1" id="Layer_1" xmlns="http://www.w3.org/2000/svg" xmlns:xlink="http://www.w3.org/1999/xlink" x="0px" y="0px"
	 viewBox="0 0 192 96" style="enable-background:new 0 0 192 96;" xml:space="preserve">
<style type="text/css">
	.st0{enable-background:new    ;}
	.st1{fill:#FFFFFF;}
	.st2{fill-rule:evenodd;clip-rule:evenodd;fill:#FFFFFF;}
</style>
<g class="st0">
	<path class="st1" d="M10.4,10.7c1.5,0,2.7,0.4,3.4,1.2c0.8,0.8,1.2,1.9,1.2,3.3c0,1.4-0.4,2.5-1.2,3.3s-1.9,1.2-3.4,1.2H5.9v6.1h-2
		v-15H10.4z M9.8,17.9c1.1,0,2-0.2,2.5-0.7c0.5-0.5,0.8-1.2,0.8-2.1c0-0.9-0.3-1.6-0.8-2c-0.5-0.5-1.4-0.7-2.5-0.7H5.9v5.5H9.8z"/>
	<path class="st1" d="M18.8,14.8v2.3h0c0.4-0.9,1-1.5,1.6-2c0.6-0.4,1.4-0.6,2.4-0.6v1.9c-0.7,0-1.3,0.1-1.8,0.3s-0.9,0.5-1.2,0.9
		c-0.3,0.4-0.5,0.8-0.7,1.4s-0.2,1.2-0.2,1.9v4.8h-1.8V14.8H18.8z"/>
	<path class="st1" d="M31.5,25c-0.8,0.6-1.8,0.9-3.1,0.9c-0.9,0-1.6-0.1-2.3-0.4c-0.6-0.3-1.2-0.7-1.6-1.2c-0.4-0.5-0.8-1.1-1-1.8
		c-0.2-0.7-0.3-1.5-0.4-2.3c0-0.8,0.1-1.6,0.4-2.3c0.3-0.7,0.6-1.3,1.1-1.8s1-0.9,1.6-1.2c0.6-0.3,1.3-0.4,2-0.4
		c1,0,1.8,0.2,2.4,0.6c0.6,0.4,1.1,0.9,1.5,1.5c0.4,0.6,0.7,1.3,0.8,2c0.1,0.7,0.2,1.4,0.2,2.1h-8.1c0,0.5,0,0.9,0.2,1.4
		c0.1,0.4,0.3,0.8,0.6,1.1s0.6,0.6,1.1,0.8c0.4,0.2,0.9,0.3,1.5,0.3c0.8,0,1.4-0.2,1.9-0.5c0.5-0.4,0.8-0.9,1-1.6H33
		C32.8,23.4,32.3,24.4,31.5,25z M31,18c-0.2-0.4-0.4-0.7-0.7-1c-0.3-0.3-0.6-0.5-1-0.7c-0.4-0.2-0.8-0.2-1.2-0.2
		c-0.5,0-0.9,0.1-1.2,0.2c-0.4,0.2-0.7,0.4-1,0.7s-0.5,0.6-0.6,1c-0.2,0.4-0.2,0.8-0.3,1.2h6.2C31.3,18.8,31.2,18.4,31,18z"/>
	<path class="st1" d="M36.4,23.2c0.2,0.3,0.4,0.5,0.7,0.7s0.6,0.3,0.9,0.3c0.3,0.1,0.7,0.1,1.1,0.1c0.3,0,0.6,0,0.9-0.1
		s0.6-0.1,0.9-0.2c0.3-0.1,0.5-0.3,0.6-0.5s0.3-0.5,0.3-0.8c0-0.5-0.2-0.8-0.5-1c-0.4-0.2-0.8-0.4-1.3-0.6c-0.5-0.1-1.1-0.3-1.7-0.4
		c-0.6-0.1-1.2-0.3-1.7-0.5c-0.5-0.2-1-0.5-1.3-0.9c-0.4-0.4-0.5-0.9-0.5-1.6c0-0.5,0.1-1,0.4-1.4c0.2-0.4,0.6-0.7,0.9-1
		c0.4-0.2,0.8-0.4,1.3-0.5c0.5-0.1,1-0.2,1.4-0.2c0.6,0,1.2,0.1,1.7,0.2c0.5,0.1,1,0.3,1.4,0.5c0.4,0.3,0.7,0.6,1,1
		c0.2,0.4,0.4,1,0.4,1.6h-1.8c0-0.3-0.1-0.6-0.3-0.9c-0.2-0.2-0.4-0.4-0.6-0.6c-0.2-0.1-0.5-0.2-0.8-0.3c-0.3-0.1-0.6-0.1-0.9-0.1
		c-0.3,0-0.5,0-0.8,0.1s-0.5,0.1-0.7,0.2c-0.2,0.1-0.4,0.2-0.5,0.4c-0.1,0.2-0.2,0.4-0.2,0.7c0,0.3,0.1,0.6,0.3,0.8
		c0.2,0.2,0.5,0.4,0.8,0.5c0.3,0.1,0.7,0.2,1.1,0.3c0.4,0.1,0.8,0.2,1.3,0.3c0.4,0.1,0.9,0.2,1.3,0.4c0.4,0.1,0.8,0.3,1.1,0.6
		c0.3,0.2,0.6,0.5,0.8,0.9c0.2,0.3,0.3,0.8,0.3,1.3c0,0.7-0.1,1.2-0.4,1.6c-0.3,0.4-0.6,0.8-1.1,1c-0.4,0.3-0.9,0.5-1.5,0.6
		c-0.6,0.1-1.1,0.2-1.6,0.2c-0.6,0-1.2-0.1-1.7-0.2c-0.5-0.1-1-0.3-1.4-0.6s-0.8-0.7-1-1.1c-0.3-0.5-0.4-1-0.4-1.7h1.8
		C36.2,22.6,36.3,23,36.4,23.2z"/>
	<path class="st1" d="M53.2,25c-0.8,0.6-1.8,0.9-3.1,0.9c-0.9,0-1.6-0.1-2.3-0.4c-0.6-0.3-1.2-0.7-1.6-1.2c-0.4-0.5-0.8-1.1-1-1.8
		C45.1,21.8,45,21,45,20.2c0-0.8,0.1-1.6,0.4-2.3c0.3-0.7,0.6-1.3,1.1-1.8s1-0.9,1.6-1.2c0.6-0.3,1.3-0.4,2-0.4c1,0,1.8,0.2,2.4,0.6
		c0.6,0.4,1.1,0.9,1.5,1.5c0.4,0.6,0.7,1.3,0.8,2c0.1,0.7,0.2,1.4,0.2,2.1h-8.1c0,0.5,0,0.9,0.2,1.4c0.1,0.4,0.3,0.8,0.6,1.1
		s0.6,0.6,1.1,0.8c0.4,0.2,0.9,0.3,1.5,0.3c0.8,0,1.4-0.2,1.9-0.5c0.5-0.4,0.8-0.9,1-1.6h1.8C54.6,23.4,54.1,24.4,53.2,25z M52.8,18
		c-0.2-0.4-0.4-0.7-0.7-1c-0.3-0.3-0.6-0.5-1-0.7c-0.4-0.2-0.8-0.2-1.2-0.2c-0.5,0-0.9,0.1-1.2,0.2c-0.4,0.2-0.7,0.4-1,0.7
		s-0.5,0.6-0.6,1c-0.2,0.4-0.2,0.8-0.3,1.2h6.2C53.1,18.8,53,18.4,52.8,18z"/>
	<path class="st1" d="M58.5,14.8v1.7h0c0.7-1.3,1.9-2,3.5-2c0.7,0,1.3,0.1,1.8,0.3c0.5,0.2,0.9,0.5,1.2,0.8c0.3,0.4,0.5,0.8,0.6,1.2
		c0.1,0.5,0.2,1,0.2,1.6v7.1H64v-7.3c0-0.7-0.2-1.2-0.6-1.6c-0.4-0.4-0.9-0.6-1.6-0.6c-0.5,0-1,0.1-1.4,0.3c-0.4,0.2-0.7,0.4-1,0.7
		c-0.3,0.3-0.5,0.7-0.6,1.1c-0.1,0.4-0.2,0.9-0.2,1.4v6.1h-1.8V14.8H58.5z"/>
	<path class="st1" d="M73.2,14.8v1.6H71v6.7c0,0.2,0,0.4,0.1,0.5c0,0.1,0.1,0.2,0.2,0.3c0.1,0.1,0.2,0.1,0.4,0.1c0.2,0,0.4,0,0.7,0
		h0.8v1.6h-1.4c-0.5,0-0.9,0-1.2-0.1c-0.3-0.1-0.6-0.2-0.8-0.3c-0.2-0.2-0.4-0.4-0.5-0.7c-0.1-0.3-0.1-0.7-0.1-1.2v-6.9h-1.8v-1.6
		h1.8v-3.3H71v3.3H73.2z"/>
	<path class="st1" d="M82.8,25c-0.8,0.6-1.8,0.9-3.1,0.9c-0.9,0-1.6-0.1-2.3-0.4c-0.6-0.3-1.2-0.7-1.6-1.2c-0.4-0.5-0.8-1.1-1-1.8
		c-0.2-0.7-0.3-1.5-0.4-2.3c0-0.8,0.1-1.6,0.4-2.3c0.3-0.7,0.6-1.3,1.1-1.8s1-0.9,1.6-1.2c0.6-0.3,1.3-0.4,2-0.4
		c1,0,1.8,0.2,2.4,0.6c0.6,0.4,1.1,0.9,1.5,1.5c0.4,0.6,0.7,1.3,0.8,2c0.1,0.7,0.2,1.4,0.2,2.1h-8.1c0,0.5,0,0.9,0.2,1.4
		c0.1,0.4,0.3,0.8,0.6,1.1s0.6,0.6,1.1,0.8c0.4,0.2,0.9,0.3,1.5,0.3c0.8,0,1.4-0.2,1.9-0.5c0.5-0.4,0.8-0.9,1-1.6h1.8
		C84.2,23.4,83.6,24.4,82.8,25z M82.4,18c-0.2-0.4-0.4-0.7-0.7-1c-0.3-0.3-0.6-0.5-1-0.7c-0.4-0.2-0.8-0.2-1.2-0.2
		c-0.5,0-0.9,0.1-1.2,0.2c-0.4,0.2-0.7,0.4-1,0.7s-0.5,0.6-0.6,1c-0.2,0.4-0.2,0.8-0.3,1.2h6.2C82.6,18.8,82.5,18.4,82.4,18z"/>
	<path class="st1" d="M94.3,25.7v-1.5h0c-0.3,0.6-0.8,1-1.4,1.3s-1.3,0.4-2.1,0.4c-0.8,0-1.6-0.2-2.2-0.5c-0.6-0.3-1.1-0.7-1.6-1.2
		s-0.7-1.1-0.9-1.8c-0.2-0.7-0.3-1.4-0.3-2.2c0-0.8,0.1-1.5,0.3-2.2c0.2-0.7,0.5-1.3,0.9-1.8s0.9-0.9,1.6-1.2
		c0.6-0.3,1.3-0.5,2.2-0.5c0.3,0,0.6,0,0.9,0.1c0.3,0.1,0.6,0.2,1,0.3c0.3,0.1,0.6,0.3,0.9,0.5c0.3,0.2,0.5,0.5,0.7,0.8h0v-5.6h1.8
		v15H94.3z M87.9,21.8c0.1,0.5,0.3,0.9,0.6,1.3c0.3,0.4,0.6,0.7,1,0.9c0.4,0.2,0.9,0.3,1.5,0.3c0.6,0,1.1-0.1,1.5-0.4s0.8-0.5,1-0.9
		s0.5-0.8,0.6-1.3c0.1-0.5,0.2-1,0.2-1.5c0-0.5-0.1-1-0.2-1.5c-0.1-0.5-0.3-0.9-0.6-1.3s-0.6-0.7-1.1-0.9c-0.4-0.2-1-0.3-1.6-0.3
		c-0.6,0-1.1,0.1-1.5,0.4s-0.8,0.6-1,0.9c-0.3,0.4-0.4,0.8-0.5,1.3c-0.1,0.5-0.2,1-0.2,1.6C87.7,20.8,87.8,21.3,87.9,21.8z"/>
	<path class="st1" d="M106.5,10.7v5.6h0c0.3-0.6,0.8-1,1.4-1.3c0.6-0.3,1.3-0.4,2.1-0.4c0.8,0,1.6,0.2,2.2,0.5
		c0.6,0.3,1.1,0.7,1.6,1.2s0.7,1.1,0.9,1.8c0.2,0.7,0.3,1.4,0.3,2.2c0,0.8-0.1,1.5-0.3,2.2c-0.2,0.7-0.5,1.3-0.9,1.8
		c-0.4,0.5-0.9,0.9-1.6,1.2s-1.3,0.4-2.2,0.4c-0.3,0-0.6,0-0.9-0.1c-0.3-0.1-0.7-0.1-1-0.3c-0.3-0.1-0.6-0.3-0.9-0.5
		c-0.3-0.2-0.5-0.5-0.7-0.8h0v1.4h-1.8v-15H106.5z M113,18.7c-0.1-0.5-0.3-0.9-0.6-1.3c-0.3-0.4-0.6-0.7-1-0.9
		c-0.4-0.2-0.9-0.3-1.5-0.3c-0.6,0-1.1,0.1-1.5,0.4s-0.8,0.5-1,0.9c-0.3,0.4-0.5,0.8-0.6,1.3c-0.1,0.5-0.2,1-0.2,1.5
		c0,0.5,0.1,1,0.2,1.5s0.3,0.9,0.6,1.3c0.3,0.4,0.6,0.7,1.1,0.9c0.4,0.2,1,0.3,1.6,0.3s1.1-0.1,1.5-0.4c0.4-0.2,0.7-0.6,1-0.9
		c0.3-0.4,0.4-0.8,0.5-1.3s0.2-1,0.2-1.6C113.2,19.6,113.1,19.2,113,18.7z"/>
	<path class="st1" d="M121.4,27.1c-0.2,0.5-0.4,1-0.6,1.3s-0.4,0.7-0.7,0.9c-0.2,0.2-0.5,0.4-0.8,0.5c-0.3,0.1-0.6,0.2-1,0.2
		c-0.2,0-0.4,0-0.6,0s-0.4-0.1-0.6-0.1v-1.6c0.2,0.1,0.3,0.1,0.5,0.2c0.2,0,0.4,0.1,0.5,0.1c0.4,0,0.7-0.1,0.9-0.3
		c0.2-0.2,0.4-0.4,0.6-0.7l0.7-1.8L116,14.8h2l3.2,8.9h0l3-8.9h1.9L121.4,27.1z"/>
</g>
<g>
	<g>
		<g>
			<path class="st1" d="M50.2,52.5L50.2,52.5l-0.1-2.9h-5.6v18.1h5.6v-7.6c0-3.6,0.5-6.1,4.8-6.1c0.8,0,1.6,0.1,2.4,0.4v-5.1
				c-0.5-0.1-1.2-0.2-1.9-0.2C52.9,49.2,51.4,50.3,50.2,52.5z"/>
			<polygon class="st1" points="12.8,61.9 12.8,61.9 8.2,49.6 2.1,49.6 9.6,67.7 15.6,67.7 22.7,49.6 17.1,49.6 			"/>
			<path class="st1" d="M33.2,49.2c-0.3,0-0.5,0-0.8,0c-5.2,0.3-9.3,4-9.3,9.5c0,5.5,4.1,9.1,9.3,9.5c0.3,0,0.5,0,0.8,0
				c2.9,0,5.8-1.3,7.6-3.6l-3.9-2.9c-0.9,1.3-2.2,2.2-4,2.2c-0.2,0-0.4,0-0.5,0c-1.9-0.2-3.3-1.5-3.7-3.5h3.7h9.3v-1.8
				C41.7,52.9,38.4,49.2,33.2,49.2z M32.4,56.6h-3.7c0.1-1.7,1.4-3.3,3.7-3.4c0.1,0,0.2,0,0.3,0c2,0,3.5,1.6,3.4,3.4H32.4z"/>
			<path class="st1" d="M65.2,44.3h-5.6c0,9.1,0,7.2,0,18.4c0,3.9,2.9,5.5,6.6,5.5c1.3,0,2.7-0.1,3.9-0.6V63
				c-0.5,0.4-1.7,0.5-2.3,0.5c-2.4,0-2.6-1.4-2.6-3.4v-6h4.9v-4.5h-4.9V44.3z"/>
			<path class="st1" d="M114,49.2L114,49.2c-5.6,0-10.1,3.7-10.1,9.5c0,5.8,4.5,9.5,10.1,9.5h0c5.6,0,10.1-3.7,10.1-9.5
				C124,52.9,119.6,49.2,114,49.2z M114,63.3L114,63.3c-2.8,0-4.5-1.9-4.5-4.6c0-2.7,1.7-4.6,4.5-4.6h0c2.8,0,4.5,1.9,4.5,4.6
				C118.4,61.4,116.8,63.3,114,63.3z"/>
			<path class="st1" d="M95.8,52L95.8,52c-0.8-1-2.3-2.2-4.5-2.7c-0.6-0.1-1.2-0.2-1.8-0.2c-5.1,0-8.3,4.6-8.3,9.4
				c0,5.5,3.5,9.4,8.9,9.4c0.4,0,0.8,0,1.2-0.1c1.4-0.2,3-0.9,3.9-2.3h0.1v1.8c0,2.3-1.3,4.1-4,4.4c-0.3,0-0.6,0.1-1,0.1
				c-2.3,0-4.2-0.9-5.9-2.3L81.4,74c2.6,2.1,5.9,2.6,9.1,2.6c0.3,0,0.6,0,0.9,0c6.4-0.3,9.6-3.9,9.6-10.5V49.6h-5.1V52z M91.4,63
				L91.4,63c-2.5,0-4.5-2.1-4.5-4.5c0-2.3,1.9-4.5,4.5-4.5h0c2.5,0,4.5,2.1,4.5,4.5C95.8,60.9,93.9,63,91.4,63z"/>
			<rect x="72.9" y="49.6" class="st1" width="5.6" height="18.1"/>
		</g>
		<path class="st2" d="M163.8,30.6c-0.6,0-1.3-0.1-1.9-0.1c-15.4,0-28,12.6-28,28c0,15.4,12.6,28,28,28c0.7,0,1.3,0,1.9-0.1
			c14.5-1,26.1-13.2,26.1-27.9C189.9,43.7,178.3,31.6,163.8,30.6z M149.7,40.3l14,6.7l10,4.8l-9.7,4.6l-0.3-0.1l-14-6.7V40.3z
			 M177.8,59.3v3.7v0l-14,6.7l-14,6.7v-9.2l14-6.7l14-6.7V59.3z"/>
	</g>
</g>
</svg>
