<?xml version="1.0" encoding="utf-8"?>
<!-- Generator: Adobe Illustrator 19.2.1, SVG Export Plug-In . SVG Version: 6.00 Build 0)  -->
<svg version="1.1" id="Layer_1" xmlns="http://www.w3.org/2000/svg" xmlns:xlink="http://www.w3.org/1999/xlink" x="0px" y="0px"
	 viewBox="0 0 192 96" style="enable-background:new 0 0 192 96;" xml:space="preserve">
<style type="text/css">
	.st0{fill:#FFFFFF;}
</style>
<g>
	<path class="st0" d="M12.3,26.9V14h4.9c0.9,0,1.5,0,2,0.1c0.6,0.1,1.2,0.3,1.6,0.6s0.8,0.7,1,1.2s0.4,1.1,0.4,1.8
		c0,1.1-0.3,2-1,2.8s-2,1.1-3.8,1.1H14v5.2H12.3z M14,20.1h3.3c1.1,0,1.9-0.2,2.3-0.6s0.7-1,0.7-1.7c0-0.5-0.1-1-0.4-1.4
		s-0.6-0.6-1.1-0.8c-0.3-0.1-0.8-0.1-1.6-0.1H14V20.1z"/>
	<path class="st0" d="M25.2,26.9V14h5.7c1.1,0,2,0.1,2.6,0.3s1.1,0.6,1.4,1.2s0.5,1.2,0.5,1.9c0,0.9-0.3,1.7-0.9,2.3s-1.5,1-2.7,1.2
		c0.5,0.2,0.8,0.4,1,0.6c0.5,0.5,1,1,1.4,1.7l2.2,3.5h-2.1l-1.7-2.7c-0.5-0.8-0.9-1.4-1.2-1.8s-0.6-0.7-0.9-0.9s-0.5-0.3-0.8-0.3
		c-0.2,0-0.5-0.1-0.9-0.1h-2v5.7H25.2z M26.9,19.7h3.7c0.8,0,1.4-0.1,1.8-0.2c0.4-0.2,0.8-0.4,1-0.8s0.3-0.7,0.3-1.2
		c0-0.6-0.2-1.1-0.7-1.5S32,15.4,31,15.4h-4.1V19.7z"/>
	<path class="st0" d="M39.1,26.9V14h9.3v1.5h-7.6v3.9H48V21h-7.1v4.4h7.9v1.5H39.1z"/>
	<path class="st0" d="M51.4,22.7l1.6-0.1c0.1,0.6,0.3,1.2,0.5,1.6s0.7,0.7,1.3,1s1.2,0.4,2,0.4c0.7,0,1.2-0.1,1.7-0.3
		s0.9-0.5,1.1-0.8s0.4-0.7,0.4-1.1c0-0.4-0.1-0.8-0.4-1.1s-0.6-0.6-1.2-0.8c-0.3-0.1-1.1-0.3-2.3-0.6s-2-0.6-2.5-0.8
		c-0.6-0.3-1.1-0.7-1.4-1.2s-0.5-1-0.5-1.6c0-0.7,0.2-1.3,0.6-1.8s0.9-1,1.6-1.3s1.5-0.4,2.4-0.4c1,0,1.8,0.2,2.5,0.5
		s1.3,0.8,1.7,1.4s0.6,1.3,0.6,2l-1.6,0.1c-0.1-0.8-0.4-1.4-0.9-1.8s-1.3-0.6-2.2-0.6c-1,0-1.8,0.2-2.3,0.6s-0.7,0.8-0.7,1.4
		c0,0.5,0.2,0.8,0.5,1.1c0.3,0.3,1.2,0.6,2.6,0.9s2.3,0.6,2.9,0.8c0.8,0.3,1.3,0.8,1.7,1.3s0.5,1.1,0.5,1.8c0,0.7-0.2,1.3-0.6,1.9
		s-1,1.1-1.7,1.4s-1.6,0.5-2.5,0.5c-1.2,0-2.1-0.2-2.9-0.5s-1.4-0.9-1.9-1.5S51.4,23.6,51.4,22.7z"/>
	<path class="st0" d="M64.9,26.9V14h9.3v1.5h-7.6v3.9h7.1V21h-7.1v4.4h7.9v1.5H64.9z"/>
	<path class="st0" d="M77.8,26.9V14h1.7l6.8,10.1V14h1.6v12.9h-1.7l-6.8-10.1v10.1H77.8z"/>
	<path class="st0" d="M95,26.9V15.5h-4.2V14H101v1.5h-4.3v11.4H95z"/>
	<path class="st0" d="M103.6,26.9V14h9.3v1.5h-7.6v3.9h7.1V21h-7.1v4.4h7.9v1.5H103.6z"/>
	<path class="st0" d="M116.5,26.9V14h4.4c1,0,1.8,0.1,2.3,0.2c0.7,0.2,1.4,0.5,1.9,0.9c0.7,0.6,1.2,1.3,1.5,2.2s0.5,1.9,0.5,3.1
		c0,1-0.1,1.8-0.3,2.6s-0.5,1.4-0.9,1.9s-0.7,0.9-1.2,1.2c-0.4,0.3-0.9,0.5-1.5,0.6s-1.3,0.2-2.1,0.2H116.5z M118.2,25.4h2.8
		c0.8,0,1.5-0.1,2-0.2c0.5-0.2,0.9-0.4,1.2-0.7c0.4-0.4,0.7-0.9,0.9-1.6c0.2-0.7,0.3-1.5,0.3-2.5c0-1.3-0.2-2.4-0.7-3.1
		s-1-1.2-1.6-1.5c-0.5-0.2-1.2-0.3-2.2-0.3h-2.7V25.4z"/>
	<path class="st0" d="M136.2,26.9V14h4.8c1,0,1.8,0.1,2.4,0.4c0.6,0.3,1.1,0.7,1.4,1.2s0.5,1.1,0.5,1.7c0,0.6-0.1,1.1-0.4,1.6
		s-0.8,0.9-1.4,1.2c0.8,0.2,1.4,0.6,1.8,1.2c0.4,0.6,0.6,1.2,0.6,2c0,0.6-0.1,1.2-0.4,1.7c-0.3,0.5-0.6,0.9-0.9,1.2
		s-0.8,0.5-1.4,0.6c-0.6,0.1-1.3,0.2-2.1,0.2H136.2z M137.9,19.4h2.8c0.8,0,1.3,0,1.6-0.1c0.4-0.1,0.8-0.3,1-0.6
		c0.2-0.3,0.3-0.7,0.3-1.1c0-0.4-0.1-0.8-0.3-1.1s-0.5-0.5-0.9-0.7s-1-0.2-2-0.2h-2.6V19.4z M137.9,25.4h3.2c0.6,0,0.9,0,1.2-0.1
		c0.4-0.1,0.7-0.2,1-0.4s0.5-0.4,0.7-0.7s0.3-0.7,0.3-1.1c0-0.5-0.1-0.9-0.4-1.3s-0.6-0.6-1-0.7c-0.4-0.1-1.1-0.2-1.9-0.2h-3V25.4z"
		/>
	<path class="st0" d="M152.8,26.9v-5.5l-5-7.4h2.1l2.5,3.9c0.5,0.7,0.9,1.5,1.3,2.2c0.4-0.7,0.9-1.4,1.4-2.3l2.5-3.8h2l-5.1,7.4v5.5
		H152.8z"/>
</g>
<g>
	<path class="st0" d="M157,37.5c2,0.5,3.9,0.8,5.8,1.4c10.7,3.5,17.7,14.2,16.8,25.8c-0.8,11.1-9.5,20.6-20.5,22.4
		c-14.1,2.4-27.2-7-29.2-21.2c-1.9-13.2,7.4-25.9,20.5-28c0.6-0.1,1.3-0.2,1.9-0.4C153.9,37.5,155.4,37.5,157,37.5z M168.9,58.4
		c-8.4,4-16.7,8-24.9,11.9c0,2.7,0,5.4,0,8.2c1.6-0.8,3.1-1.5,4.6-2.2c6.5-3.1,12.9-6.1,19.4-9.2c0.4-0.2,1-0.2,1-1
		C168.9,63.5,168.9,61,168.9,58.4z M143.9,46.3c0,2.6,0,5.1,0,7.6c0,0.3,0.4,0.8,0.7,1c3.2,1.5,6.4,2.9,9.5,4.6c1.8,1,3.3,1.2,5-0.1
		c0.1-0.1,0.4-0.1,0.5-0.2c1.8-0.9,3.6-1.7,5.6-2.7C158.1,53.1,151.1,49.8,143.9,46.3z"/>
	<path class="st0" d="M95.7,56.6c0-0.7,0.1-1.2,0.1-1.9c1.5,0,3,0,4.5,0c0,0.2,0.1,0.3,0.1,0.5c0,5,0.1,10.1,0,15.1
		c-0.1,5.3-3.2,8.3-8.4,8.5c-3,0.1-5.9-0.2-8.5-2c-0.2-0.1-0.3-0.2-0.5-0.4c0.9-1.4,1.8-2.7,2.8-4.1c0.3,0.2,0.7,0.4,1,0.7
		c1.6,1.1,3.3,1.6,5.3,1.3c2.6-0.3,4-2.4,3.3-5.1c-2.2,2.2-4.8,2.3-7.5,1.3c-3.4-1.2-5.4-5-4.9-9c0.3-2.4,1.3-4.4,3.2-5.9
		C88.5,53.7,93,53.6,95.7,56.6z M87.9,62.7c0,2.1,1.8,3.9,3.9,3.9c2.1,0,4-1.9,4-4c0-2.1-1.9-4-4-4C89.7,58.7,87.8,60.5,87.9,62.7z"
		/>
	<path class="st0" d="M112.1,71.2c-3.3,0-6.4-1.2-8.1-4.5c-1.6-3.2-1.4-6.4,0.8-9.3c2.4-3,5.8-3.7,9.4-3c3.5,0.7,5.8,2.8,6.6,6.3
		C122,66.3,118.3,70.9,112.1,71.2z M112,58.6c-2.4,0-4,1.6-4,4.1c0,2.4,1.6,4,3.9,4.1c2.4,0.1,4-1.6,4.1-4
		C116,60.4,114.4,58.7,112,58.6z"/>
	<path class="st0" d="M47.5,64.3c-3.9,0-7.6,0-11.4,0c0.3,1.4,1.1,2.4,2.4,2.8c2,0.7,3.6-0.1,4.9-1.7c1.2,0.9,2.3,1.7,3.5,2.6
		c-1.3,1.6-2.9,2.6-4.9,3c-4.1,0.9-8.4-0.9-10.1-4.4c-1.4-3-1.3-6,0.5-8.7c2-2.9,5-3.9,8.4-3.6c3.7,0.3,6.3,3,6.6,7
		C47.5,62.2,47.5,63.2,47.5,64.3z M42.4,60.8c-0.1-1.8-1.3-2.9-3-3c-1.4,0-3.4,1.1-3.3,3C38.2,60.8,40.3,60.8,42.4,60.8z"/>
	<path class="st0" d="M12.3,54.6c1.7,0,3.3,0,4.9,0c0.2,0,0.5,0.4,0.6,0.7c1.2,3,2.3,6,3.4,9c0.1,0.3,0.2,0.6,0.4,1.1
		c0.2-0.4,0.3-0.6,0.4-0.9c1.1-3,2.1-6.1,3.1-9.1c0.2-0.6,0.5-0.8,1.2-0.8c1.3,0,2.7,0,4.1,0c-0.1,0.3-0.1,0.6-0.2,0.8
		c-1.9,4.9-3.9,9.8-5.8,14.7c-0.2,0.5-0.4,0.8-1,0.8c-1.3-0.1-2.6,0-3.9,0c-0.3,0-0.8-0.3-0.9-0.5c-2.1-5.1-4.2-10.2-6.3-15.3
		C12.3,55,12.3,54.9,12.3,54.6z"/>
	<path class="st0" d="M72.8,54.6c0,1.4,0,2.7,0,4c-1.4,0-2.8,0-4.3,0c0,2.3,0,4.5,0,6.8c0,0.8,0.6,1.4,1.4,1.5c0.9,0.1,1.8,0,2.8,0
		c0,1,0,2.3,0,3.5c0,0.2-0.4,0.4-0.6,0.5c-1.8,0.4-3.7,0.5-5.5,0c-2-0.6-3.3-2.1-3.3-4c0-5.6,0-11.2,0-16.9c1.7,0,3.3,0,5,0
		c0,1.5,0,3,0,4.7C70,54.6,71.4,54.6,72.8,54.6z"/>
	<path class="st0" d="M50,70.8c0-5.4,0-10.7,0-16c1.7,0,3.3,0,5,0c0,0.7,0,1.4,0,2c1.6-2.3,3.7-2.9,6.3-2.3c0,1.5,0,2.9,0,4.5
		c-0.4-0.1-0.8-0.1-1.1-0.2c-3.2-0.6-5.1,0.9-5.1,4.1c-0.1,2.6,0,5.2,0,7.9C53.4,70.8,51.7,70.8,50,70.8z"/>
	<path class="st0" d="M80.3,70.8c-1.7,0-3.2,0-4.9,0c0-5.4,0-10.7,0-16.1c1.6,0,3.2,0,4.9,0C80.3,60,80.3,65.4,80.3,70.8z"/>
</g>
</svg>
