<?xml version="1.0" encoding="utf-8"?>
<!-- Generator: Adobe Illustrator 19.2.1, SVG Export Plug-In . SVG Version: 6.00 Build 0)  -->
<svg version="1.1" id="Layer_1" xmlns="http://www.w3.org/2000/svg" xmlns:xlink="http://www.w3.org/1999/xlink" x="0px" y="0px"
	 viewBox="0 0 256 96" style="enable-background:new 0 0 256 96;" xml:space="preserve">
<style type="text/css">
	.st0{fill:#FFFFFF;}
</style>
<path class="st0" d="M219.7,10.7c2.9,0.7,5.9,1.1,8.7,2.1c16,5.3,26.4,21.2,25.1,38.5c-1.3,16.5-14.2,30.7-30.6,33.5
	c-21.1,3.6-40.6-10.5-43.7-31.7c-2.9-19.6,11.1-38.7,30.7-41.9c0.9-0.2,1.9-0.4,2.8-0.6C215,10.7,217.3,10.7,219.7,10.7z
	 M237.4,41.8c-12.6,6-24.9,11.9-37.2,17.8c0,4,0,8,0,12.2c2.4-1.2,4.6-2.2,6.8-3.3c9.6-4.6,19.3-9.1,28.9-13.7
	c0.6-0.3,1.5-0.3,1.5-1.4C237.4,49.5,237.4,45.8,237.4,41.8z M200.1,23.8c0,3.9,0,7.6,0,11.3c0,0.5,0.6,1.2,1,1.4
	c4.7,2.3,9.6,4.4,14.2,6.9c2.7,1.4,5,1.8,7.5-0.1c0.2-0.2,0.5-0.2,0.8-0.3c2.7-1.3,5.4-2.6,8.4-4C221.3,33.9,210.8,28.9,200.1,23.8z
	"/>
<path class="st0" d="M128.2,39.1c0.1-1.1,0.1-1.9,0.2-2.8c2.2,0,4.4,0,6.7,0c0,0.2,0.1,0.5,0.1,0.7c0,7.5,0.1,15.1-0.1,22.6
	c-0.2,7.9-4.7,12.4-12.6,12.7c-4.5,0.2-8.8-0.3-12.7-2.9c-0.2-0.2-0.4-0.3-0.8-0.6c1.4-2,2.7-4,4.1-6.1c0.5,0.4,1,0.7,1.5,1
	c2.4,1.6,5,2.3,7.9,2c3.9-0.5,6-3.6,5-7.7c-3.3,3.2-7.2,3.4-11.2,2c-5.1-1.8-8.1-7.4-7.3-13.4c0.5-3.5,1.9-6.6,4.8-8.9
	C117.4,34.7,124,34.7,128.2,39.1z M116.4,48.2c0,3.1,2.8,5.8,5.9,5.9c3.1,0,6-2.8,6-6c0-3.2-2.8-6-6-5.9
	C119.1,42.2,116.4,45,116.4,48.2z"/>
<path class="st0" d="M152.5,61c-5-0.1-9.6-1.8-12.1-6.7c-2.4-4.7-2.1-9.6,1.2-13.8c3.6-4.5,8.6-5.6,14-4.5c5.2,1,8.7,4.2,9.9,9.5
	C167.4,53.6,161.8,60.5,152.5,61z M152.5,42.2c-3.5,0-6,2.4-6,6.1c0,3.5,2.4,6,5.8,6.1c3.5,0.1,6-2.4,6.1-6
	C158.4,44.8,156,42.2,152.5,42.2z"/>
<path class="st0" d="M56.1,50.7c-5.8,0-11.4,0-17.1,0c0.4,2.1,1.6,3.6,3.5,4.2c3,1,5.4-0.2,7.3-2.6c1.7,1.3,3.4,2.5,5.2,3.8
	c-1.9,2.4-4.4,3.8-7.3,4.5c-6.1,1.4-12.5-1.3-15-6.5c-2.1-4.4-2-8.9,0.8-13c3-4.4,7.5-5.8,12.6-5.4c5.5,0.4,9.4,4.5,9.9,10.4
	C56.2,47.5,56.1,49,56.1,50.7z M48.5,45.5c-0.1-2.7-1.9-4.4-4.5-4.4c-2.1,0-5.1,1.7-4.9,4.4C42.2,45.5,45.3,45.5,48.5,45.5z"/>
<path class="st0" d="M3.6,36.2c2.5,0,4.9,0,7.4,0c0.3,0,0.8,0.6,1,1c1.7,4.5,3.4,9,5.1,13.5c0.2,0.4,0.4,0.9,0.6,1.6
	c0.3-0.6,0.5-0.9,0.6-1.3c1.6-4.5,3.2-9.1,4.7-13.6c0.3-1,0.8-1.3,1.8-1.2c2,0.1,4,0,6.1,0c-0.1,0.5-0.2,0.8-0.3,1.2
	c-2.9,7.3-5.8,14.6-8.6,21.9c-0.3,0.8-0.6,1.2-1.6,1.1c-1.9-0.1-3.9,0-5.8-0.1c-0.5,0-1.2-0.4-1.3-0.8C9.9,52,6.8,44.4,3.6,36.8
	C3.6,36.7,3.6,36.6,3.6,36.2z"/>
<path class="st0" d="M94,36.2c0,2.1,0,4,0,6c-2.1,0-4.2,0-6.3,0c0,3.5-0.1,6.8,0,10.1c0,1.2,0.9,2.1,2.2,2.2c1.3,0.1,2.7,0,4.2,0
	c0,1.5,0,3.4,0,5.3c0,0.3-0.5,0.6-0.9,0.7c-2.7,0.6-5.5,0.7-8.2,0c-3-0.8-4.9-3.1-4.9-6c-0.1-8.4,0-16.8,0-25.3c2.5,0,4.9,0,7.5,0
	c0,2.3,0,4.5,0,7C89.7,36.2,91.8,36.2,94,36.2z"/>
<path class="st0" d="M59.9,60.3c0-8,0-15.9,0-24c2.5,0,4.9,0,7.5,0c0,1,0,2,0,3c2.4-3.4,5.5-4.3,9.4-3.5c0,2.2,0,4.4,0,6.7
	c-0.6-0.1-1.1-0.2-1.7-0.3c-4.8-0.8-7.6,1.3-7.7,6.2c-0.1,3.9,0,7.8,0,11.8C64.9,60.3,62.4,60.3,59.9,60.3z"/>
<path class="st0" d="M105.1,60.3c-2.5,0-4.9,0-7.4,0c0-8,0-16,0-24c2.4,0,4.8,0,7.4,0C105.1,44.3,105.1,52.2,105.1,60.3z"/>
</svg>
